<?xml version="1.0" encoding="UTF-8"?>
<!DOCTYPE svg PUBLIC "-//W3C//DTD SVG 1.1//EN" "http://www.w3.org/Graphics/SVG/1.1/DTD/svg11.dtd">
<!-- Creator: CorelDRAW X7 -->
<svg xmlns="http://www.w3.org/2000/svg" xml:space="preserve" width="106.667mm" height="23.4302mm" version="1.1" style="shape-rendering:geometricPrecision; text-rendering:geometricPrecision; image-rendering:optimizeQuality; fill-rule:evenodd; clip-rule:evenodd"
viewBox="0 0 16277 3575"
 xmlns:xlink="http://www.w3.org/1999/xlink">
 <defs>
  <style type="text/css">
   <![CDATA[
    .fil7 {fill:#FEFAFC}
    .fil19 {fill:#F6F6FA}
    .fil12 {fill:#F7F5F5}
    .fil14 {fill:#F4F4F2}
    .fil25 {fill:#EEB1B0}
    .fil15 {fill:#EFF4F1}
    .fil17 {fill:#EEEEF2}
    .fil26 {fill:#E9938D}
    .fil22 {fill:#EAEAEA}
    .fil27 {fill:#E37A86}
    .fil23 {fill:#E6F3E9}
    .fil3 {fill:#CF353A}
    .fil1 {fill:#CC393B}
    .fil18 {fill:#C49984}
    .fil20 {fill:#B8E2E7}
    .fil16 {fill:#B5ADAB}
    .fil24 {fill:#91D0D0}
    .fil11 {fill:#6CC9C7}
    .fil13 {fill:#6F6F70}
    .fil6 {fill:#686C6C}
    .fil5 {fill:#68686B}
    .fil21 {fill:#30B0AD}
    .fil4 {fill:#36A7A8}
    .fil0 {fill:#2CA6A5}
    .fil8 {fill:#43487A}
    .fil9 {fill:#424884}
    .fil2 {fill:#3B467D}
    .fil10 {fill:#3A4783}
   ]]>
  </style>
   <clipPath id="id0">
    <rect y="3129" width="3178" height="194"/>
   </clipPath>
 </defs>
 <g id="Слой_x0020_1">
  <metadata id="CorelCorpID_0Corel-Layer"/>
  <polygon class="fil0" points="16256,1645 11812,1645 11816,2091 16030,2086 "/>
  <path class="fil1" d="M5302 3234c-12,12 -7,10 -26,23 -37,26 46,-22 -17,10 -15,7 -22,8 -42,14 -184,120 -509,184 -762,86 2,-82 74,-96 142,-129 180,-89 343,-166 500,-289 197,-156 610,-637 737,-853 50,-84 324,-1597 333,-1778 8,-143 -121,-111 -143,-48 -29,82 -248,1332 -288,1563 -44,261 -183,386 -350,578l-310 336c-250,238 -432,257 -661,399 -107,66 -203,233 -67,342 100,81 290,89 444,87 328,-3 465,-141 786,-273 135,-56 243,-114 402,-126 308,-24 578,-158 507,-520 -42,-216 -113,-200 2,-422 121,-233 248,-453 374,-685 126,-231 252,-451 375,-684 66,-125 123,-221 187,-343 40,-79 225,-327 -13,-295 -111,157 -881,1593 -1060,1910 -142,252 -90,310 -34,519 65,238 -87,305 -285,349 -149,33 -380,77 -511,135 -46,21 -171,94 -220,94z"/>
  <path class="fil2" d="M2081 1636c-37,-62 -111,-168 -157,-219 -80,38 -326,293 -708,100 -700,-355 -326,-1331 363,-1228 64,9 128,26 181,50 62,29 96,71 154,95 42,-67 113,-137 163,-206 -15,-22 -10,-18 -36,-40 -527,-437 -1491,-81 -1490,737 0,413 241,697 501,833 271,143 672,150 938,-42l66 -50c23,-21 15,-15 25,-30z"/>
  <path class="fil3" d="M8020 1236c-2,-60 -16,-200 12,-249 38,-11 385,-66 390,119 5,175 -252,140 -402,130zm0 -491l-1 -206c132,-9 354,-40 356,102 1,146 -233,110 -355,104zm-318 756c141,13 343,1 487,1 161,0 302,9 419,-67 191,-124 203,-366 90,-502 -57,-69 -86,-67 -143,-111 76,-68 141,-125 122,-283 -15,-117 -92,-191 -184,-226 -114,-44 -653,-51 -790,-29l-1 1217z"/>
  <path class="fil3" d="M11716 1498c66,-61 459,-638 514,-674 2,214 -7,482 8,679l302 0c16,-79 11,-1082 5,-1224l-276 1c-25,46 -466,649 -497,670l-2 -669 -315 0 -1 1220 262 -3z"/>
  <path class="fil3" d="M14695 600c40,18 27,9 58,40 33,34 23,18 37,61 68,47 102,316 -52,456 -283,257 -701,-129 -466,-480 114,-170 364,-150 423,-77zm-802 416c61,318 359,567 767,501 316,-51 572,-371 501,-757 -56,-306 -377,-576 -759,-495 -315,67 -586,344 -509,751z"/>
  <path class="fil3" d="M13645 549c8,-17 7,-21 20,-39 20,-28 13,-14 32,-28l165 -197 -377 -6 -385 451 -4 -446 -316 -5 -1 1221 313 2 6 -524c70,49 447,513 479,523l367 2c-6,-27 -225,-282 -266,-329 -42,-49 -258,-288 -273,-339l240 -286z"/>
  <path class="fil3" d="M9479 739c7,-28 -1,-22 16,-47 17,-25 -2,-2 25,-13l11 52 95 261 -243 -3 96 -250zm-197 516c58,-20 391,-20 455,-3l106 251 331 -6 -512 -1221 -311 2c-22,83 -200,486 -252,614 -37,90 -242,554 -245,610l317 -1c50,-56 63,-182 111,-246z"/>
  <path class="fil3" d="M16122 874c-23,-17 -14,-4 -26,-29l28 -13c206,-127 128,-424 -105,-527 -197,-86 -537,-57 -686,65 -7,70 -12,199 6,265 95,-62 365,-127 508,-81 102,33 104,133 20,168 -77,32 -197,13 -290,21l3 248c92,-1 259,-15 328,33 57,39 76,147 -62,194 -104,35 -220,21 -322,-3 -105,-25 -156,-68 -238,-103l2 291c154,145 574,160 783,52 319,-165 210,-547 51,-581z"/>
  <path class="fil4" d="M2194 1623c-24,19 -171,304 -184,355l3137 -2c32,-55 213,-306 216,-351 5,-36 10,-15 -3,-33l-280 -2 4 240c0,65 -1,44 -13,66l-60 7 1 -284c-10,-17 15,-37 -65,-33 -91,5 -40,-1 -59,30 53,14 36,-17 35,60 -55,-11 -85,-40 -140,-1 13,49 48,34 102,63 146,80 -6,233 -164,146l-1 -65c59,29 105,50 159,12 -10,-50 -16,-42 -70,-59 -142,-45 -90,-130 -49,-150 -31,-44 15,-26 -72,-32l-11 22c-1,3 -2,7 -4,11 -1,3 -3,8 -4,11l-10 21 -88 7 -5 240 -56 -2 -5 -235 -79 -5 -28 -58c-1,-7 -4,-7 -7,-11l-29 39 -113 271 -56 6c-31,-74 -90,-196 -108,-272 -2,-3 -4,-7 -6,-9 -1,-2 -3,-7 -5,-9 -2,-2 -4,-6 -6,-9 -19,-23 5,-3 -27,-23l-35 25c24,34 21,255 -2,304l-39 5c-50,-55 -23,-254 -26,-333l-72 4c9,75 25,262 -6,319 -36,5 -30,7 -60,-15 -33,-62 -55,-78 -95,-129 -24,-29 -14,-21 -42,-38l-3 174 -55 -1 -2 -282c-21,-30 28,-35 -152,-27 3,4 6,11 8,13l16 22c60,66 44,97 -14,152 20,56 52,74 70,124l-64 -2c-19,-29 -38,-50 -54,-75 -26,-39 -17,-43 -78,-43l-3 119 -53 -10c-27,-42 -11,-151 -10,-230 0,-83 -5,-55 -16,-73 -88,5 -31,1 -51,27 4,40 14,46 -26,46l-131 1 1 44c49,3 94,-3 134,21l-5 44 -128 16 6 49c5,2 4,6 32,11 4,0 33,1 39,1 24,1 50,0 76,-1l3 37c-24,27 31,16 -52,22 -9,1 -40,-2 -53,-2 -42,0 -67,3 -116,-2l3 -287c-26,-34 6,-20 -90,-28 11,45 48,324 -30,330 -75,6 -13,7 -33,-18l6 -123 -120 0c-4,46 1,96 -20,136l-52 -4c-35,-66 -18,-239 -7,-319l-88 4c3,2 6,7 7,8l13 22 -5 46 -116 -7c-40,38 -80,77 -39,144 47,77 90,35 164,29l-3 50c-210,115 -336,-201 -145,-269 -19,-28 3,-17 -38,-28 -1,0 -49,0 -53,0 -88,4 -99,-5 -143,35z"/>
  <path class="fil3" d="M10871 781c-50,27 -196,16 -250,13 -15,-68 -16,-185 0,-253 44,-6 215,-21 247,11 161,23 141,211 3,229zm-562 721l306 1 9 -454c202,-19 370,25 517,-79 122,-87 205,-256 135,-443 -54,-142 -189,-234 -360,-246 -164,-11 -442,-11 -606,0l-1 1221z"/>
  <path class="fil5" d="M7894 2465l-106 -4 -1 -723 -242 2 -2 724 -318 -5 -2 -721 -229 -2 -7 934 700 2 4 183 211 1c3,-92 13,-312 -8,-391z"/>
  <polygon class="fil6" points="9119,2288 9469,2292 9474,2677 9714,2676 9713,1737 9470,1740 9467,2071 9119,2071 9116,1738 8874,1740 8881,2678 9117,2675 "/>
  <polygon class="fil6" points="8273,1951 8738,1949 8735,1737 8024,1741 8028,2678 8750,2673 8750,2465 8268,2460 8270,2283 8643,2281 8640,2076 8267,2073 "/>
  <path class="fil1" d="M5529 2807c-32,33 -56,35 -104,53l-52 40 7 68c62,28 87,-10 148,-28 -11,56 -55,124 -3,159 103,42 76,-118 158,-184 52,-41 224,-29 300,-61 255,-107 101,-369 123,-560 12,-106 230,-695 320,-767 98,-79 150,-69 247,-128l-4 -58c-71,-42 -127,3 -199,17 17,-84 68,-193 104,-279l269 -687c25,-66 43,-113 -49,-115 -86,33 -120,476 -384,625 -101,57 -191,40 -273,77l-3 72c142,57 280,-49 357,-57 -83,186 -405,1041 -473,1157 -31,52 -75,106 -124,148 -67,59 -136,55 -145,138 26,99 184,-38 237,-57 26,140 90,300 -41,370 -29,15 -380,59 -416,57z"/>
  <path class="fil6" d="M10997 1947c142,-18 284,-33 266,130 -73,67 -148,57 -267,47l1 -177zm1 381c141,2 295,13 402,-65 195,-143 151,-501 -187,-524 -99,-7 -369,-11 -461,3l5 935 240 -5 1 -344z"/>
  <polygon class="fil5" points="9830,1950 10110,1953 10111,2677 10353,2676 10356,1951 10637,1951 10634,1737 9830,1738 "/>
  <path class="fil7" d="M14790 701c-65,-31 2,-7 -89,-9 -5,-53 -5,-53 -6,-92 -59,-73 -309,-93 -423,77 -235,351 183,737 466,480 154,-140 120,-409 52,-456z"/>
  <path class="fil2" d="M4745 1258c69,20 157,10 229,7l0 -317 168 314 255 5c-17,-43 -196,-349 -220,-374 31,-101 178,-227 217,-334l-189 3c-81,96 -152,213 -228,308l-4 -304 -225 1 -3 691z"/>
  <path class="fil2" d="M1308 1265l221 3 9 -317c63,61 111,246 179,316l239 1c-11,-83 -191,-297 -213,-394 60,-98 168,-211 216,-308l-190 -4c-55,63 -182,273 -231,301l-2 -297 -227 1 -1 698z"/>
  <path class="fil2" d="M2097 1268l156 0c45,-117 66,-449 239,-535l2 528 230 6 0 -701c-179,-2 -315,-21 -466,203 -53,78 -176,381 -161,499z"/>
  <path class="fil8" d="M5407 1421c-325,-4 -3133,-20 -3200,8l-3 57 3208 -1 -5 -64z"/>
  <polygon class="fil9" points="2206,459 5381,459 5384,395 2206,391 "/>
  <path class="fil2" d="M3637 872l-33 79 40 -7 175 -4 1 326c73,1 162,13 229,-10l0 -685 -226 -5 -4 306 -182 0z"/>
  <path class="fil2" d="M4293 1268l219 -1 3 -697 -226 -4c-10,85 -12,638 4,702z"/>
  <polygon class="fil2" points="2970,1268 3193,1267 3199,570 2972,566 "/>
  <polygon class="fil10" points="3644,944 3604,951 3637,872 3643,565 3415,567 3414,1265 3636,1268 "/>
  <path class="fil11" d="M4006 1610l0 234c-5,76 0,40 -28,55 -26,-16 -23,16 -28,-55l7 -232 49 -2zm-1812 13c44,-40 55,-31 143,-35 4,0 52,0 53,0 41,11 19,0 38,28 81,-18 72,-10 144,7l-13 -22c-1,-1 -4,-6 -7,-8l88 -4c-11,80 -28,253 7,319l52 4c21,-40 16,-90 20,-136 -42,8 3,58 -33,122 -42,-10 -40,27 -38,-120 1,-55 -1,-108 6,-162l41 -3c14,60 -14,77 29,100l-12 -120 121 -2 -12 127c41,3 7,-56 33,-105l35 0 3 282 -59 4c20,25 -42,24 33,18 78,-6 41,-285 30,-330 96,8 64,-6 90,28 62,-15 157,-20 217,0 20,-26 -37,-22 51,-27 11,18 16,-10 16,73 -1,79 -17,188 10,230l1 -279 195 14 -16 -22c-2,-2 -5,-9 -8,-13 180,-8 131,-3 152,27l73 6c-21,-55 -9,-14 4,-30l118 -1 -5 146c-18,26 12,9 -22,7 17,40 -11,9 28,42 23,-45 6,-120 13,-175l42 2 4 277 -58 2c30,22 24,20 60,15 31,-57 15,-244 6,-319l72 -4c3,79 -24,278 26,333l39 -5c23,-49 26,-270 2,-304l35 -25c32,20 8,0 27,23 2,3 4,7 6,9 2,2 4,7 5,9 2,2 4,6 6,9l5 -23c41,0 33,0 58,14 -11,-58 -5,-15 11,-35l139 0 -15 57 40 -39c63,10 20,4 39,21l29 -39c3,4 6,4 7,11l28 58 -3 -43 231 -4 5 42 10 -21c1,-3 3,-8 4,-11 2,-4 3,-8 4,-11l11 -22c87,6 41,-12 72,32 59,-23 68,-25 128,-6 19,-31 -32,-25 59,-30 80,-4 55,16 65,33l50 -14c24,64 9,221 9,291 12,-22 13,-1 13,-66l-4 -240 280 2c13,18 8,-3 3,33 72,-39 25,-50 -41,-50l-2972 1c-78,0 -144,-25 -156,47z"/>
  <path class="fil7" d="M8020 1236c150,10 407,45 402,-130 -5,-185 -352,-130 -390,-119 -28,49 -14,189 -12,249z"/>
  <path class="fil12" d="M10871 781c138,-18 158,-206 -3,-229l-236 0 -5 226 244 3z"/>
  <path class="fil12" d="M8020 745c122,6 356,42 355,-104 -2,-142 -224,-111 -356,-102l1 206z"/>
  <path class="fil13" d="M14861 3176l42 109 -99 1 57 -110zm189 224c83,-69 54,-129 69,-250l99 -2 2 255 49 -1 -2 -298 -199 7c-3,95 13,206 -44,247 -54,-9 -45,-26 -91,-132 -62,-141 -25,-113 -90,-123l-136 304c88,-12 38,-13 84,-76l137 5 27 70 95 -6z"/>
  <path class="fil6" d="M14274 2909c-4,-73 -3,-135 60,-154 54,-17 102,10 117,60 39,126 -70,218 -177,94zm-102 32c1,-27 -1,-32 4,-60 96,0 36,125 178,135 200,13 205,-328 -2,-312 -150,12 -68,125 -180,132l-3 -126 -47 1c0,85 -21,230 10,297l26 0 14 -67z"/>
  <path class="fil13" d="M13274 3336l1 -169c61,7 96,19 96,84 0,62 -39,80 -97,85zm-134 -33c-19,-89 0,-129 87,-135l-5 168c-44,-2 -58,-14 -82,-33zm13 62c24,12 41,11 58,20 49,26 -16,10 43,31 47,-23 -8,4 25,-22 8,-5 6,-7 25,-15 22,-9 30,-3 58,-20 37,-21 59,-59 59,-108 1,-56 -26,-88 -61,-107 -23,-12 -37,-11 -57,-20 -58,-24 3,1 -49,-31l-61 34c-185,67 -109,206 -40,238z"/>
  <path class="fil12" d="M10996 2124c119,10 194,20 267,-47 18,-163 -124,-148 -266,-130l-1 177z"/>
  <path class="fil14" d="M3801 1894l58 -2 -4 -277 -42 -2c-7,55 10,130 -13,175 -39,-33 -11,-2 -28,-42 -32,-27 -80,-89 -95,-122l-73 -6 2 282 55 1 3 -174c28,17 18,9 42,38 40,51 62,67 95,129z"/>
  <path class="fil14" d="M3337 1666c71,-13 114,-17 107,60l-109 -1 2 -59zm-57 225l53 10 3 -119c61,0 52,4 78,43 16,25 35,46 54,75l64 2c-18,-50 -50,-68 -70,-124 58,-55 74,-86 14,-152l-195 -14 -1 279z"/>
  <path class="fil13" d="M15325 3402c69,2 72,-38 110,-89 29,-39 46,-80 95,-107l2 196 47 0 3 -296c-87,0 -99,86 -204,205 -6,-40 -5,-72 -4,-112 0,-10 1,-44 0,-52 -6,-72 2,-15 -14,-43 -53,10 -36,-31 -36,134 0,55 -2,109 1,164z"/>
  <path class="fil13" d="M12854 3157c122,-71 216,132 90,196 -120,61 -218,-123 -90,-196zm186 158c86,-192 -201,-300 -280,-132 -93,194 193,327 280,132z"/>
  <path class="fil13" d="M14323 3302c-53,125 -250,44 -186,-99 20,-46 85,-78 141,-47 47,27 69,92 45,146zm48 13c86,-199 -207,-290 -280,-132 -92,200 197,323 280,132z"/>
  <path class="fil6" d="M12707 2966c-33,-32 -69,-58 -59,-128 24,-176 337,-61 146,130l-87 -2zm192 -64c59,-210 -251,-269 -296,-86 -52,212 242,277 296,86z"/>
  <path class="fil14" d="M9479 739l-96 250 243 3 -95 -261 -24 -18c-1,3 -6,7 -8,9 -1,1 -8,11 -9,8 -1,-3 -8,5 -11,9z"/>
  <path class="fil15" d="M4888 1616c-60,-19 -69,-17 -128,6 -41,20 -93,105 49,150 54,17 60,9 70,59 -54,38 -100,17 -159,-12l1 65c158,87 310,-66 164,-146 -54,-29 -89,-14 -102,-63 55,-39 85,-10 140,1 1,-77 18,-46 -35,-60z"/>
  <path class="fil13" d="M13021 2758l141 -1c0,48 1,97 0,145 -1,139 0,101 40,105 31,-68 14,-212 8,-297l-242 -1c-1,63 -17,252 15,300 45,-17 33,-12 32,-146l6 -105z"/>
  <path class="fil14" d="M2719 1776l120 0 -6 123 59 -4 -3 -282 -35 0c-26,49 8,108 -33,105l-97 -5c-43,-23 -15,-40 -29,-100l-41 3c-7,54 -5,107 -6,162 -2,147 -4,110 38,120 36,-64 -9,-114 33,-122z"/>
  <path class="fil13" d="M14455 3404c29,-35 15,-67 19,-136l149 0 3 134 48 2c2,-69 15,-245 -12,-300 -68,15 -22,-19 -41,118l-147 -4c-12,-170 20,-90 -32,-114 -25,31 -9,-31 -21,43l1 208c5,72 -5,37 33,49z"/>
  <path class="fil12" d="M12854 3157c-128,73 -30,257 90,196 126,-64 32,-267 -90,-196z"/>
  <path class="fil12" d="M12707 2966l87 2c191,-191 -122,-306 -146,-130 -10,70 26,96 59,128z"/>
  <path class="fil14" d="M4085 1635c18,76 77,198 108,272l56 -6 113 -271c-19,-17 24,-11 -39,-21l-40 39 -66 157 -69 -179c-25,-14 -17,-14 -58,-14l-5 23z"/>
  <path class="fil12" d="M14323 3302c24,-54 2,-119 -45,-146 -56,-31 -121,1 -141,47 -64,143 133,224 186,99z"/>
  <path class="fil13" d="M13514 3150c31,-1 59,0 89,0 91,-1 62,-9 73,-28 -15,-11 -2,-11 -34,-18l-181 2 2 298c66,2 170,13 219,-11 -11,-46 -2,-35 -66,-34 -39,0 -63,1 -104,-4l3 -86c59,-5 117,17 134,-31 -33,-27 -85,-17 -135,-17l0 -71z"/>
  <path class="fil13" d="M13335 2758c159,-19 151,30 165,-37 -46,-25 -152,-12 -214,-12l0 302c41,-1 82,-1 123,-1 110,2 83,-3 96,-31 -27,-15 24,0 -31,-13l-139 -3 -1 -89 134 -5 2 -41 -136 -5 1 -65z"/>
  <polygon class="fil13" points="12248,3149 12390,3149 12394,3403 12440,3403 12440,3104 12195,3109 12196,3403 12244,3404 "/>
  <path class="fil16" d="M7894 2465c21,79 11,299 8,391l-211 -1 -4 -183 -700 -2 7 -934c-25,17 -16,-15 -21,54l7 894 695 4 6 167c55,26 173,22 232,2 9,-65 4,-134 4,-201 1,-93 18,-173 -23,-191z"/>
  <path class="fil13" d="M12547 3150c75,-4 125,-21 126,62 -40,37 -66,26 -128,22l2 -84zm3 132c104,-2 114,14 175,-54 -6,-76 1,-159 -230,-119l0 293 49 3 6 -123z"/>
  <path class="fil6" d="M14876 2858c65,-5 90,-8 136,29l-4 54c-45,28 -62,31 -136,20l4 -103zm-51 152c105,-1 222,18 235,-84 14,-117 -92,-104 -186,-119 -1,-15 0,-50 -1,-60 -8,-62 3,-13 -17,-37 -39,11 -32,-15 -33,62l2 238z"/>
  <path class="fil12" d="M14274 2909c107,124 216,32 177,-94 -15,-50 -63,-77 -117,-60 -63,19 -64,81 -60,154z"/>
  <path class="fil14" d="M2572 1623c-72,-17 -63,-25 -144,-7 -191,68 -65,384 145,269l3 -50c-74,6 -117,48 -164,-29 -41,-67 -1,-106 39,-144l116 7 5 -46z"/>
  <path class="fil13" d="M13723 2829c-42,17 -67,15 -118,8l0 -80c194,-19 121,53 118,72zm-117 61c95,-12 203,8 179,-117 -16,-81 -151,-70 -230,-60l6 296 40 4 5 -123z"/>
  <path class="fil14" d="M3204 1884l-3 -37c-26,1 -52,2 -76,1 -6,0 -35,-1 -39,-1 -28,-5 -27,-9 -32,-11l-6 -49c30,-63 65,20 123,-48 -11,-6 -6,-9 -33,-14 -52,-10 -90,20 -91,-19l-1 -44 131 -1 15 -40 -198 -2c-2,79 -16,196 10,264l200 1z"/>
  <path class="fil13" d="M13945 3367c-55,-32 -182,45 -194,-105 -9,-119 94,-119 186,-104 -1,-120 -226,-59 -237,79 -7,78 28,131 73,153 40,20 112,29 148,10 40,-22 5,6 24,-33z"/>
  <path class="fil13" d="M13816 2708c42,103 121,197 100,235 -12,20 -71,33 -71,32 -1,-2 -5,3 -7,4 12,60 78,72 147,-71 29,-60 72,-135 89,-200 -110,4 -35,43 -122,149 -19,-23 -36,-57 -51,-85 -34,-61 -11,-60 -85,-64z"/>
  <polygon class="fil17" points="4426,1660 4505,1665 4510,1900 4566,1902 4571,1662 4659,1655 4654,1613 4423,1617 "/>
  <path class="fil13" d="M14770 2721c-44,-22 -200,-14 -246,-8l3 40 96 6c0,54 -12,206 13,249 58,-13 34,-103 34,-254 70,0 85,20 100,-33z"/>
  <path class="fil4" d="M4148 1626l69 179 66 -157 15 -57 -139 0c-16,20 -22,-23 -11,35z"/>
  <path class="fil13" d="M14016 3104c-49,14 -34,-22 -33,134 0,54 -1,108 0,163l46 2c7,-53 19,-254 -13,-299z"/>
  <path class="fil12" d="M4006 1610l-49 2 -7 232c5,71 2,39 28,55 28,-15 23,21 28,-55l0 -234z"/>
  <polygon class="fil0" points="2724,1713 2821,1718 2833,1591 2712,1593 "/>
  <path class="fil12" d="M14872 2961c74,11 91,8 136,-20l4 -54c-46,-37 -71,-34 -136,-29l-4 103z"/>
  <path class="fil12" d="M13274 3336c58,-5 97,-23 97,-85 0,-65 -35,-77 -96,-84l-1 169z"/>
  <path class="fil0" d="M3677 1624c15,33 63,95 95,122 34,2 4,19 22,-7l5 -146 -118 1c-13,16 -25,-25 -4,30z"/>
  <path class="fil12" d="M13140 3303c24,19 38,31 82,33l5 -168c-87,6 -106,46 -87,135z"/>
  <path class="fil18" d="M10871 781l-244 -3 5 -226 236 0c-32,-32 -203,-17 -247,-11 -16,68 -15,185 0,253 54,3 200,14 250,-13z"/>
  <path class="fil19" d="M5050 1888l17 -58c3,-49 8,-173 -17,-212 -33,19 -24,-21 -27,56l-1 157c3,77 2,41 28,57z"/>
  <path class="fil12" d="M13723 2829c3,-19 76,-91 -118,-72l0 80c51,7 76,9 118,-8z"/>
  <path class="fil12" d="M12545 3234c62,4 88,15 128,-22 -1,-83 -51,-66 -126,-62l-2 84z"/>
  <path class="fil20" d="M3204 1884l-200 -1c-26,-68 -12,-185 -10,-264l198 2 -15 40c40,0 30,-6 26,-46 -60,-20 -155,-15 -217,0l-3 287c49,5 74,2 116,2 13,0 44,3 53,2 83,-6 28,5 52,-22z"/>
  <path class="fil21" d="M3335 1725l109 1c7,-77 -36,-73 -107,-60l-2 59z"/>
  <path class="fil20" d="M5050 1888c-26,-16 -25,20 -28,-57l1 -157c3,-77 -6,-37 27,-56 25,39 20,163 17,212l-17 58zm21 8c0,-70 15,-227 -9,-291l-50 14 -1 284 60 -7z"/>
  <polygon class="fil14" points="14804,3286 14903,3285 14861,3176 "/>
  <path class="fil22" d="M14790 701c-14,-43 -4,-27 -37,-61 -31,-31 -18,-22 -58,-40 1,39 1,39 6,92 91,2 24,-22 89,9z"/>
  <path class="fil23" d="M5425 2860c48,-18 72,-20 104,-53 -39,-35 -34,-27 -92,-23l-12 76z"/>
  <path class="fil23" d="M5217 3281c20,-6 27,-7 42,-14 63,-32 -20,16 17,-10 19,-13 14,-11 26,-23 -29,-41 8,-16 -45,-39l-39 16 -1 70z"/>
  <path class="fil24" d="M3048 1787l128 -16 5 -44c-40,-24 -85,-18 -134,-21 1,39 39,9 91,19 27,5 22,8 33,14 -58,68 -93,-15 -123,48z"/>
  <path class="fil25" d="M9479 739c3,-4 10,-12 11,-9 1,3 8,-7 9,-8 2,-2 7,-6 8,-9l24 18 -11 -52c-27,11 -8,-12 -25,13 -17,25 -9,19 -16,47z"/>
  <path class="fil26" d="M13645 549c34,-26 32,-27 52,-67 -19,14 -12,0 -32,28 -13,18 -12,22 -20,39z"/>
  <path class="fil27" d="M16122 874l2 -42 -28 13c12,25 3,12 26,29z"/>
  <g style="clip-path:url(#id0)">
   <image id="Ліцензія_x0020_МОЗ_x0020__x2116_870_x0020_від_x0020_18.09.16" x="0" y="3129" width="3178" height="194" xlink:href="0.svg_Images\0.svg_ImgID1.png"/>
  </g>
 </g>
</svg>
