<?xml version="1.0" encoding="UTF-8"?>
<!DOCTYPE svg PUBLIC "-//W3C//DTD SVG 1.1//EN" "http://www.w3.org/Graphics/SVG/1.1/DTD/svg11.dtd">
<!-- Creator: CorelDRAW X7 -->
<svg xmlns="http://www.w3.org/2000/svg" xml:space="preserve" width="121.015mm" height="76.1563mm" version="1.1" style="shape-rendering:geometricPrecision; text-rendering:geometricPrecision; image-rendering:optimizeQuality; fill-rule:evenodd; clip-rule:evenodd"
viewBox="0 0 23842 15004"
 xmlns:xlink="http://www.w3.org/1999/xlink">
 <defs>
  <style type="text/css">
   <![CDATA[
    .str0 {stroke:#F9FCFE;stroke-width:39.4028}
    .fil16 {fill:#FFFEFA}
    .fil0 {fill:#F9FCFE}
    .fil34 {fill:#F7F5F5}
    .fil64 {fill:#F7E6DA}
    .fil63 {fill:#F3EAE7}
    .fil29 {fill:#F1F3F4}
    .fil11 {fill:#F2EFEC}
    .fil54 {fill:#EDEBE7}
    .fil65 {fill:#EDD0BA}
    .fil5 {fill:#EAE6E4}
    .fil69 {fill:#E8E3DC}
    .fil66 {fill:#E8D6C6}
    .fil67 {fill:#E6F3E9}
    .fil68 {fill:#E4E8F1}
    .fil32 {fill:#E5D9D5}
    .fil43 {fill:#E2E3E4}
    .fil56 {fill:#E2DDDD}
    .fil13 {fill:#E3C8B7}
    .fil30 {fill:#E1C2A8}
    .fil10 {fill:#DCD4D2}
    .fil51 {fill:#DCD3CC}
    .fil23 {fill:#DBC0A9}
    .fil4 {fill:#DAB59B}
    .fil6 {fill:#CC393B}
    .fil15 {fill:#D8C3B4}
    .fil28 {fill:#D6B9A7}
    .fil3 {fill:#D7B99C}
    .fil50 {fill:#D5A997}
    .fil42 {fill:#D4A788}
    .fil2 {fill:#D2B49B}
    .fil53 {fill:#D2AD93}
    .fil55 {fill:#D2AB8D}
    .fil48 {fill:#CEB39B}
    .fil7 {fill:#CEAC93}
    .fil12 {fill:#CEA37E}
    .fil62 {fill:#CA8C73}
    .fil26 {fill:#CCA689}
    .fil17 {fill:#C8C2BB}
    .fil52 {fill:#CAA997}
    .fil8 {fill:#C79779}
    .fil60 {fill:#C7B5A8}
    .fil19 {fill:#C49984}
    .fil21 {fill:#BA9275}
    .fil24 {fill:#B88B75}
    .fil27 {fill:#B7886A}
    .fil40 {fill:#BB9884}
    .fil33 {fill:#AA6C55}
    .fil18 {fill:#B5ADAB}
    .fil59 {fill:#B7A497}
    .fil9 {fill:#A5745C}
    .fil47 {fill:#955947}
    .fil36 {fill:#AB866D}
    .fil38 {fill:#A77A64}
    .fil31 {fill:#8B533B}
    .fil14 {fill:#97634B}
    .fil44 {fill:#996A55}
    .fil25 {fill:#AB948D}
    .fil46 {fill:#986D57}
    .fil41 {fill:#875A46}
    .fil22 {fill:#734939}
    .fil45 {fill:#998678}
    .fil61 {fill:#90756B}
    .fil39 {fill:#765546}
    .fil57 {fill:#5A3A32}
    .fil20 {fill:#908D8B}
    .fil35 {fill:#594338}
    .fil49 {fill:#6F6F70}
    .fil58 {fill:#68686B}
    .fil1 {fill:#53B2AD}
    .fil37 {fill:#33313E}
   ]]>
  </style>
 </defs>
 <g id="Слой_x0020_1">
  <metadata id="CorelCorpID_0Corel-Layer"/>
  <rect class="fil0 str0" x="20" y="135" width="23779" height="14850"/>
  <polygon class="fil1" points="67,301 23834,300 23837,0 67,0 "/>
  <path class="fil2" d="M14630 7641c-33,-10 -26,7 -37,-31l10 -42 29 -14c89,-9 -71,-14 28,2 5,1 46,19 53,21 -2,33 3,103 -18,126l-26 28c-22,34 -1,10 -16,44 -43,103 -101,70 -165,111 -47,29 -1,21 -86,49 -16,-54 -16,-34 -18,-105 25,6 -36,-14 4,-59 25,-29 78,-24 124,-26 38,-138 14,-29 118,-104zm-292 -726c-49,40 -200,12 -274,18 -30,49 -184,183 -231,230 -75,78 -183,144 -253,212 -46,44 -84,76 -120,115 -161,174 -43,142 -233,230 -52,25 -108,48 -152,68 -262,116 -647,392 -886,517l-150 82c-82,47 -74,-4 -112,94 -257,0 -552,249 -668,264 -82,49 -99,48 -145,120 -48,74 -77,86 -108,163 -20,70 -56,135 -72,203l-47 220c-19,83 -1,173 -1,259 -1,129 -27,141 40,227 47,-50 50,-78 136,-82 0,139 -43,295 71,359 -2,-5 -4,-18 -5,-15l-20 -37c-33,-67 -41,-170 -6,-227l7 -85 -38 -74c-71,-9 -4,10 -96,20 -25,-211 -72,-448 46,-606l247 -138c76,-55 67,-179 197,-217 -3,161 -299,332 -352,474 -25,65 -35,164 -30,244l301 -235c68,-67 100,-153 196,-179 6,159 -119,164 -234,307 -29,37 -44,70 -103,82 -8,89 -16,58 -31,117 -25,106 18,91 -58,123l5 30c26,24 15,-20 34,27 75,-34 67,-69 130,-118 81,-64 25,17 122,-78l95 -89c165,-131 141,-159 230,-188 -5,162 -97,82 -129,241l77 24 -14 62c231,13 168,13 295,-46 62,-28 199,-75 274,-7 -20,94 -136,98 -263,215l-41 -5c-15,67 22,-3 -100,66 87,-4 168,47 198,120 63,157 -30,154 -45,234 -67,2 -51,0 -81,21 17,10 4,10 37,16 11,2 35,2 48,3 60,6 43,11 92,23 96,24 100,-29 160,-41 82,-17 95,-12 169,-48 17,-8 39,-25 59,-39 48,-35 6,-22 89,-29 10,-44 9,-30 24,-78 147,-12 4,-59 258,-103l232 -172c100,-72 131,-145 185,-232 22,-57 126,-164 174,-227l154 -146c32,-32 19,-12 51,-47 144,-165 112,-95 253,-249l156 -132 19 -110c2,-2 6,-7 8,-9l24 -25c38,-47 14,-54 70,-99 113,-90 40,-34 114,-154l27 -39c14,-13 26,-14 50,-31 30,-29 8,-39 69,-118 3,-4 12,-15 15,-19l37 -44c3,-3 23,-18 27,-21 46,-44 29,22 37,-82 162,-47 202,-163 304,-176l26 -111 87 -5c3,-5 7,-10 9,-14l13 -26c30,-49 8,-1 94,-86 10,-10 27,-19 41,-25l13 -118c0,-52 -5,-9 -8,-12l62 -18c5,-3 45,-32 49,-36 3,-3 6,-7 8,-10 54,-60 -1,-17 84,-62 69,-37 9,5 46,-43 40,-52 47,-56 49,-165l131 -3 38 -65c33,-45 11,-16 79,-50 39,-20 34,-51 21,-88 62,-3 47,-63 47,-64 2,-60 -6,-10 -11,-13 75,10 82,26 151,14 -20,-18 12,-7 -43,-29 -35,-14 -347,-87 -438,-216 -42,-60 -37,-90 -68,-154 -12,10 -32,26 -49,41l-151 133c-137,108 -327,194 -506,241 -110,29 -202,59 -319,50z"/>
  <path class="fil3" d="M14253 9952c-3,-15 -19,-1 -2,-35 20,-39 13,-19 44,-42l67 -252c35,-64 54,-97 87,-158 21,-41 83,-82 143,-87 -26,65 -92,137 -107,205 -16,73 16,60 9,142l-16 101c-7,36 -6,26 -11,38 -6,2 -17,5 -30,4 0,0 -33,-6 -40,-7l-28 87c-72,18 -51,21 -116,4zm2057 -3045l0 16 25 -1 142 30 103 5c-31,23 -32,27 -65,50l-70 53c-4,2 -40,22 -41,23l-57 44c-1,0 -36,7 -45,8l-11 101c-69,28 -76,53 -95,122l39 26c2,-3 7,5 10,7 -98,112 -61,41 -164,100 -62,66 65,28 -68,101 -74,40 4,29 -90,75 -51,25 -40,7 -56,61l-62 -10c1,2 36,-16 4,32 -14,20 -28,20 -45,28 -48,20 -53,21 -98,15l-136 246c-51,4 -74,4 -69,-36 -10,75 -10,54 -32,82 -40,-13 -18,-1 -58,-17l-3 -9c-1,104 -14,139 23,172 2,2 10,8 15,11 -69,52 10,116 -143,101 -34,66 6,37 -77,60 -29,8 -77,18 -111,31l-9 63c-140,20 -64,59 -193,91 -71,18 -48,4 -112,53l-15 10c-132,128 -91,12 -186,137 -65,86 -89,41 -145,123l-59 7c-2,2 -5,2 -5,6l-123 90c-43,94 -44,42 -94,84 -68,58 29,52 -85,98 -1,24 0,90 -39,92l-94 -7 31 94c112,-21 68,-34 139,-61 306,-119 147,-84 283,-149 18,-9 56,-28 69,-32 97,-32 88,7 92,10 -23,64 -36,35 -111,74l-119 67c-67,42 -10,67 -135,130l-123 72c-15,34 3,40 -34,74l-3 178 -65 20c-28,-10 -43,55 -51,80l-78 -6c-26,37 -41,9 89,39 43,10 75,22 120,34 77,21 163,41 233,47l1 28c96,4 194,-2 291,0 90,1 176,18 250,-1l25 -13c-87,-12 -92,12 -145,-23 13,-65 -5,-6 37,-35 -3,-47 30,-127 70,-148l10 -29c17,-59 78,-145 111,-180 44,-46 143,-69 227,-74 -29,59 -65,58 -84,117 -46,99 -82,85 -98,233 92,8 67,-3 139,26 51,20 96,9 142,25l62 -35 51 -41c15,-39 21,-51 52,-92 68,-88 162,-98 252,-149 22,20 7,-3 13,41 57,-15 21,47 54,-42 -24,-38 10,-23 -33,-41 -84,-34 -130,44 -138,49 -128,77 -112,71 -196,75l83 -184c42,-33 58,-36 105,-42 11,-148 73,-11 93,-174 -51,-35 -109,8 -78,-132 245,0 71,-66 235,-106l20 30c3,3 10,18 13,22 21,28 12,25 63,32 51,6 56,7 88,14 36,6 55,5 91,5 -14,-34 0,-5 -18,-26 -35,-39 -40,-8 -13,-91 75,-3 60,-1 119,15 1,3 3,5 3,9 0,4 3,7 3,9l10 35c81,-18 57,-35 95,-6 14,-47 10,-27 33,-66 57,11 35,15 76,2l-13 63 93 -2c11,17 12,15 24,40 12,22 5,19 19,40 -11,-49 -1,-34 12,-64 69,70 -13,39 41,62l-4 58 49 -70 10 -59c5,1 30,7 33,6 78,-23 -63,48 15,-8l14 -16c127,-127 44,11 146,-205 24,-49 -3,-80 14,-175 5,-23 19,-87 20,-91l15 -102c1,3 6,-7 7,-8 1,-1 5,-5 5,-6 29,-40 -35,-39 64,-60 4,-59 6,-51 21,-97 103,58 -4,-39 50,32 25,34 8,12 12,48 36,-43 60,-6 72,18 32,-39 70,-67 100,-112 13,-20 22,-41 38,-62 40,-50 23,-22 69,-49 58,-34 59,-67 110,-107 68,-52 41,-68 128,-88 4,-84 100,-182 171,-222 43,-40 86,-84 119,-129 -2,-62 7,-52 27,-95l-160 24c-2,-22 -6,-66 -10,-74l-19 -19c-3,-4 -10,-6 -12,-15 -3,-11 -10,-12 -15,-18 73,-20 47,-15 56,-116l80 -1c-5,-69 -3,-125 38,-176 3,-3 7,-7 9,-9l108 -97c111,-63 102,-15 103,-14 -25,-59 -6,-36 12,-73 114,-14 257,28 416,-5 34,-7 45,40 45,-25 -266,11 -309,21 -570,-35 -205,-44 -277,-89 -364,-246 -69,19 -421,378 -1255,277z"/>
  <path class="fil4" d="M19439 3907l-173 -7 -78 -1 0 30c178,-23 459,-15 645,-14 236,1 400,24 439,257 0,0 -36,32 31,88l24 -137c3,1 10,3 13,3 26,2 13,4 39,-11 -66,-18 -54,-13 -67,-98 41,12 24,7 42,17 2,1 5,6 27,18 -15,-45 -8,-14 -18,-68 42,7 40,12 82,15l-15 -79 112 -90c3,-2 6,-5 9,-7 40,-26 46,-8 90,-61 41,-47 97,-85 160,-90 -2,-164 12,36 38,-114l78 -3c3,-2 7,-11 8,-8l9 -43c108,48 -17,-9 181,-21 -6,-117 8,-468 180,-332 20,-54 -58,-52 39,-42 33,14 70,120 251,126 61,2 515,-158 592,-188 175,-67 170,-39 342,-34l-35 -26c-29,-17 -24,-1 -54,-36 84,-7 73,-23 90,-44l102 -8c56,-96 56,-15 97,-76 33,-50 -15,-58 50,-119 -14,-29 -24,-45 -32,-82 67,-8 64,-19 68,-99l48 49c7,-64 16,-63 79,-73 14,-161 -3,-169 54,-213 26,-21 8,-7 30,-21 26,-16 36,-19 60,-37 4,-105 7,-133 67,-158 -16,-14 -12,-7 -32,-23 -38,-29 -28,-23 -25,-114l66 18c12,-112 20,23 49,-133l102 2c43,-47 29,-36 116,-37 176,-2 149,-11 228,127 2,5 8,19 11,22 22,26 -10,12 49,17 -3,58 -13,44 13,83 18,-5 38,-9 55,-17l-6 -360 4 -737c-25,11 -4,9 -55,14 2,3 27,-51 0,18l-18 19c-4,0 -11,-1 -14,-2 -2,-2 -9,-3 -12,-5 -89,-43 -45,-81 -136,-95 5,-6 10,-14 14,-18 56,-56 24,-23 34,-13l-534 -40 -50 -60c-91,0 -405,4 -463,-42l1 -31c89,-27 26,12 51,-45l-148 -1c-7,17 -7,30 -6,46 44,25 -50,19 43,20 57,1 1,11 23,-14 -74,10 -117,2 -185,7 -115,9 -81,40 -166,41l-17 41 51 9c45,7 32,7 56,23l-307 1c40,63 29,49 133,47l64 65c-36,43 -47,12 -131,19 -20,35 -30,62 -36,114l-50 14c13,29 19,44 34,69 -14,33 -12,19 -18,31 -26,51 -6,43 -47,85l-20 18c2,178 -91,158 -146,300 -13,32 -5,18 -25,43 -22,27 -20,22 -42,39 24,41 -2,22 48,37 -9,23 39,41 -129,48 -64,124 -105,23 -117,200 -5,71 -4,45 -19,99 -69,-21 4,-20 -82,-32 0,106 -4,90 -64,133 -1,42 5,78 6,102 1,26 -20,20 25,67l-81 21c-13,91 1,78 -40,126 -34,-27 -19,-13 -47,-46 -48,56 -4,76 -53,160 -41,71 -55,7 -63,107 -27,-15 -21,-15 -62,-16l-2 85 -66 17c-8,97 -18,98 -120,97 2,9 10,38 10,38 4,64 11,-69 0,24l-31 33c-18,4 -25,5 -43,6 -12,65 -11,38 -49,85 -32,40 -35,48 -70,78 -1,80 -25,59 14,98 -65,18 -65,8 -66,85 -62,14 -46,29 -163,84 -9,137 8,136 -135,136l3 84c-64,-11 -28,-14 -82,3 -1,241 -96,43 -122,228 -57,2 -59,-7 -97,16l55 45c2,2 7,7 11,10 -132,-10 -466,-18 -581,14z"/>
  <path class="fil5" d="M17869 8111c-19,37 53,31 -24,31l-185 111c-20,25 -2,11 -18,33 -39,52 -49,14 -81,69 -48,80 -44,35 -38,112 96,-23 56,-18 152,13 85,28 78,20 181,21 -10,22 -11,42 -37,63 -35,27 -18,14 -67,15 -12,96 -18,64 -73,96 -55,31 -5,17 -50,33 -25,8 -55,7 -81,8 -21,39 -39,62 -42,117 -114,12 -23,5 -99,50 -240,142 -55,57 -222,109 -17,5 -48,22 -59,30 -3,2 -7,5 -9,7 -61,43 -129,43 -235,62 -84,25 -264,166 -346,229 -31,57 -52,68 -71,137 48,-29 189,-58 287,-127l183 -116c43,-35 -26,-32 76,-35 -21,97 -152,120 -251,191 -40,29 -93,61 -146,92 -31,18 -46,22 -74,39 -47,29 -20,26 -77,42 -67,86 -147,141 -173,257l-170 70c-34,-7 -29,-17 -29,13 84,9 232,33 297,-31 40,-39 -38,-37 81,-39l-5 -48c75,0 76,-1 133,-18l0 -31c107,-44 254,-40 323,-144 -69,-12 -107,4 -143,51 -21,-29 -8,-19 -50,-32 -15,44 6,50 -118,47l8 -95c55,-39 70,-43 114,-99 38,10 36,15 85,17 -12,-37 3,-26 -29,-41 67,-20 44,-27 94,-69 51,-21 142,22 121,-69 81,-44 165,-35 212,-115 76,-6 59,-5 116,8 16,-30 26,-58 38,-96 95,6 83,-13 163,-17 29,-41 7,-47 67,-35l6 -77c114,-20 -6,-16 97,-50 87,-30 45,13 89,-65 4,89 -7,13 20,61l224 -2 43 -46c2,0 7,-2 9,-3l254 -111c23,-61 -30,-78 100,-63l144 -25c24,-9 25,-12 38,-20 -38,-29 49,-22 -54,-22 -44,0 -10,2 -31,17 6,-59 -12,-37 72,-49 47,-6 74,-5 123,-5 4,-4 7,-9 10,-12 2,-3 6,-9 8,-12 27,-31 76,-47 116,-59 22,40 5,30 56,47l0 -66c63,-17 14,-7 99,0l11 -68c40,2 34,5 38,9l8 15c1,-2 3,7 4,10 102,-11 71,-20 84,-50 58,-12 200,-104 232,-24 -69,8 -70,41 -104,96 -50,-40 -63,-2 -66,59 79,-11 108,-7 128,-80 73,7 24,64 136,29l-25 -101c36,14 54,46 78,70 34,-17 8,2 49,-27l67 -73 72 16c71,-8 35,-25 66,-18 108,22 203,-22 320,-18 34,-36 76,-52 125,-58l78 11c31,-62 9,-48 100,-50l0 -49c43,15 29,6 40,49 32,-34 26,46 26,-50 49,16 34,16 101,17l12 -37c3,2 7,5 10,6l78 31c10,-41 -11,-28 23,-43 54,-22 74,29 78,-73 53,27 61,-34 104,33l-47 -10c20,66 33,53 104,93 71,-41 62,-42 99,-90 23,-28 0,-26 61,-24 -25,34 -14,24 -15,80 52,-24 86,-26 112,-80 16,7 10,6 23,14 144,91 164,62 229,34l3 32c49,-17 35,-15 55,-50 90,5 47,-9 62,34 33,-27 9,19 38,-33 1,1 15,25 17,27l79 -53 238 -21c1,6 0,13 1,15 1,2 3,8 4,9l16 24c25,-19 -13,-8 31,-17 4,-1 39,0 44,1l208 14 -34 -101c60,37 84,2 143,-31 25,34 20,17 35,61 -3,2 -8,4 -10,5 -31,21 -35,18 -42,68 109,0 106,11 135,30 72,47 110,-24 160,-61l115 -68c19,37 -15,41 60,33 74,-7 15,11 51,-35 72,34 175,10 247,-23 56,-25 23,-7 54,-40l149 -20 67 -84c120,37 123,6 237,-3 26,-46 56,-70 68,-130 33,50 -16,23 67,33 29,-192 12,-434 14,-645l-607 119c-161,54 -54,-28 -160,39 -17,11 -20,8 -32,17l-27 26c-25,22 15,3 -30,19 0,0 1,71 70,-12 59,17 64,17 141,24l-111 5c24,59 -37,30 50,39 0,87 -14,87 0,144 -35,-14 -18,9 -27,-33 -57,22 -4,-24 -32,26l-5 22c-143,-44 -15,-112 -186,-115 -26,101 -76,39 -165,67 -47,15 -32,25 -108,11l-98 -30c-55,-20 -241,8 -326,22 -99,16 -73,15 -87,46l-27 0c-8,-17 5,-35 -89,-45l-756 62 -19 44c-81,-25 -179,37 -441,40l-15 22c-88,100 -296,-24 -454,62 -49,26 22,0 -48,24 -43,-29 -59,-56 -133,-58 -83,-3 -90,19 -167,23 -64,78 -74,60 -203,63 -6,-108 5,-52 35,-115l-135 -47c-32,-10 -29,4 -64,-22 71,-40 88,-6 160,-27 -335,-11 -82,75 -419,39 -91,-10 -66,28 -175,28 -9,17 -3,14 -16,44 -199,3 -607,169 -784,285l-128 71c-78,46 -160,138 -285,97z"/>
  <path class="fil6" d="M8769 5346l-3 -1117c-91,-28 -568,-12 -698,-12l1 2336c722,4 545,82 817,-267l437 -564c37,-51 69,-91 109,-142 22,-27 41,-54 56,-76 40,-55 24,-42 73,-68l3 1112 687 8c16,-759 7,-1579 1,-2339l-586 -2 -852 1096c-33,36 -10,14 -45,35z"/>
  <path class="fil6" d="M1648 5977l1 -384c203,-14 575,-58 589,180 15,272 -369,203 -590,204zm2 -890l1 -309c184,-5 515,-56 528,145 13,227 -342,172 -529,164zm-722 1469c322,0 640,-1 957,-1 326,0 578,13 818,-131 400,-239 436,-785 59,-1078 -54,-42 -101,-54 -155,-90 96,-112 296,-182 244,-550 -30,-215 -191,-365 -372,-429 -264,-93 -1199,-73 -1547,-59l-4 2338z"/>
  <path class="fil6" d="M14073 4847c724,-170 892,951 251,1104 -345,82 -588,-160 -637,-436 -58,-324 120,-606 386,-668zm-98 -665c-387,78 -584,206 -783,454 -187,234 -316,577 -247,971 115,655 696,1114 1481,1010 658,-87 1117,-689 1025,-1428 -76,-612 -738,-1155 -1476,-1007z"/>
  <path class="fil4" d="M19289 1948l-17 -1c-38,38 -87,69 -142,120 -37,34 -91,95 -130,103 -27,48 -22,44 -61,75 -19,15 -39,29 -50,38 -39,58 -28,39 -97,80 -40,23 -63,44 -100,67 -199,125 -415,259 -587,397 -183,145 -134,89 -261,238l-430 379c0,-45 7,-7 -31,-18 6,120 -35,100 -200,265 -64,64 -166,140 -193,224 61,18 146,31 211,53 79,27 111,66 197,77 213,-191 351,-138 717,-140 132,0 282,-9 401,19 146,36 154,108 195,167 3,4 12,17 15,21l22 21 4 -60c30,15 -1,4 43,13 5,-127 -16,-20 97,-121 2,-2 6,-5 9,-8 121,-102 13,-34 117,-101 49,-31 -4,6 35,-30l194 -155c41,-57 55,-127 133,-153l0 -83c105,0 18,9 144,-91 2,-2 6,-4 9,-7 16,-14 22,-44 102,-99 3,-2 8,-4 11,-6 53,-36 48,-35 38,-95 71,0 55,9 96,-53l100 -117c135,-160 1,-40 100,-150 30,-33 12,-11 36,-46 2,-3 4,-7 6,-10l75 -126c28,-49 91,-69 107,-196 44,18 15,21 43,-20 79,-115 47,-142 107,-140 -1,-3 -13,-51 -13,-66l31 -88c12,-27 -2,-6 25,-38 -89,-101 72,-90 0,-234 41,-61 38,-15 18,-68 41,9 29,7 69,16 -64,-56 -32,-43 -134,-51 -3,3 -7,7 -9,9 -32,27 -31,40 -124,43l-17 -90c-37,12 -20,29 -50,44 -29,14 -152,9 -198,35l-19 18c-46,19 -145,-22 -145,-22 -18,-4 -71,4 -125,2l-30 46 -134 2c-67,74 -122,91 -210,111z"/>
  <path class="fil6" d="M10796 6583c126,9 550,27 630,-8 33,-29 17,-178 17,-235l1 -751c88,49 756,978 799,995l868 2c-7,-118 -912,-1106 -973,-1280 46,-86 141,-191 202,-271 69,-92 139,-187 209,-275 45,-57 391,-500 405,-546l-844 -5c-65,70 -116,152 -164,216 -82,111 -455,615 -501,645l-3 -857 -659 -3 13 2373z"/>
  <path class="fil6" d="M4387 5056c47,51 164,465 170,519l-324 2 154 -521zm658 -171c-42,-32 -34,-35 -46,-96l-247 -581 -682 -4 -485 1170c-68,166 -462,1091 -469,1181 143,4 630,23 725,-10l174 -422 764 -5 120 326c12,32 27,85 52,102 87,29 615,12 752,9 -5,-130 -652,-1529 -658,-1670z"/>
  <path class="fil6" d="M15736 4355l-2 611c101,-13 363,-194 864,-162 134,8 178,27 243,102l2 96c-120,131 -416,71 -606,78 -18,76 -18,477 -2,555 193,12 523,-63 637,105 28,282 -368,255 -590,228 -357,-42 -468,-172 -622,-231l-4 679c100,24 260,182 741,209 1203,69 1472,-751 1051,-1186 -34,-35 -108,-68 -132,-116 203,-138 306,-306 245,-599 -44,-210 -227,-366 -402,-449 -388,-185 -1152,-118 -1423,80z"/>
  <path class="fil6" d="M6912 5206c-24,23 35,16 -40,20l-263 -2 -5 -419c89,-18 328,-41 378,28 206,48 159,386 -70,373zm-1023 -667l2 2013 715 4 7 -809c269,-35 643,67 960,-191 381,-310 367,-854 10,-1144 -280,-229 -591,-195 -961,-195l-732 2 -1 320z"/>
  <path class="fil7" d="M21255 5502c28,-105 -4,-33 65,-95 62,-54 20,-35 98,-67 -14,97 -47,141 -163,162zm-399 192c-165,15 -90,6 -182,-26 36,-105 96,-137 174,-199 234,-186 155,-204 277,-207 -43,103 -29,21 -78,124l-17 41c-5,29 49,71 -96,165 -47,31 -52,55 -78,102zm773 -605l-39 24c-3,2 -8,4 -11,6 -134,87 -105,6 -174,73 -3,2 -6,7 -8,9l-17 19c-3,2 -7,6 -10,8 -6,5 -41,28 -49,33 -61,41 -21,32 -147,38l19 -48c30,-73 24,-76 93,-127 68,-51 146,-110 248,-135 -12,51 7,34 -16,17l65 -22c6,-2 10,-5 15,-7 5,-3 31,-18 36,-20l-5 132zm491 -133l-116 40c-234,56 -230,98 -389,223 -62,49 -1,25 -93,50l57 -72c2,-3 5,-7 7,-9l216 -180c65,-41 113,-52 181,-85l136 -67c33,-14 -4,-7 49,-14 -10,52 -30,69 -48,114zm-624 -245c14,-125 168,-179 210,-55 -53,49 -125,63 -210,55zm-52 -39l-186 144c-37,31 -27,61 -75,90 -47,28 -116,51 -170,79 -63,33 -106,104 -182,63 -1,-1 -82,-9 16,-96l439 -290c50,-38 138,-96 201,-108 -36,71 -27,9 -43,118zm-89 -1351c1,39 24,35 -25,71 -51,38 -28,0 -33,-5l15 73c196,40 -60,97 406,52 86,-8 163,25 198,32l-64 34c-55,39 -11,16 -56,22l0 55c-80,69 58,-68 -22,29 -36,44 57,-25 -14,13 -67,36 -189,48 -266,59 -40,29 -92,103 -154,100l-134 153c-216,235 -151,185 -451,401l-301 267c-49,44 -245,226 -276,281 -53,131 -216,240 -237,418 110,-63 79,-104 209,-130 91,-141 7,-15 83,-94 15,-16 18,-35 26,-42l105 -38c2,0 7,0 9,-1 2,-1 6,-2 8,-3 48,-27 24,-70 153,-78 11,-50 6,-26 26,-60 2,-4 5,-8 7,-11 33,-55 97,-76 90,-171l20 112 151 -130c3,-2 8,-5 11,-8l-9 -24c13,20 53,1 58,-1 4,-2 27,-20 31,-22l196 -55c-15,-64 -10,-28 17,-86 62,13 15,1 64,19 8,-104 39,-87 82,-108 137,-66 113,-99 325,-100 23,0 24,3 48,-2l25 -13c-5,82 -29,-23 -35,114 -101,-3 -123,10 -185,41 -23,26 -51,33 -82,61 -47,42 -34,44 -94,66 -65,64 -99,73 -171,122 -49,34 -143,84 -180,122 -57,82 -174,146 -262,199 -320,194 -273,222 -383,318 -36,33 -36,44 -53,63l-131 104c-67,47 -136,71 -162,207 6,-2 14,-11 17,-7l55 -25c38,-13 25,-8 74,-8 24,-74 34,-20 58,-109 16,83 -15,41 65,48 -9,-68 -1,-47 -36,-93 49,-29 14,10 46,-39 150,36 118,-1 177,-28 51,-25 25,15 164,-89 45,-33 48,-74 160,-156 3,-3 7,-5 10,-7 75,-59 216,-180 311,-172 -20,-82 6,-4 179,-105 91,-53 97,-23 177,-62l25 -14c-21,-19 -19,-5 -28,-33 7,-4 46,-26 54,-32 29,-25 2,-15 42,-40 113,-71 195,-50 267,-66 63,-14 75,-19 153,-24 -24,143 -49,109 -84,126 -3,1 -8,3 -11,5l-31 24c-24,-16 -26,-27 -79,-16 -31,6 -51,28 -71,43 -48,35 -104,67 -153,91l-126 64c-18,41 -1,21 -39,49l-305 188c-39,33 -73,77 -126,122l-341 321 -208 237c-48,60 -37,17 -47,106l55 -29c-87,15 4,-5 -39,41 55,20 16,-22 48,50 20,44 -13,15 33,64 -5,5 -17,33 -20,39 53,-21 38,-22 81,-54 18,-41 41,-42 71,-91l-36 -30c-25,73 -34,74 -108,66 -14,-97 86,-163 162,-192l52 61 -20 57c44,-24 59,-28 94,-61 40,-35 44,-55 86,-76 13,-17 6,-16 26,-30 35,-25 -5,0 30,-14l65 -72 233 -184c-11,102 -24,117 -64,152l45 -10c8,60 8,30 4,71l54 -11c63,-103 382,-267 456,-326 45,-35 61,-66 104,-98l347 -243 651 -543c82,-73 195,-224 314,-240 21,-42 10,-37 12,-45 27,-91 32,2 41,-89 -80,4 -125,49 -157,119 -38,-24 -74,-24 -94,-23 -29,0 -16,56 -32,12 -2,-4 -8,4 -12,6 -23,-53 -7,-14 -22,-42l-11 -21c-76,27 -25,-12 -105,9 -72,19 -38,28 -131,20 15,-36 15,-15 2,-51 110,-4 111,15 169,-36 -84,-29 -32,15 -93,-37l174 -46 34 69c50,-35 55,-6 107,-42 93,-64 42,0 143,-47l0 -31c63,11 91,18 181,13l16 -79c49,1 35,6 77,-9 4,-2 15,-10 19,-12l46 -8c2,-1 6,-4 9,-5 3,-1 7,-4 10,-5 33,-12 14,-9 57,-10l-34 -68c31,2 132,14 143,-25 2,-6 6,-7 10,-11 44,6 44,1 77,2 56,0 7,4 29,5 26,2 38,-13 87,-15l9 101c42,-15 29,14 33,-29 11,66 7,48 34,82l-1 -671 -58 -12 1 138c-107,0 -144,-23 -228,-32 -27,77 -168,46 -384,48 -4,12 -13,48 -14,52 -23,62 -136,125 -136,125l-258 4 -5 78c-82,3 -49,16 -120,21 -74,5 -75,-14 -120,-20 -54,-6 -72,14 -114,13 -57,0 -18,-15 -100,-11l-63 48c-33,9 -8,1 -42,8 -29,6 -26,2 -52,15l-177 25c-25,42 -16,82 -26,53 -1,-2 -5,7 -7,11l-131 3 -49 117c41,32 44,21 50,93 190,5 138,28 148,54l-66 18c-41,6 -30,4 -70,15 -188,48 -95,-7 -225,-11 -62,-1 -72,-51 -181,22 -28,19 -43,48 -70,62 -38,21 -56,13 -95,39 -46,30 -22,33 -91,43l-2 64c-187,24 -118,142 -339,134 -1,-109 28,-148 112,-194l71 -51c8,-9 15,-14 23,-20 72,-55 121,-109 172,-111 4,-124 30,-80 79,-123 19,-16 14,-26 49,-52 4,-3 17,-10 21,-13l39 -27c40,-32 19,-16 33,-46 47,-103 98,-31 155,-117l266 -17c10,-114 103,-98 68,-195l98 -53c76,-46 48,-19 68,-97 -54,23 -75,31 -119,57 20,-58 45,-67 71,-108 -90,50 -289,26 -414,26l2 -107c-18,87 -24,-17 -33,91 -44,-23 -23,25 -49,-39 -6,33 2,24 -14,52 -19,33 -5,7 -31,28l-5 -114c-31,30 -48,19 -121,10z"/>
  <path class="fil6" d="M18488 5823c-49,100 -131,157 -256,169 -187,19 -251,-43 -386,-56 -1,118 -48,572 39,618 258,137 678,82 904,-57 247,-153 340,-414 471,-696 119,-252 240,-537 363,-789 50,-104 350,-738 355,-800l-745 -2c-47,65 -303,739 -372,890 -64,-71 -322,-722 -415,-890l-789 0c34,122 811,1510 831,1613z"/>
  <path class="fil8" d="M17383 3426c38,11 31,-27 31,18l430 -379c127,-149 78,-93 261,-238 172,-138 388,-272 587,-397 37,-23 60,-44 100,-67 69,-41 58,-22 97,-80l-60 6c-2,-122 10,-94 52,-183 44,-96 53,-33 85,-153l80 -3c2,-38 -41,-70 120,-69 36,-39 72,-69 115,-112l175 -111c35,-22 9,-13 37,-28 38,-20 207,-101 262,-101 69,8 96,-1 162,-6 84,-6 91,11 154,19l103 33 -10 -32c-187,-46 -181,-98 -418,-55 -164,29 -166,37 -272,107 -35,23 -42,23 -73,39 -123,65 -190,182 -311,162 -253,-42 -229,107 -343,123 -1,145 -47,42 -60,171 -53,3 -78,11 -115,18 37,23 41,42 42,112l-115 84c0,111 0,76 -25,103l-13 -120c-150,-98 -19,-100 -137,-134l-8 69c-85,1 -46,-14 -80,28 -15,-97 -27,-85 4,-187 98,-316 47,17 132,-153l128 -222c86,-154 164,-229 183,-330 -5,3 -10,7 -13,10l-29 29c-23,22 8,1 -23,17 8,-25 5,-20 18,-40l15 -19c68,-98 66,-53 94,-122l13 -37c21,-46 19,27 26,-110 15,-10 4,-7 33,-16 4,-1 22,-2 31,-2 -15,-36 -5,-67 -5,-98 0,-15 -2,-64 -2,-81 0,-149 36,7 30,-166l104 -10 -33 -40c-1,-1 -3,-6 -4,-7l-42 -27c-34,-18 17,-4 -47,-24 -24,-7 -217,-25 -217,-7l-781 -1c-69,113 -177,535 -221,712 -57,225 -141,493 -225,711 -93,241 -178,427 -218,721 -38,280 -50,487 196,675z"/>
  <path class="fil9" d="M23011 4343c-119,16 -232,167 -314,240l-651 543c37,43 -10,-9 41,78l31 87 100 9c7,27 6,29 29,40l0 87c111,19 98,48 101,79 -31,17 -25,6 -55,24 -10,6 -31,26 -47,38l0 116c-7,-27 -1,-22 -4,-44 -15,-117 7,-32 -29,-72l2 176c206,-4 142,-38 185,13 -19,41 3,7 -51,50l33 87 100 0 1 96c132,15 136,61 145,75 2,3 5,8 7,11l108 5c6,85 15,143 8,195 180,-6 117,-50 165,-6 16,-59 5,-43 73,-60 103,-26 103,-52 182,-91 40,-21 59,-25 100,-29 44,-82 81,-72 126,-139 28,-41 15,-48 49,-85l97 -103c14,-19 9,-19 24,-42 23,-35 41,-43 67,-67 53,-46 55,-130 89,-194l47 -3 1 -451 -5 -462 5 -143 -368 -81c-70,-20 -118,-19 -201,-17 -99,3 -107,20 -191,40z"/>
  <path class="fil10" d="M17821 7624c-33,45 -76,89 -119,129l-8 46c6,-1 37,-9 40,-9 1,0 6,1 8,1l50 -4c95,-54 71,-12 124,-8 96,6 73,-60 165,13l-41 42c-2,1 -7,5 -10,8l26 26c12,12 11,10 19,19 -10,8 -22,15 -37,27 -40,31 -17,5 -43,47 78,-4 65,-34 116,-3 -65,39 -209,103 -242,153 125,41 207,-51 285,-97l128 -71c177,-116 585,-282 784,-285 13,-30 7,-27 16,-44 109,0 84,-38 175,-28 337,36 84,-50 419,-39 -72,21 -89,-13 -160,27 35,26 32,12 64,22l135 47c-30,63 -41,7 -35,115 129,-3 139,15 203,-63 77,-4 84,-26 167,-23 74,2 90,29 133,58 70,-24 -1,2 48,-24 158,-86 366,38 454,-62l15 -22c262,-3 360,-65 441,-40l19 -44 756 -62c94,10 81,28 89,45l27 0c14,-31 -12,-30 87,-46 85,-14 271,-42 326,-22l98 30c76,14 61,4 108,-11 89,-28 139,34 165,-67 171,3 43,71 186,115l5 -22c28,-50 -25,-4 32,-26 9,42 -8,19 27,33 -14,-57 0,-57 0,-144 -87,-9 -26,20 -50,-39l111 -5c-77,-7 -82,-7 -141,-24 -69,83 -70,12 -70,12 45,-16 5,3 30,-19l27 -26c12,-9 15,-6 32,-17 106,-67 -1,15 160,-39l607 -119 -1 -31 -178 15 -131 17c-19,16 -13,19 -50,31 -6,2 -44,6 -55,8 -55,9 -44,13 -102,7 0,77 -641,32 -703,19 -41,68 19,17 -55,57 10,48 20,7 43,71 -57,2 -125,-8 -176,10 -82,31 -45,25 -179,23 -118,-2 -256,22 -367,30 -81,5 -88,-3 -161,20l-822 133c-144,11 -204,-81 -478,-30 -46,8 -115,30 -161,38 -212,37 -222,-12 -263,-93 -169,-9 -185,46 -400,47l-100 3c-57,9 -14,2 -35,13l-1 24c8,23 -1,4 2,0 -115,4 -166,20 -259,50l-241 58c-41,-45 2,-25 -53,-44l36 -36c-4,-3 -10,-10 -11,-7 -2,5 -12,-3 -20,-12 -11,-13 -32,2 -3,-29 26,-29 53,-18 101,-20l4 -77 130 -5c59,-65 138,-101 222,-123 126,-32 46,-17 110,-56 35,-21 -19,27 111,-44 107,-58 108,-10 261,-90 88,-45 166,-41 230,-130l137 -5c-4,-3 -9,-13 -11,-9l-70 -53c12,-1 54,-1 61,-2 61,-12 28,-6 50,-23 -146,-72 -446,52 -598,64 -16,-50 -16,-32 -22,-97 -84,-64 -14,-5 -61,-103 -84,5 -38,-14 -77,30 -5,-24 -13,-18 -27,-32l-61 8 -182 24c-4,1 -8,3 -11,4 -3,1 -8,5 -10,6l-19 17c-10,-17 -39,17 -1,-52l-37 -8c-36,50 -127,79 -176,106l-507 313c-180,122 -278,255 -289,263 -213,148 -174,160 -285,241z"/>
  <path class="fil11" d="M11259 8745c116,-15 411,-264 668,-264 38,-98 30,-47 112,-94l150 -82c239,-125 624,-401 886,-517 44,-20 100,-43 152,-68 190,-88 72,-56 233,-230 36,-39 74,-71 120,-115 70,-68 178,-134 253,-212 47,-47 201,-181 231,-230 74,-6 225,22 274,-18 -85,-17 -191,-10 -277,1 -88,12 -363,-69 -460,-101 -75,-24 -135,-65 -207,-88 -44,38 -34,40 -85,81 -136,108 -493,79 -665,86 -291,11 -174,-12 -200,45l-98 4c-15,44 -10,42 -46,71 -29,23 -31,8 -53,48l-31 67c-95,145 -23,182 -84,233 -31,26 -73,0 -86,44 52,20 19,31 100,33 -56,98 -47,41 -55,21 -10,15 -22,33 -31,48 -4,0 -48,2 -49,3 -55,8 -28,27 -32,41 0,1 -3,6 -3,7l34 16c-25,54 -14,74 -20,147 -33,-13 -30,35 -30,-47l-2 200 -49 51c55,36 28,-14 36,66l-35 16c-27,15 -13,6 -30,20 -40,32 10,25 -71,33l21 49 -70 -1c41,61 18,7 34,82 17,80 4,54 51,66 -3,3 -8,6 -10,8 -59,68 -17,65 10,127 -47,38 -25,40 -54,64 -36,30 -400,109 -532,289z"/>
  <path class="fil12" d="M21650 862l59 -19c-21,87 -15,37 -10,126 -15,26 25,27 -34,17 -22,51 -13,31 -64,57 -22,21 -6,-6 -6,42l-46 50c-14,11 -29,22 -41,34 31,47 18,15 30,73 -21,-14 -25,-5 -46,-19l34 51 1 53c48,35 47,-69 33,57 -5,48 -179,143 -237,140 -14,48 -1,12 -25,54 -3,6 -46,94 -62,56 -4,-9 -9,-16 -15,-23 -14,34 -11,49 -60,60 -2,52 -2,36 -98,95 -38,23 10,5 -55,26 -26,33 -38,74 -67,102l-53 85c-48,169 -681,958 -898,1232l-551 696c115,-32 449,-24 581,-14 -4,-3 -9,-8 -11,-10l-55 -45c38,-23 40,-14 97,-16 26,-185 121,13 122,-228 54,-17 18,-14 82,-3l-3 -84c143,0 126,1 135,-136 117,-55 101,-70 163,-84 1,-77 1,-67 66,-85 -39,-39 -15,-18 -14,-98 35,-30 38,-38 70,-78 38,-47 37,-20 49,-85 18,-1 25,-2 43,-6l31 -33c11,-93 4,40 0,-24 0,0 -8,-29 -10,-38 102,1 112,0 120,-97l66 -17 2 -85c41,1 35,1 62,16 8,-100 22,-36 63,-107 49,-84 5,-104 53,-160 28,33 13,19 47,46 41,-48 27,-35 40,-126l81 -21c-45,-47 -24,-41 -25,-67 -1,-24 -7,-60 -6,-102 60,-43 64,-27 64,-133 86,12 13,11 82,32 15,-54 14,-28 19,-99 12,-177 53,-76 117,-200 168,-7 120,-25 129,-48 -50,-15 -24,4 -48,-37 22,-17 20,-12 42,-39 20,-25 12,-11 25,-43 55,-142 148,-122 146,-300l20 -18c41,-42 21,-34 47,-85 6,-12 4,2 18,-31 -15,-25 -21,-40 -34,-69l50 -14c6,-52 16,-79 36,-114 84,-7 95,24 131,-19l-64 -65c-104,2 -93,16 -133,-47l307 -1c-24,-16 -11,-16 -56,-23l-51 -9 17 -41c85,-1 51,-32 166,-41 68,-5 111,3 185,-7 -22,25 34,15 -23,14 -93,-1 1,5 -43,-20 -1,-16 -1,-29 6,-46 -47,3 -79,0 -125,-1 -19,-1 -49,0 -66,-2 -62,-7 -14,-2 -37,-13l-300 -5 -30 23c-3,2 -7,5 -10,7l-170 163c-49,45 -29,13 -55,73z"/>
  <path class="fil13" d="M21295 3151c69,44 25,82 60,170 73,9 90,20 121,-10l5 114c26,-21 12,5 31,-28 16,-28 8,-19 14,-52 26,64 5,16 49,39 9,-108 15,-4 33,-91l-2 107c125,0 324,24 414,-26 -26,41 -51,50 -71,108 44,-26 65,-34 119,-57 -20,78 8,51 -68,97l-98 53c35,97 -58,81 -68,195l-266 17c-57,86 -108,14 -155,117 -14,30 7,14 -33,46l-39 27c-4,3 -17,10 -21,13 -35,26 -30,36 -49,52 -49,43 -75,-1 -79,123 -51,2 -100,56 -172,111 -8,6 -15,11 -23,20l-71 51c-84,46 -113,85 -112,194 221,8 152,-110 339,-134l2 -64c69,-10 45,-13 91,-43 39,-26 57,-18 95,-39 27,-14 42,-43 70,-62 109,-73 119,-23 181,-22 130,4 37,59 225,11 40,-11 29,-9 70,-15l66 -18c-10,-26 42,-49 -148,-54 -6,-72 -9,-61 -50,-93l49 -117 131 -3c2,-4 6,-13 7,-11 10,29 1,-11 26,-53l177 -25c26,-13 23,-9 52,-15 34,-7 9,1 42,-8l63 -48c82,-4 43,11 100,11 42,1 60,-19 114,-13 45,6 46,25 120,20 71,-5 38,-18 120,-21l5 -78 258 -4c0,0 113,-63 136,-125 1,-4 10,-40 14,-52 216,-2 357,29 384,-48 84,9 121,32 228,32l-1 -138 58 12 -9 -37 -56 -4 -3 -100c-161,-25 -290,-86 -484,-88 -180,-2 -350,-18 -529,-24 -38,-11 -212,-59 -238,-58 -172,-5 -167,-33 -342,34 -77,30 -531,190 -592,188 -181,-6 -218,-112 -251,-126 -97,-10 -19,-12 -39,42z"/>
  <path class="fil14" d="M21085 5804l-20 39c35,23 43,-31 23,42 9,-7 35,-50 58,9l28 63c-16,34 -29,49 -35,95 94,41 67,-87 138,-38 68,49 14,51 43,77 24,21 29,1 72,23 54,27 28,55 91,24 11,-5 -3,-3 37,-17 16,35 12,17 16,67 25,-12 8,-16 39,-6l43 24 -15 101c48,54 45,26 78,96l24 -12c14,-3 9,-19 83,-10 83,11 5,94 101,155l22 12c3,1 16,12 19,15 16,13 24,26 38,39l134 3c61,-20 -30,-40 146,-30 -64,42 -326,97 -427,101 -103,14 -202,53 -320,46 -107,-6 -227,-71 -313,-88 41,53 267,114 347,122 87,9 69,19 133,31 32,-50 -19,-43 123,-73 59,-13 105,-21 174,-29l431 -123c-92,3 -27,5 -51,-21 4,-4 9,-14 11,-10l357 -133c132,-41 242,-84 353,-164 60,-43 166,-100 205,-144 -41,4 -60,8 -100,29 -79,39 -79,65 -182,91 -68,17 -57,1 -73,60 -48,-44 15,0 -165,6 7,-52 -2,-110 -8,-195l-108 -5c-2,-3 -5,-8 -7,-11 -9,-14 -13,-60 -145,-75l-1 -96 -100 0 -33 -87c54,-43 32,-9 51,-50 -43,-51 21,-17 -185,-13l-2 -176c36,40 14,-45 29,72 3,22 -3,17 4,44l0 -116c16,-12 37,-32 47,-38 30,-18 24,-7 55,-24 -3,-31 10,-60 -101,-79l0 -87c-23,-11 -22,-13 -29,-40l-100 -9 -31 -87c-51,-87 -4,-35 -41,-78l-347 243c-43,32 -59,63 -104,98 -74,59 -393,223 -456,326l-54 11z"/>
  <path class="fil7" d="M20334 1506l-109 36 -167 -114c-2,-6 -8,-5 -12,-8 9,-11 0,-34 70,-51 43,-11 87,-9 132,-12 2,9 13,47 16,52 1,3 4,7 6,10l64 87zm-1215 -374c-5,7 -6,49 -54,21 -69,80 -51,0 -133,111 -178,12 -193,68 -249,94 -19,101 -97,176 -183,330l-128 222c-85,170 -34,-163 -132,153 -31,102 -19,90 -4,187 34,-42 -5,-27 80,-28l8 -69c118,34 -13,36 137,134l13 120c25,-27 25,8 25,-103l115 -84c-1,-70 -5,-89 -42,-112 37,-7 62,-15 115,-18 13,-129 59,-26 60,-171 114,-16 90,-165 343,-123 121,20 188,-97 311,-162 31,-16 38,-16 73,-39 106,-70 108,-78 272,-107 237,-43 231,9 418,55l10 32c13,6 152,55 168,58 87,9 75,30 159,17 -32,-65 -8,-48 -21,-94 -13,-50 -21,-14 -46,-87 -20,-32 -132,-96 -177,-122 -35,-19 -58,-32 -98,-57l-81 -54c17,-8 -35,-47 79,9 15,7 43,20 67,33 88,47 355,193 424,187 -57,-72 -65,-25 -199,-112 -132,-85 -107,-48 -153,-77 -38,-24 -24,-23 -38,-40l45 -40c0,-3 5,-1 7,-2 -88,-5 -19,37 -93,-22 -41,35 -33,42 -134,19 -217,-49 -328,18 -324,-131 -56,14 16,24 -52,6 -88,-22 -8,2 -46,-30 15,-47 31,-58 36,-121 33,-2 69,-9 98,-11 33,-2 31,1 65,17 204,98 36,73 307,79 44,57 7,32 51,50l-18 30c69,11 135,4 184,-18l16 33c127,2 92,59 156,31l-15 -34 -94 -51c-29,-16 -48,-24 -85,-34l-152 -45c-39,-22 -6,-2 -34,-32 150,-8 130,7 235,39 46,14 76,7 121,15 35,6 73,22 115,33 -12,-39 -10,-26 -28,-49 -71,-87 0,60 -21,-21 -2,-7 -6,-7 -9,-11l44 -65c-106,-7 -79,33 -116,41 -132,-8 -203,-38 -351,-40 -191,-3 -69,20 -252,-18l-61 -18c60,-44 62,11 122,-41l-122 -10c-14,-50 -23,-50 -5,-106l-28 7c-54,17 -23,16 -74,49 -35,24 -53,24 -86,45 -59,36 -88,71 -159,102l-38 33c-1,1 -30,18 -32,19 -35,21 -39,23 -81,34 9,-37 99,-298 79,-343l-18 -25 -26 2c-41,342 -54,182 -91,311 -15,49 -35,204 -175,219z"/>
  <path class="fil15" d="M17086 8393c-43,38 -113,84 -142,160 -37,99 -7,58 1,75 -65,50 -60,105 -94,181 43,68 70,133 -23,231 -25,26 -48,34 -77,51 -76,61 -116,82 -212,114l0 -19 4 -58c-54,-23 28,8 -41,-62 -13,30 -23,15 -12,64 -14,-21 -7,-18 -19,-40 -12,-25 -13,-23 -24,-40l-93 2 13 -63c-41,13 -19,9 -76,-2 -23,39 -19,19 -33,66 -38,-29 -14,-12 -95,6l-10 -35c0,-2 -3,-5 -3,-9 0,-4 -2,-6 -3,-9 -59,-16 -44,-18 -119,-15 -27,83 -22,52 13,91 18,21 4,-8 18,26 -36,0 -55,1 -91,-5 -32,-7 -37,-8 -88,-14 -51,-7 -42,-4 -63,-32 -3,-4 -10,-19 -13,-22l-20 -30c-164,40 10,106 -235,106 -31,140 27,97 78,132 -20,163 -82,26 -93,174 -47,6 -63,9 -105,42l-83 184c84,-4 68,2 196,-75 8,-5 54,-83 138,-49 43,18 9,3 33,41 -33,89 3,27 -54,42l-71 53 -15 88c20,23 39,55 57,73 58,-3 86,-18 167,-14 82,4 123,40 171,-13l179 -162 70 35c74,-69 68,-20 113,-75l0 19 43 -4 39 -64 51 5c12,-31 -12,-16 47,-63 -136,13 -33,11 -75,-20 23,-95 23,-112 101,-140 82,-63 262,-204 346,-229 17,-35 108,-113 177,-120 9,-47 8,-49 43,-75 52,-39 13,-26 71,-10 -22,-59 -36,13 60,-91 101,-111 4,41 107,-160 -71,2 -2,25 -83,-1l-1 -21c1,-2 3,-8 3,-10 1,-4 8,-15 9,-19 8,-30 5,-16 4,-47 -49,6 -104,32 -149,47 -7,-99 -32,-68 119,-197 92,-78 114,-54 194,-108l200 -101c87,-29 136,-79 233,-67 33,-50 177,-114 242,-153 -51,-31 -38,-1 -116,3 26,-42 3,-16 43,-47 15,-12 27,-19 37,-27 -8,-9 -7,-7 -19,-19l-26 -26c3,-3 8,-7 10,-8l41 -42c-92,-73 -69,-7 -165,-13 -53,-4 -29,-46 -124,8l-50 4c-2,0 -7,-1 -8,-1 -3,0 -34,8 -40,9l8 -46c-71,40 -167,138 -171,222 -87,20 -60,36 -128,88 -51,40 -52,73 -110,107 -46,27 -29,-1 -69,49 -16,21 -25,42 -38,62 -30,45 -68,73 -100,112z"/>
  <path class="fil16" d="M14073 4847c-266,62 -444,344 -386,668 49,276 292,518 637,436 641,-153 473,-1274 -251,-1104z"/>
  <path class="fil17" d="M19434 6652l-11 -7c-12,21 20,17 -39,20 -4,4 -19,19 -22,22 -3,3 -9,14 -11,11 -3,-3 -8,8 -13,12l61 -8c14,14 22,8 27,32 39,-44 -7,-25 77,-30 47,98 -23,39 61,103 6,65 6,47 22,97 152,-12 452,-136 598,-64 -22,17 11,11 -50,23 -7,1 -49,1 -61,2l70 53c2,-4 7,6 11,9l-137 5c-64,89 -142,85 -230,130 -153,80 -154,32 -261,90 -130,71 -76,23 -111,44 -64,39 16,24 -110,56 -84,22 -163,58 -222,123l-130 5 -4 77c-48,2 -75,-9 -101,20 -29,31 -8,16 3,29 8,9 18,17 20,12 1,-3 7,4 11,7l-36 36c55,19 12,-1 53,44l241 -58c93,-30 144,-46 259,-50 -3,4 6,23 -2,0l1 -24c21,-11 -22,-4 35,-13l100 -3c215,-1 231,-56 400,-47 41,81 51,130 263,93 46,-8 115,-30 161,-38 274,-51 334,41 478,30l822 -133c73,-23 80,-15 161,-20 111,-8 249,-32 367,-30 134,2 97,8 179,-23 51,-18 119,-8 176,-10 -23,-64 -33,-23 -43,-71 74,-40 14,11 55,-57 62,13 703,58 703,-19 -160,1 -303,14 -470,9 -78,-3 -432,-78 -414,35l14 32c-216,31 -350,8 -527,65l-540 62c-306,12 -154,45 -351,48 -62,-65 -263,-121 -333,-93 -61,55 -82,28 -147,62 -17,-46 -14,-19 -18,-76 63,-31 146,-36 165,-90 21,-58 -10,-65 -11,-67 -78,-74 -241,88 -469,-24 62,-32 101,-48 163,-38 17,-85 62,-79 92,-166l-70 -88c-17,-32 0,18 -13,-37 -186,6 -407,21 -626,24l-59 -90c-2,-4 -4,-8 -6,-11l-28 -56c-1,-7 -5,-8 -8,-12l-165 31z"/>
  <path class="fil18" d="M19434 6652l165 -31c3,4 7,5 8,12l28 56c2,3 4,7 6,11l59 90c219,-3 440,-18 626,-24 13,55 -4,5 13,37l70 88c-30,87 -75,81 -92,166 -62,-10 -101,6 -163,38 228,112 391,-50 469,24 1,2 32,9 11,67 -19,54 -102,59 -165,90 4,57 1,30 18,76 65,-34 86,-7 147,-62 70,-28 271,28 333,93 197,-3 45,-36 351,-48l540 -62c177,-57 311,-34 527,-65l-14 -32c-18,-113 336,-38 414,-35 167,5 310,-8 470,-9 58,6 47,2 102,-7 11,-2 49,-6 55,-8 37,-12 31,-15 50,-31 -109,-4 -213,19 -326,25 -106,6 -211,3 -317,3 -176,0 -446,-64 -570,-58 -74,-23 -116,-30 -181,-4l-141 14c0,-9 2,-13 3,-20 -110,5 -134,-15 -252,-5 -41,4 -143,-3 -194,23 -35,-12 -1,2 -28,-14 -79,-48 -165,6 -240,11 -65,4 -65,-11 -128,-9 -3,1 -37,2 -42,3 -54,2 -1,-7 -31,5 13,-4 -2,35 18,-12 50,-114 -120,-102 -150,-102 -59,-1 -120,-28 -252,-38l-4 -93 -63 -25c-93,-37 -70,-16 -74,-66l-118 -23c-36,-57 -6,-73 -104,-80 -131,-10 -138,20 -158,26 -30,8 -57,2 -90,12 -49,14 -62,50 -217,44 6,-18 13,-38 26,-49l45 -23c2,-6 9,-5 12,-7 7,-119 3,-67 19,-99l18 -25c-105,-2 -172,31 -267,63 -45,15 -68,25 -109,37 -76,22 -61,3 -113,52z"/>
  <path class="fil19" d="M11377 10296l-43 14c-4,4 -27,25 -30,29 -26,36 -11,8 -19,46 -26,7 -28,5 -42,16 -75,-254 -49,-48 85,-288 4,-8 181,-234 178,-20 -1,71 -2,112 57,163 74,65 28,-8 63,88 -102,-34 -128,-53 -249,-48zm-275 -361l67 2 -13 119c-68,-28 -26,34 -58,-44 -1,-2 3,-70 4,-77zm57 -137l-6 61 -44 -9 -7 85c-35,57 -27,160 6,227l20 37c1,-3 3,10 5,15l38 50 10 63 -11 -10c75,0 -18,172 102,127l13 -59c65,-16 13,-14 96,-38 53,-60 196,14 238,37 171,49 128,135 609,74 145,-18 122,-111 199,-151 75,-37 161,-33 231,-64 79,-34 -1,1 36,-18l-83 2c11,-74 -14,-52 53,-99 74,-52 69,-67 135,-97 50,-22 40,-5 78,-50 -254,44 -111,91 -258,103 -15,48 -14,34 -24,78 -83,7 -41,-6 -89,29 -20,14 -42,31 -59,39 -74,36 -87,31 -169,48 -60,12 -64,65 -160,41 -49,-12 -32,-17 -92,-23 -13,-1 -37,-1 -48,-3 -33,-6 -20,-6 -37,-16 30,-21 14,-19 81,-21 15,-80 108,-77 45,-234 -30,-73 -111,-124 -198,-120 122,-69 85,1 100,-66l-152 31c23,-122 84,-100 118,-153l52 -44c32,0 19,5 12,-37 -127,59 -64,59 -295,46l14 -62 -77 -24c32,-159 124,-79 129,-241 -89,29 -65,57 -230,188l-95 89c-97,95 -41,14 -122,78 -63,49 -55,84 -130,118 -19,-47 -8,-3 -34,-27z"/>
  <path class="fil20" d="M19853 6260c-220,84 -105,126 -295,139l-20 79c-153,13 -130,33 -173,29l112 0 -67 79c-35,26 -36,18 -53,55l66 4 11 7c52,-49 37,-30 113,-52 41,-12 64,-22 109,-37 95,-32 162,-65 267,-63l-18 25c-16,32 -12,-20 -19,99 -3,2 -10,1 -12,7l-45 23c-13,11 -20,31 -26,49 155,6 168,-30 217,-44 33,-10 60,-4 90,-12 20,-6 27,-36 158,-26 98,7 68,23 104,80l118 23c63,13 93,17 177,17 53,79 109,67 250,67 14,33 6,-2 17,50 230,0 158,54 317,50 170,-3 16,-54 185,27l516 23 -117 -116 86 -1c0,-1 22,-42 27,-50 -43,-39 -41,-6 -76,-79l93 -27c-69,8 -115,16 -174,29 -142,30 -91,23 -123,73 -64,-12 -46,-22 -133,-31 -80,-8 -306,-69 -347,-122 -77,-7 -108,-45 -180,-67 -84,-25 -121,-10 -168,-78 -46,2 -123,-25 -172,-52 -57,-31 -103,-70 -136,-86 -62,-39 -31,-13 -60,-65 -55,-98 2,-42 -85,-61l57 225c-25,-8 -79,-13 -113,-20l-54 -15c-127,-56 -169,-18 -361,-23 41,-97 71,-37 100,-119l-163 -13z"/>
  <path class="fil10" d="M23513 6040c15,104 -18,3 -164,147l-228 140c-71,37 -194,100 -219,163l49 34 -94 89c-2,2 -5,7 -7,9l35 69c4,-4 15,-14 17,-16 16,-10 -7,-1 31,-16l1 82c-29,24 -37,20 -47,65l99 -4c22,27 8,42 42,63l196 56c40,17 8,15 48,21 79,12 44,-4 56,-9 5,3 56,55 192,46 78,-5 175,-17 253,-27l-11 -97c-48,-14 -9,-18 -93,3 -33,-49 -51,-64 -47,-151 92,-80 84,-57 110,-135 55,-171 48,-535 42,-721 -67,22 -92,57 -145,97l-116 92z"/>
  <path class="fil9" d="M22757 3071c179,6 349,22 529,24 194,2 323,63 484,88l0 -143c-33,-23 -44,-56 -76,-128 -28,-64 -31,-91 -29,-175 -41,-33 -38,-38 -49,-100 -30,-15 -5,3 -48,-14 0,-280 -46,-159 -52,-316 -106,-67 2,-58 -99,-68 -1,-90 -2,-113 -96,-112l16 78c-100,14 -40,50 -177,93 33,78 -5,60 -10,188 -75,24 -14,31 -109,41 -10,121 -33,65 -72,147 -27,55 17,20 -48,63 -104,69 -195,256 -164,334z"/>
  <path class="fil21" d="M22519 3013c26,-1 200,47 238,58 -31,-78 60,-265 164,-334 65,-43 21,-8 48,-63 39,-82 62,-26 72,-147 95,-10 34,-17 109,-41 5,-128 43,-110 10,-188 137,-43 77,-79 177,-93l-16 -78c94,-1 95,22 96,112 101,10 -7,1 99,68 6,157 52,36 52,316 43,17 18,-1 48,14 11,62 8,67 49,100 -2,84 1,111 29,175 32,72 43,105 76,128l5 -1025c-17,8 -37,12 -55,17 -26,-39 -16,-25 -13,-83 -59,-5 -27,9 -49,-17 -3,-3 -9,-17 -11,-22 -79,-138 -52,-129 -228,-127 -87,1 -73,-10 -116,37l-102 -2c-29,156 -37,21 -49,133l-66 -18c-3,91 -13,85 25,114 20,16 16,9 32,23 -60,25 -63,53 -67,158 -24,18 -34,21 -60,37 -22,14 -4,0 -30,21 -57,44 -40,52 -54,213 -63,10 -72,9 -79,73l-48 -49c-4,80 -1,91 -68,99 8,37 18,53 32,82 -65,61 -17,69 -50,119 -41,61 -41,-20 -97,76l-102 8c-17,21 -6,37 -90,44 30,35 25,19 54,36l35 26z"/>
  <path class="fil12" d="M20272 4172c32,148 -113,393 -172,520 -70,149 -172,335 -223,490 46,-41 36,-33 63,-83 45,-86 145,-202 211,-275l159 -193c35,-34 20,4 57,-58l92 -93c30,-24 12,-3 37,-28 5,-5 21,-27 27,-38 87,-140 51,-46 167,-215 3,-4 5,-8 8,-12 18,-24 55,-79 42,-33l3 -88c48,-23 24,-5 91,-125 11,-20 7,-24 17,-49 47,-107 67,-2 81,-206 49,-27 102,-49 144,-89 26,-24 36,-33 64,-55 59,-48 -10,-23 78,-34 38,31 25,-40 33,47l190 29 81 -6 210 -19c19,39 25,-6 103,-5 23,18 27,-18 17,24l64 -34c-35,-7 -112,-40 -198,-32 -466,45 -210,-12 -406,-52l-15 -73c5,5 -18,43 33,5 49,-36 26,-32 25,-71 -35,-88 9,-126 -60,-170 -172,-136 -186,215 -180,332 -198,12 -73,69 -181,21l-9 43c-1,-3 -5,6 -8,8l-78 3c-26,150 -40,-50 -38,114 -63,5 -119,43 -160,90 -44,53 -50,35 -90,61 -3,2 -6,5 -9,7l-112 90 15 79c-42,-3 -40,-8 -82,-15 10,54 3,23 18,68 -22,-12 -25,-17 -27,-18 -18,-10 -1,-5 -42,-17 13,85 1,80 67,98 -26,15 -13,13 -39,11 -3,0 -10,-2 -13,-3l-24 137c-67,-56 -31,-88 -31,-88z"/>
  <path class="fil21" d="M19616 1700c-114,4 -148,107 -239,140 -29,60 -9,28 -40,52 -47,38 -22,3 -48,56 88,-20 143,-37 210,-111l134 -2 30 -46c54,2 107,-6 125,-2 0,0 99,41 145,22l19 -18c46,-26 169,-21 198,-35 30,-15 13,-32 50,-44l17 90c93,-3 92,-16 124,-43 2,-2 6,-6 9,-9 102,8 70,-5 134,51 -40,-9 -28,-7 -69,-16 20,53 23,7 -18,68 72,144 -89,133 0,234 -27,32 -13,11 -25,38l-31 88c0,15 12,63 13,66 -60,-2 -28,25 -107,140 -28,41 1,38 -43,20 -16,127 -79,147 -107,196l-75 126c-2,3 -4,7 -6,10 -24,35 -6,13 -36,46 -99,110 35,-10 -100,150l-100 117c-41,62 -25,53 -96,53 10,60 15,59 -38,95 -3,2 -8,4 -11,6 -80,55 -86,85 -102,99 -3,3 -7,5 -9,7 -126,100 -39,91 -144,91l0 83c-78,26 -92,96 -133,153l-194 155c-39,36 14,-1 -35,30 -104,67 4,-1 -117,101 -3,3 -7,6 -9,8 -113,101 -92,-6 -97,121 -44,-9 -13,2 -43,-13l-4 60 62 174c32,67 -12,-9 53,31l13 -22c8,-62 64,-202 96,-255 46,-76 109,-123 216,-132l0 -30 -44 -4c95,-11 153,-149 173,-173 19,-23 15,-8 44,-39l531 -585c28,-77 2,-16 60,-59 22,-108 114,-170 178,-287 56,-101 83,-99 181,-270l205 -354c6,-11 3,4 24,-34 129,-232 44,-174 80,-260 -135,-41 40,-29 -170,-115 -48,-19 -193,-72 -249,-78 -188,-20 -413,35 -585,59z"/>
  <path class="fil19" d="M13294 9577l30 -1c34,-15 40,-32 66,-59 14,-27 12,-30 36,-59 13,-15 30,-30 42,-42 45,-46 36,-55 102,-77 20,-65 159,-114 191,-181 31,-54 270,-256 295,-272 200,-132 28,-72 173,-110l25 -31c28,-69 97,-147 108,-226l27 -165 92 -92c3,-2 6,-6 9,-9l155 -144c40,-29 24,-12 64,-26 103,-35 -28,-28 163,-32 5,13 -14,15 13,-1 107,-66 67,-51 106,-113 21,-34 40,-35 49,-92 20,-119 32,-55 171,-237 155,-202 153,-114 295,-257 69,-69 40,-16 101,-65 4,-3 14,-14 17,-17l45 -69c88,10 146,-41 245,-125 16,-14 25,-26 42,-41 44,-41 49,-25 60,-88 51,23 89,-9 132,-48l-236 -49c-69,12 -76,-4 -151,-14 5,3 13,-47 11,13 0,1 15,61 -47,64 13,37 18,68 -21,88 -68,34 -46,5 -79,50l-38 65 -131 3c-2,109 -9,113 -49,165 -37,48 23,6 -46,43 -85,45 -30,2 -84,62 -2,3 -5,7 -8,10 -4,4 -44,33 -49,36l-62 18c3,3 8,-40 8,12l-13 118c-14,6 -31,15 -41,25 -86,85 -64,37 -94,86l-13 26c-2,4 -6,9 -9,14l-87 5 -26 111c-102,13 -142,129 -304,176 -8,104 9,38 -37,82 -4,3 -24,18 -27,21l-37 44c-3,4 -12,15 -15,19 -61,79 -39,89 -69,118 -24,17 -36,18 -50,31l-27 39c-74,120 -1,64 -114,154 -56,45 -32,52 -70,99l-24 25c-2,2 -6,7 -8,9l-19 110 -156 132c-141,154 -109,84 -253,249 -32,35 -19,15 -51,47l-154 146c-48,63 -152,170 -174,227z"/>
  <path class="fil22" d="M20920 5965l-61 10 -3 60c59,25 12,28 75,48 -55,12 3,-17 -38,33 35,36 -1,-30 18,27l71 249c106,12 91,31 155,79 56,43 35,4 117,67 70,52 57,12 195,29 56,7 74,33 119,44 30,7 43,2 73,12 38,12 22,15 53,26 27,10 123,11 127,27 101,-4 363,-59 427,-101 -176,-10 -85,10 -146,30l-134 -3c-14,-13 -22,-26 -38,-39 -3,-3 -16,-14 -19,-15l-22 -12c-96,-61 -18,-144 -101,-155 -74,-9 -69,7 -83,10l-24 12c-33,-70 -30,-42 -78,-96l15 -101 -43 -24c-31,-10 -14,-6 -39,6 -4,-50 0,-32 -16,-67 -40,14 -26,12 -37,17 -63,31 -37,3 -91,-24 -43,-22 -48,-2 -72,-23 -29,-26 25,-28 -43,-77 -71,-49 -44,79 -138,38 6,-46 19,-61 35,-95l-28 -63c-23,-59 -49,-16 -58,-9 20,-73 12,-19 -23,-42l-9 -7c-25,55 -40,62 -102,107l-34 22z"/>
  <path class="fil23" d="M19820 686l28 -7c-18,56 -9,56 5,106l122 10c-60,52 -62,-3 -122,41l61 18c183,38 61,15 252,18 148,2 219,32 351,40 37,-8 10,-48 116,-41l-44 65c3,4 7,4 9,11 21,81 -50,-66 21,21 18,23 16,10 28,49l20 10c80,14 101,62 169,75 105,24 71,45 147,39 121,-8 42,-26 185,2 68,-36 167,-60 216,26l48 -25 27 -38c-59,-29 -107,-55 -151,-77 -73,-36 -59,-73 -149,-73l-46 -4c-31,-40 -111,-100 -146,-125 -64,-54 -57,-98 -131,-91 -44,-12 -88,-39 -123,-44 -53,-9 -67,2 -125,-15 36,-36 0,-25 61,-38 4,-1 45,2 52,2 38,0 70,-4 108,-3 -28,12 -2,7 -17,-28l-934 6 -38 70z"/>
  <path class="fil8" d="M23011 4343c84,-20 92,-37 191,-40 83,-2 131,-3 201,17l368 81 -5 143 76 16 -3 -565c-27,-34 -23,-16 -34,-82 -4,43 9,14 -33,29l-9 -101c-49,2 -61,17 -87,15 -22,-1 27,-5 -29,-5 -33,-1 -33,4 -77,-2 -4,4 -8,5 -10,11 -11,39 -112,27 -143,25l34 68c-43,1 -24,-2 -57,10 -3,1 -7,4 -10,5 -3,1 -7,4 -9,5l-46 8c-4,2 -15,10 -19,12 -42,15 -28,10 -77,9l-16 79c-90,5 -118,-2 -181,-13l0 31c-101,47 -50,-17 -143,47 -52,36 -57,7 -107,42l-34 -69 -174 46c61,52 9,8 93,37 -58,51 -59,32 -169,36 13,36 13,15 -2,51 93,8 59,-1 131,-20 80,-21 29,18 105,-9l11 21c15,28 -1,-11 22,42 4,-2 10,-10 12,-6 16,44 3,-12 32,-12 20,-1 56,-1 94,23 32,-70 77,-115 157,-119 -9,91 -14,-2 -41,89 -2,8 9,3 -12,45z"/>
  <path class="fil24" d="M20119 5834l-179 186c-2,-4 -7,7 -11,10 -23,19 -26,25 -71,19 -27,-46 -32,-45 -28,-109 -32,30 -19,-7 -26,49 -5,34 2,21 20,62l-42 -44c-45,-47 -50,-34 -132,-34l0 -100 46 -14c4,-2 12,1 15,-5 3,-7 10,-4 16,-5l-33 -89c-1,-3 -5,-7 -6,-10 -2,-4 -6,-10 -7,-12 -23,-43 -11,-34 9,-117 -101,80 -242,649 -535,958 -36,38 -83,75 -103,105l26 17c59,-60 52,-28 124,-62 46,-22 45,-47 103,-65l28 0c19,-45 0,-11 32,-67 43,4 20,-16 173,-29l20 -79c190,-13 75,-55 295,-139 34,-42 16,-30 68,-55l352 -235 -15 107c-5,26 -7,25 -1,44 13,41 -4,22 25,46 -7,-50 -22,-67 21,-109 43,-46 -48,-26 39,-41l-55 29c10,-89 -1,-46 47,-106l208 -237c-39,14 -25,10 -46,8 0,-38 38,-40 71,-102 -101,36 -53,85 -219,148 -129,48 -78,124 -241,143l12 -66z"/>
  <path class="fil25" d="M22396 6562l-431 123 -93 27c35,73 33,40 76,79 -5,8 -27,49 -27,50l-86 1 117 116 -516 -23c-169,-81 -15,-30 -185,-27 -159,4 -87,-50 -317,-50 -11,-52 -3,-17 -17,-50 -141,0 -197,12 -250,-67 -84,0 -114,-4 -177,-17 4,50 -19,29 74,66l63 25 4 93c132,10 193,37 252,38 30,0 200,-12 150,102 -20,47 -5,8 -18,12 30,-12 -23,-3 31,-5 5,-1 39,-2 42,-3 63,-2 63,13 128,9 75,-5 161,-59 240,-11 27,16 -7,2 28,14 51,-26 153,-19 194,-23 118,-10 142,10 252,5 -1,7 -3,11 -3,20l141 -14c65,-26 107,-19 181,4l1 -29c-90,-10 -133,-117 -135,-170 90,13 160,75 204,84 71,0 70,-4 127,17l374 56c105,17 466,40 550,6 -471,-6 -306,-38 -701,-75 -102,-10 -75,-36 -152,-48 -101,-16 -200,-19 -305,-82 -47,-28 -83,-47 -50,-102l-83 -1c45,-32 52,-16 129,-48 42,-17 77,-28 120,-42 92,-29 175,-41 256,-77 43,-1 220,-75 252,-105 -160,27 -266,109 -440,122z"/>
  <path class="fil14" d="M19952 3039c-58,43 -32,-18 -60,59l-7 60c-35,26 -46,37 -78,85l-117 137c-56,96 2,20 -74,90 -104,95 -188,238 -287,331 -89,84 -73,60 -63,99l173 7 551 -696c217,-274 850,-1063 898,-1232l-33 26c-4,-6 -16,8 -21,15 -4,-97 10,-14 -19,-68 -3,-5 -23,-39 -25,-44l-49 -83c-1,-7 -5,-9 -7,-13l-17 -19 -45 -7c13,40 -27,34 15,34 3,3 8,8 10,10 1,2 6,7 8,9l13 30c12,29 20,33 25,56 21,91 -116,251 -128,281 -2,5 -3,9 -5,14 -3,9 -8,59 -10,73 -8,-21 55,2 -18,-14 -2,0 -12,8 -14,3l-40 35c-3,4 -11,16 -14,20l-117 131c-32,39 -114,155 -136,196 -67,125 -35,33 -109,139 -19,26 -20,25 -33,51 -45,94 -21,43 -69,101 -57,68 12,56 -98,84z"/>
  <path class="fil26" d="M18499 6911c0,65 -11,18 -45,25 -159,33 -302,-9 -416,5 -18,37 -37,14 -12,73 -1,-1 8,-49 -103,14l-108 97c-2,2 -6,6 -9,9 -41,51 -43,107 -38,176l-80 1c-9,101 17,96 -56,116 5,6 12,7 15,18 2,9 9,11 12,15l19 19c4,8 8,52 10,74l160 -24c-20,43 -29,33 -27,95 111,-81 72,-93 285,-241 11,-8 109,-141 289,-263l507 -313c49,-27 140,-56 176,-106l-26 -17c-64,28 -75,51 -127,83 -45,27 -92,45 -136,62 -107,40 -196,45 -290,82z"/>
  <path class="fil10" d="M16882 9091c106,-19 174,-19 235,-62 2,-2 6,-5 9,-7 11,-8 42,-25 59,-30 167,-52 -18,33 222,-109 76,-45 -15,-38 99,-50 3,-55 21,-78 42,-117 26,-1 56,0 81,-8 45,-16 -5,-2 50,-33 55,-32 61,0 73,-96 49,-1 32,12 67,-15 26,-21 27,-41 37,-63 -103,-1 -96,7 -181,-21 -96,-31 -56,-36 -152,-13 -6,-77 -10,-32 38,-112 32,-55 42,-17 81,-69 16,-22 -2,-8 18,-33l185 -111c77,0 5,6 24,-31 -97,-12 -146,38 -233,67l-200 101c-80,54 -102,30 -194,108 -151,129 -126,98 -119,197 45,-15 100,-41 149,-47 1,31 4,17 -4,47 -1,4 -8,15 -9,19 0,2 -2,8 -3,10l1 21c81,26 12,3 83,1 -103,201 -6,49 -107,160 -96,104 -82,32 -60,91 -58,-16 -19,-29 -71,10 -35,26 -34,28 -43,75 -69,7 -160,85 -177,120z"/>
  <path class="fil27" d="M19877 5182c-37,61 -186,381 -187,439 -20,83 -32,74 -9,117 1,2 5,8 7,12 1,3 5,7 6,10l33 89c-6,1 -13,-2 -16,5 -3,6 -11,3 -15,5l-46 14 0 100c82,0 87,-13 132,34l42 44c-18,-41 -25,-28 -20,-62 7,-56 -6,-19 26,-49l14 -18c21,-19 31,-23 42,-48 -28,-102 9,43 -36,-67 11,-23 39,-76 61,-126 -36,24 -46,25 -63,75 -2,-2 -20,-16 -27,-21l-30 -19c-63,-57 -28,-161 2,-229 21,-47 -10,-25 40,-50 -29,-124 175,-376 242,-456 35,-41 335,-335 370,-348l157 -226c92,-104 97,-70 141,-178 2,-3 4,-8 5,-11l145 -137c29,-27 24,-48 48,-85l49 -86c38,-83 39,7 107,-159 101,-251 81,-36 91,-194l63 -2c-8,-87 5,-16 -33,-47 -88,11 -19,-14 -78,34 -28,22 -38,31 -64,55 -42,40 -95,62 -144,89 -14,204 -34,99 -81,206 -10,25 -6,29 -17,49 -67,120 -43,102 -91,125l-3 88c13,-46 -24,9 -42,33 -3,4 -5,8 -8,12 -116,169 -80,75 -167,215 -6,11 -22,33 -27,38 -25,25 -7,4 -37,28l-92 93c-37,62 -22,24 -57,58l-159 193c-66,73 -166,189 -211,275 -27,50 -17,42 -63,83z"/>
  <path class="fil28" d="M20467 1186c85,13 62,12 139,2l42 81c62,-8 32,-15 46,36l-2 49c-13,43 -6,21 -25,49 -66,-12 -40,11 -80,-42l-3 -25c-112,-20 -108,-38 -117,-150zm181 279l-14 17c68,12 26,0 74,30 82,53 174,62 264,39 57,0 55,-10 98,14 68,37 5,30 81,38 -8,-69 -101,-54 -157,-141l-110 25 0 -88c-26,-20 -59,-13 -95,-52l-72 -121 -125 -83c-2,-1 -6,-5 -9,-6 -28,-17 -2,-3 -27,-11 -64,28 -29,-29 -156,-31l-16 -33c-49,22 -115,29 -184,18l18 -30c-44,-18 -7,7 -51,-50 -271,-6 -103,19 -307,-79 -34,-16 -32,-19 -65,-17 -29,2 -65,9 -98,11 -5,63 -21,74 -36,121 38,32 -42,8 46,30 68,18 -4,8 52,-6 -4,149 107,82 324,131 101,23 93,16 134,-19 74,59 5,17 93,22 -2,1 -7,-1 -7,2l-45 40c14,17 0,16 38,40 46,29 21,-8 153,77 134,87 142,40 199,112z"/>
  <path class="fil21" d="M20178 4958c-81,28 -141,121 -188,205 -62,109 -107,151 -95,313l11 -5 114 -114c123,-95 130,-21 137,29l30 -27c1,-1 27,-33 30,-36 24,-28 34,-33 59,-58l779 -555c31,-23 5,-4 28,-23 30,-24 5,-4 39,-28 49,-36 92,-70 147,-105 50,-54 124,-70 182,-102 14,20 28,-34 5,33 62,-31 84,-44 185,-41 6,-137 30,-32 35,-114l-25 13c-24,5 -25,2 -48,2 -212,1 -188,34 -325,100 -43,21 -74,4 -82,108 -49,-18 -2,-6 -64,-19 -27,58 -32,22 -17,86l-196 55c-4,2 -27,20 -31,22 -5,2 -45,21 -58,1l9 24c-3,3 -8,6 -11,8l-151 130 -20 -112c7,95 -57,116 -90,171 -2,3 -5,7 -7,11 -20,34 -15,10 -26,60 -129,8 -105,51 -153,78 -2,1 -6,2 -8,3 -2,1 -7,1 -9,1l-105 38c-8,7 -11,26 -26,42 -76,79 8,-47 -83,94 -130,26 -99,67 -209,130 21,-178 184,-287 237,-418z"/>
  <path class="fil19" d="M13836 9740c65,-140 -40,-246 154,-295 -15,67 -34,47 -44,114 -9,63 0,132 -6,199l65 -20 3 -178c37,-34 19,-40 34,-74l123 -72c125,-63 68,-88 135,-130l119 -67c75,-39 88,-10 111,-74 -4,-3 5,-42 -92,-10 -13,4 -51,23 -69,32 -136,65 23,30 -283,149 -71,27 -27,40 -139,61l-31 -94 94 7c39,-2 38,-68 39,-92 114,-46 17,-40 85,-98 50,-42 51,10 94,-84 -210,57 -197,133 -287,173 -70,30 -55,33 -105,64 2,76 1,64 23,120 -133,-10 -177,-11 -266,55l32 60c0,2 -52,10 -12,120l90 127c31,38 -21,9 35,31 32,12 60,-11 98,-24z"/>
  <path class="fil29" d="M1648 5977c221,-1 605,68 590,-204 -14,-238 -386,-194 -589,-180l-1 384z"/>
  <path class="fil17" d="M23448 6058c-39,56 -17,25 -79,67 -23,16 -36,27 -69,45 -145,82 -312,196 -464,270 -32,30 -209,104 -252,105l-29 81c-8,31 14,4 -46,54l-1 120 194 90 351 37c125,27 -52,50 400,78l318 -36 2 -17c-78,10 -175,22 -253,27 -136,9 -187,-43 -192,-46 -12,5 23,21 -56,9 -40,-6 -8,-4 -48,-21l-196 -56c-34,-21 -20,-36 -42,-63l-99 4c10,-45 18,-41 47,-65l-1 -82c-38,15 -15,6 -31,16 -2,2 -13,12 -17,16l-35 -69c2,-2 5,-7 7,-9l94 -89 -49 -34c25,-63 148,-126 219,-163l228 -140c146,-144 179,-43 164,-147l-65 18z"/>
  <path class="fil30" d="M23773 918l-1 -166c-69,-45 -21,-2 -112,-120l-218 2c-2,0 -6,1 -8,1l-415 -12c-92,-9 -334,-10 -428,-5 -25,57 38,18 -51,45l-1 31c58,46 372,42 463,42l50 60 534 40c-10,-10 22,-43 -34,13 -4,4 -9,12 -14,18 91,14 47,52 136,95 3,2 10,3 12,5 3,1 10,2 14,2l18 -19c27,-69 2,-15 0,-18 51,-5 30,-3 55,-14z"/>
  <path class="fil27" d="M14362 8519c52,-44 108,-128 123,-206 40,-12 48,-17 85,-33 65,-27 29,-21 92,-6 46,-51 25,-25 95,-56 115,-51 155,-95 223,-193 2,-4 9,-15 12,-19l13 -20c39,-60 -26,-9 37,-18l18 -26c44,-121 124,-212 211,-276l268 -198c33,-109 164,-160 251,-215 25,-16 57,-52 84,-70 26,-18 20,-12 46,-35l79 -71c54,-39 166,-94 191,-156l56 6 64 -4 0 -16 -162 -9c-43,39 -81,71 -132,48 -11,63 -16,47 -60,88 -17,15 -26,27 -42,41 -99,84 -157,135 -245,125l-45 69c-3,3 -13,14 -17,17 -61,49 -32,-4 -101,65 -142,143 -140,55 -295,257 -139,182 -151,118 -171,237 -9,57 -28,58 -49,92 -39,62 1,47 -106,113 -27,16 -8,14 -13,1 -191,4 -60,-3 -163,32 -40,14 -24,-3 -64,26l-155 144c-3,3 -6,7 -9,9l-92 92 -27 165z"/>
  <path class="fil31" d="M20445 4633c-35,13 -335,307 -370,348 -67,80 -271,332 -242,456 -1,46 -23,210 17,220l63 -34c7,-37 41,8 -13,-47l0 -31 -5 -69c-12,-162 33,-204 95,-313 47,-84 107,-177 188,-205 31,-55 227,-237 276,-281l301 -267c300,-216 235,-166 451,-401l134 -153c-38,3 1,54 -56,-18 104,-55 -17,-31 167,-150l4 -86 71 -2 -4 -22 -81 6c-58,37 -61,21 -141,28 -12,31 -14,55 -26,84l-58 93c-2,4 -8,18 -11,23 -7,14 -9,21 -17,31 -14,16 -45,31 -64,45 -24,203 -43,29 -51,177 -6,-47 3,-8 -22,-33 -15,17 -13,-14 -28,44 -27,-28 -14,11 -32,-51l-7 80c-156,105 -54,31 -134,132 -22,27 -51,52 -68,68l-323 318c-3,-3 -9,7 -14,10z"/>
  <path class="fil21" d="M19911 5681c-22,50 -50,103 -61,126 45,110 8,-35 36,67 48,-36 76,-77 115,-102 61,-37 106,-30 127,40 133,-59 46,-97 270,-244 45,-30 103,-74 145,-104 27,-19 42,-20 73,-42 52,-35 22,-25 90,-46l-4 -63 64 21c45,-27 81,-55 135,-79l247 -186c56,-37 221,-124 247,-174 -80,39 -86,9 -177,62 -173,101 -199,23 -179,105 -95,-8 -236,113 -311,172 -3,2 -7,4 -10,7 -112,82 -115,123 -160,156 -139,104 -113,64 -164,89 -59,27 -27,64 -177,28 -32,49 3,10 -46,39 35,46 27,25 36,93 -80,-7 -49,35 -65,-48 -24,89 -34,35 -58,109 -49,0 -36,-5 -74,8l-55 25c-3,-4 -11,5 -17,7 26,-136 95,-160 162,-207l131 -104c17,-19 17,-30 53,-63 110,-96 63,-124 383,-318 88,-53 205,-117 262,-199 -69,27 -91,59 -151,97 -298,186 -273,190 -515,399l-244 224c-56,44 -74,39 -108,105z"/>
  <path class="fil32" d="M13110 9893c-17,63 -16,56 -61,104 -14,14 -27,30 -43,41 -47,33 -7,8 -56,25l-59 41c-12,8 -6,5 -34,23l-69 44c-32,20 -68,35 -94,54 -37,19 43,-16 -36,18 -70,31 -156,27 -231,64 -77,40 -54,133 -199,151 -481,61 -438,-25 -609,-74 14,43 -31,38 16,38 27,7 1,25 100,63 37,15 68,27 114,37 60,13 462,0 557,-66 62,-43 148,-60 200,-100 130,-96 161,-90 197,-120 37,-29 32,-45 80,-69l151 -84c87,-45 -11,-9 157,-160 23,-21 89,-74 95,-105 1,-6 6,-7 8,-11l112 7c23,56 5,50 60,92 3,2 7,5 10,7 3,2 7,5 10,7l39 25c76,-37 64,-13 103,-80 182,-17 172,12 316,49 86,22 233,91 310,66l-1 -28c-70,-6 -156,-26 -233,-47 -45,-12 -77,-24 -120,-34 -130,-30 -115,-2 -89,-39 -52,-18 -115,-23 -183,-20l-150 25c-39,-30 -51,-33 -52,-72 -57,-30 -28,-33 -98,-82 -125,30 -132,142 -218,210z"/>
  <path class="fil33" d="M19616 1700c172,-24 397,-79 585,-59 56,6 201,59 249,78 210,86 35,74 170,115 -36,86 49,28 -80,260 -21,38 -18,23 -24,34l-205 354c-98,171 -125,169 -181,270 -64,117 -156,179 -178,287 110,-28 41,-16 98,-84 48,-58 24,-7 69,-101 13,-26 14,-25 33,-51 74,-106 42,-14 109,-139 22,-41 104,-157 136,-196l117 -131c3,-4 11,-16 14,-20l40 -35c2,5 12,-3 14,-3 73,16 10,-7 18,14 2,-14 7,-64 10,-73 2,-5 3,-9 5,-14 12,-30 149,-190 128,-281 -5,-23 -13,-27 -25,-56l-13 -30c-2,-2 -7,-7 -8,-9 -2,-2 -7,-7 -10,-10 -42,0 -2,6 -15,-34l-104 -45c41,-2 201,-7 202,-36l-64 -1c-42,-20 -23,28 -35,-22 -70,51 -284,8 -329,-49 -16,-3 -155,-52 -168,-58l-103 -33c24,33 12,34 73,56 -165,-1 -316,2 -482,68 -68,27 -17,3 -46,34z"/>
  <path class="fil34" d="M6912 5206c229,13 276,-325 70,-373 -128,-20 -226,-18 -360,-17l-2 389 292 1z"/>
  <path class="fil22" d="M15627 7431c-15,23 -2,12 -33,41l-214 184c-105,78 -229,161 -291,243l-29 43 -18 26 39 -5c37,-9 157,-101 192,-130l-190 263c-29,38 -29,55 -70,63 -47,85 -230,247 -321,320l-72 63c-14,41 0,26 -35,45 52,-31 101,-37 143,-62l129 -115c48,-58 96,-109 161,-159 75,-58 92,-110 159,-176 87,-88 45,-62 82,-106l208 -264c28,-50 108,-119 154,-169 121,-132 123,-107 169,-152l177 -156c70,-44 20,-28 87,-80 40,-30 49,-31 94,-70 33,-9 70,-47 100,-68 54,-39 58,-32 87,-88l-25 1 -64 4c-54,76 -227,192 -307,255 -84,67 -230,213 -312,249z"/>
  <path class="fil35" d="M20746 5891c46,31 11,-22 39,37 16,35 -15,89 32,265 41,154 46,193 116,296l-93 0c47,68 84,53 168,78 72,22 103,60 180,67 86,17 206,82 313,88 118,7 217,-32 320,-46 -4,-16 -100,-17 -127,-27 -31,-11 -15,-14 -53,-26 -30,-10 -43,-5 -73,-12 -45,-11 -63,-37 -119,-44 -138,-17 -125,23 -195,-29 -82,-63 -61,-24 -117,-67 -64,-48 -49,-67 -155,-79l-71 -249c-19,-57 17,9 -18,-27 41,-50 -17,-21 38,-33 -63,-20 -16,-23 -75,-48l3 -60 15 -35c-26,-19 -16,30 -26,-34l-46 -59c-35,14 5,-11 -30,14 -20,14 -13,13 -26,30z"/>
  <path class="fil36" d="M18683 1358c56,-26 71,-82 249,-94 82,-111 64,-31 133,-111l-110 9c2,-56 -5,-27 13,-57 2,-3 5,-7 7,-9 2,-3 6,-7 8,-9l17 -18c115,-118 -24,-64 101,-183 30,-99 15,-60 21,-150 72,-41 15,18 53,-75l11 -24c2,-3 4,-8 5,-10 2,-4 7,-21 8,-27l-567 8c0,-18 193,0 217,7 64,20 13,6 47,24l42 27c1,1 3,6 4,7l33 40 -104 10c6,173 -30,17 -30,166 0,17 2,66 2,81 0,31 -10,62 5,98 -9,0 -27,1 -31,2 -29,9 -18,6 -33,16 -7,137 -5,64 -26,110l-13 37c-28,69 -26,24 -94,122l-15 19c-13,20 -10,15 -18,40 31,-16 0,5 23,-17l29 -29c3,-3 8,-7 13,-10z"/>
  <path class="fil37" d="M20566 6028l-50 38c-30,49 -53,50 -71,91 -2,76 51,129 87,194 33,16 79,55 136,86 49,27 126,54 172,52l93 0c-70,-103 -75,-142 -116,-296 -47,-176 -16,-230 -32,-265 -28,-59 7,-6 -39,-37 -42,21 -46,41 -86,76 -35,33 -50,37 -94,61z"/>
  <path class="fil34" d="M1650 5087c187,8 542,63 529,-164 -13,-201 -344,-150 -528,-145l-1 309z"/>
  <path class="fil18" d="M23370 7020l292 -6c-36,50 -32,19 -69,55l178 -15 0 -85 -318 36c-452,-28 -275,-51 -400,-78l-351 -37 -194 -90 1 -120c60,-50 38,-23 46,-54l29 -81c-81,36 -164,48 -256,77 -43,14 -78,25 -120,42 -77,32 -84,16 -129,48l83 1c-33,55 3,74 50,102 105,63 204,66 305,82 77,12 50,38 152,48 395,37 230,69 701,75z"/>
  <path class="fil38" d="M13730 9263l-9 80c-95,6 -107,15 -173,67 -8,98 -36,140 -30,196 1,8 14,50 17,56l27 44c25,39 -6,37 85,71l-19 35c68,-3 131,2 183,20 0,-11 0,-53 0,-54 16,-68 -7,-10 25,-38 -38,13 -66,36 -98,24 -56,-22 -4,7 -35,-31l-90 -127c-40,-110 12,-118 12,-120l-32 -60c89,-66 133,-65 266,-55 -22,-56 -21,-44 -23,-120 50,-31 35,-34 105,-64 90,-40 77,-116 287,-173l123 -90c0,-4 3,-4 5,-6 21,-36 4,-13 25,-39l274 -220c22,-26 12,-11 24,-30 18,-28 2,-1 21,-43 -104,19 -96,34 -162,66 -218,105 -153,5 -304,213l-151 166 -353 232z"/>
  <path class="fil39" d="M23271 6090c-39,44 -145,101 -205,144 -111,80 -221,123 -353,164l-357 133c-2,-4 -7,6 -11,10 24,26 -41,24 51,21 174,-13 280,-95 440,-122 152,-74 319,-188 464,-270 33,-18 46,-29 69,-45 62,-42 40,-11 79,-67 -77,-15 -13,30 -57,-29 55,-32 161,-131 197,-171 40,-45 52,-82 108,-126l75 -70 -1 -205 -47 3c-34,64 -36,148 -89,194 -26,24 -44,32 -67,67 -15,23 -10,23 -24,42l-97 103c-34,37 -21,44 -49,85 -45,67 -82,57 -126,139z"/>
  <path class="fil40" d="M11071 9776l-7 -32c-84,-17 -70,-128 -72,-149 -6,-73 -17,-129 -31,-202 57,-76 16,-53 115,-67 0,79 -75,297 19,309 31,4 4,-17 85,-29l-26 162c76,-32 33,-17 58,-123 15,-59 23,-28 31,-117 59,-12 74,-45 103,-82 115,-143 240,-148 234,-307 -96,26 -128,112 -196,179l-301 235c-5,-80 5,-179 30,-244 53,-142 349,-313 352,-474 -130,38 -121,162 -197,217l-247 138c-118,158 -71,395 -46,606 92,-10 25,-29 96,-20z"/>
  <path class="fil41" d="M14254 8745l-25 31c-18,70 2,31 -54,80 -100,88 -293,262 -414,302 -32,67 -171,116 -191,181 -6,39 20,43 -9,32 35,-24 22,-33 134,-45l-16 -44c1,-1 47,-17 51,-19l353 -232 151 -166c151,-208 86,-108 304,-213 66,-32 58,-47 162,-66 19,-23 43,-40 75,-63 9,-6 34,-24 39,-30 23,-22 13,-7 15,-29l28 -54 -129 115c-42,25 -91,31 -143,62 35,-19 21,-4 35,-45 -64,-4 -18,27 -43,-16 36,-52 34,-43 76,-79 74,-102 59,-84 179,-166 -24,-47 42,-32 -53,-25 -12,0 -21,5 -39,14 -215,106 -206,102 -297,256 -8,15 -48,57 -59,73 -48,73 -42,103 -130,146z"/>
  <path class="fil42" d="M16091 7254c-21,44 -26,50 -61,70 36,121 -8,82 -84,135l-56 58c-34,34 -33,33 -76,58 7,65 25,61 -35,99 -45,29 -73,39 -119,65l6 54c45,6 50,5 98,-15 17,-8 31,-8 45,-28 32,-48 -3,-30 -4,-32l62 10c16,-54 5,-36 56,-61 94,-46 16,-35 90,-75 133,-73 6,-35 68,-101 103,-59 66,12 164,-100 -3,-2 -8,-10 -10,-7l-39 -26c19,-69 26,-94 95,-122l11 -101c9,-1 44,-8 45,-8l57 -44c1,-1 37,-21 41,-23l70 -53c33,-23 34,-27 65,-50l-103 -5c-28,3 -46,3 -70,15l-103 82c-155,131 -125,139 -213,205z"/>
  <path class="fil43" d="M11181 10327l-10 -63 -38 -50c-114,-64 -71,-220 -71,-359 -86,4 -89,32 -136,82 -67,-86 -41,-98 -40,-227 0,-86 -18,-176 1,-259l47 -220c16,-68 52,-133 72,-203l-76 91c-14,-7 -3,-2 -20,-13l-21 -17c-6,98 -10,135 -19,237l-50 17c-3,82 -26,135 -18,200 9,74 28,79 11,174 -13,73 -12,128 -10,210 3,124 -50,221 56,254 43,-77 -9,-57 67,-119 10,16 7,-1 12,29l-1 20c1,15 3,29 13,69l26 -52c1,0 19,16 24,19 74,43 37,77 143,159 0,42 -8,4 38,21z"/>
  <path class="fil9" d="M20128 5812l-9 22 -12 66c163,-19 112,-95 241,-143 166,-63 118,-112 219,-148 -33,62 -71,64 -71,102 21,2 7,6 46,-8l341 -321c-74,-12 -25,23 -59,-26 26,-46 38,-64 77,-101 -54,24 -90,52 -135,79l-64 -21 4 63c-68,21 -38,11 -90,46 -31,22 -46,23 -73,42 -42,30 -100,74 -145,104 -224,147 -137,185 -270,244z"/>
  <path class="fil44" d="M20445 4633c5,-3 11,-13 14,-10l323 -318c17,-16 46,-41 68,-68 80,-101 -22,-27 134,-132l7 -80c18,62 5,23 32,51 15,-58 13,-27 28,-44 25,25 16,-14 22,33 8,-148 27,26 51,-177 19,-14 50,-29 64,-45 8,-10 10,-17 17,-31 3,-5 9,-19 11,-23l58 -93c12,-29 14,-53 26,-84 80,-7 83,9 141,-28l-190 -29 -63 2c-10,158 10,-57 -91,194 -68,166 -69,76 -107,159l-49 86c-24,37 -19,58 -48,85l-145 137c-1,3 -3,8 -5,11 -44,108 -49,74 -141,178l-157 226z"/>
  <path class="fil26" d="M15238 8149c-47,5 -3,-13 -44,24 -14,12 -27,25 -44,39 -39,33 -43,33 -67,70l-18 62c-16,17 -9,8 -29,31 11,37 22,4 -39,72l-14 14c-52,37 -24,-37 -113,38l-215 160 -274 220c-21,26 -4,3 -25,39l59 -7c56,-82 80,-37 145,-123 95,-125 54,-9 186,-137l15 -10c64,-49 41,-35 112,-53 129,-32 53,-71 193,-91l9 -63c34,-13 82,-23 111,-31 83,-23 43,6 77,-60 153,15 74,-49 143,-101 -5,-3 -13,-9 -15,-11 -37,-33 -24,-68 -23,-172l-56 12 -36 67c0,36 6,22 -38,11z"/>
  <path class="fil45" d="M22250 7027l-2 -56c86,4 494,48 574,104 -232,6 -383,-37 -572,-48zm0 0l-1 29c124,-6 394,58 570,58 106,0 211,3 317,-3 113,-6 217,-29 326,-25l131 -17c37,-36 33,-5 69,-55l-292 6c-84,34 -445,11 -550,-6l-374 -56c-57,-21 -56,-17 -127,-17 -44,-9 -114,-71 -204,-84 2,53 45,160 135,170z"/>
  <path class="fil14" d="M14857 8410l-28 54c49,-5 35,-24 72,-53 14,-11 43,-27 58,-38 57,-41 50,-66 124,-91 24,-37 28,-37 67,-70 17,-14 30,-27 44,-39 41,-37 -3,-19 44,-24 16,-59 76,-159 114,-201 55,-61 107,-137 140,-150 41,-105 77,-61 147,-180l448 -455c59,-51 40,8 61,-85 -45,39 -54,40 -94,70 -67,52 -17,36 -87,80l-177 156c-46,45 -48,20 -169,152 -46,50 -126,119 -154,169l-208 264c-37,44 5,18 -82,106 -67,66 -84,118 -159,176 -65,50 -113,101 -161,159z"/>
  <path class="fil23" d="M21443 973c29,33 65,51 102,36 -24,60 -26,30 15,79l35 -3c0,-48 -16,-21 6,-42l-20 11c-14,-56 13,-68 76,-88l-41 -61 20 -47 -50 13c-46,-55 -89,-89 -155,-120l6 -51 -23 0c-9,19 22,32 -41,16 -13,-4 -28,-21 -37,-28 -53,-29 -49,-48 -100,-75l-300 1c26,197 262,186 265,185 41,-37 10,35 33,-33 60,23 13,34 99,31 66,-2 50,-14 126,-5 -30,78 -24,29 -72,78 9,67 17,47 56,103z"/>
  <path class="fil46" d="M19101 886c-6,123 -47,127 -56,195 -10,83 8,50 21,72l53 -21c140,-15 160,-170 175,-219 37,-129 50,31 91,-311l-186 -2c-1,6 -6,23 -8,27 -1,2 -3,7 -5,10l-11 24c-38,93 19,34 -53,75 -6,90 9,51 -21,150z"/>
  <path class="fil47" d="M20157 5386c-46,39 -53,63 -96,98 -60,49 -58,33 -111,91l-50 1c54,55 20,10 13,47l-63 34c-40,-10 -18,-174 -17,-220 -50,25 -19,3 -40,50 -30,68 -65,172 -2,229l30 19c7,5 25,19 27,21 17,-50 27,-51 63,-75 34,-66 52,-61 108,-105l244 -224c242,-209 217,-213 515,-399 60,-38 82,-70 151,-97 37,-38 131,-88 180,-122 72,-49 106,-58 171,-122 3,-4 8,-11 10,-13l24 -27c-25,-31 48,-49 -45,-18 -55,35 -98,69 -147,105 -34,24 -9,4 -39,28 -23,19 3,0 -28,23l-779 555c-25,25 -35,30 -59,58 -3,3 -29,35 -30,36l-30 27z"/>
  <path class="fil48" d="M15588 9655c-40,18 -24,0 -62,37 -26,25 -18,19 -21,46l48 147c-113,2 -14,-5 -57,29 113,-4 221,-9 334,-11 91,-2 188,-21 261,-20 0,-30 -5,-20 29,-13 28,-34 46,-33 65,-71 34,-70 -26,-27 72,-112 60,-52 57,-38 73,-81l0 -19c-45,55 -39,6 -113,75l-70 -35 -179 162c-48,53 -89,17 -171,13 -81,-4 -109,11 -167,14 -18,-18 -37,-50 -57,-73l15 -88z"/>
  <path class="fil49" d="M19921 6205c-52,25 -34,13 -68,55l163 13c-29,82 -59,22 -100,119 192,5 234,-33 361,23l54 15c34,7 88,12 113,20l-57 -225c87,19 30,-37 85,61 29,52 -2,26 60,65 -36,-65 -89,-118 -87,-194 -43,32 -28,33 -81,54l-15 19c14,21 45,134 55,164 -51,-7 -161,-73 -199,-109 -38,-36 -15,23 -30,-61 49,-45 51,-44 125,-22 -11,-40 11,-25 -18,-35 -29,-24 -12,-5 -25,-46 -6,-19 -4,-18 1,-44 -71,28 -121,19 -184,53 -52,29 -91,54 -126,90l-27 -15z"/>
  <path class="fil50" d="M21401 1395l44 -3c-45,-43 -25,-1 39,-109l42 -9 -34 -51c-24,-43 -30,-22 -60,-79l-48 25c-49,-86 -148,-62 -216,-26 -143,-28 -64,-10 -185,-2 -76,6 -42,-15 -147,-39 33,45 272,177 272,177 79,17 41,-34 93,29l33 -24c30,61 76,99 149,93l18 18z"/>
  <path class="fil51" d="M22443 617l148 1c94,-5 336,-4 428,5l415 12c2,0 6,-1 8,-1l218 -2c91,118 43,75 112,120l1 166 -4 737 32 -18c5,-177 27,-340 24,-518 -2,-145 32,-388 9,-510l-1619 -8c23,11 -25,6 37,13 17,2 47,1 66,2 46,1 78,4 125,1z"/>
  <path class="fil34" d="M4233 5577l324 -2c-6,-54 -123,-468 -170,-519l-154 521z"/>
  <path class="fil9" d="M18889 2283c11,-9 31,-23 50,-38 39,-31 34,-27 61,-75 -90,32 -21,11 -46,0 45,-89 161,-294 295,-267 33,21 9,-7 23,44l17 1c26,-53 1,-18 48,-56 31,-24 11,8 40,-52 -41,8 -9,14 -31,-3 16,-27 44,-80 76,-103l49 -25c189,-110 225,-95 284,-180 -55,0 -224,81 -262,101 -28,15 -2,6 -37,28l-175 111c-43,43 -79,73 -115,112 -161,-1 -118,31 -120,69l-80 3c-32,120 -41,57 -85,153 -42,89 -54,61 -52,183l60 -6z"/>
  <path class="fil28" d="M21444 4672c16,-109 7,-47 43,-118 -63,12 -151,70 -201,108l-439 290c-98,87 -17,95 -16,96 76,41 119,-30 182,-63 54,-28 123,-51 170,-79 48,-29 38,-59 75,-90l186 -144z"/>
  <path class="fil52" d="M16588 9116c216,-42 142,-141 238,-185 8,85 -34,102 -75,160 29,-17 52,-25 77,-51 93,-98 66,-163 23,-231 34,-76 29,-131 94,-181 -8,-17 -38,24 -1,-75 29,-76 99,-122 142,-160 -12,-24 -36,-61 -72,-18 -4,-36 13,-14 -12,-48 -54,-71 53,26 -50,-32 -15,46 -17,38 -21,97 -99,21 -35,20 -64,60 0,1 -4,5 -5,6 -1,1 -6,11 -7,8l-15 102c-1,4 -15,68 -20,91 -17,95 10,126 -14,175 -102,216 -19,78 -146,205l-14 16c-78,56 63,-15 -15,8 -3,1 -28,-5 -33,-6l-10 59z"/>
  <path class="fil27" d="M20434 1469c56,15 51,8 67,63l62 1 79 36c37,19 14,6 42,23 3,2 14,9 17,11 0,72 -10,1 45,29 41,-13 31,12 39,46 2,-4 5,-15 6,-13l26 -52 206 65 60 24c44,-16 35,-14 64,-23l-5 -25 13 -24c-70,-7 -52,-2 -104,-27 -10,-5 -22,-11 -30,-16 -48,-28 -23,-13 -49,-36 -90,23 -182,14 -264,-39 -48,-30 -6,-18 -74,-30l14 -17c-69,6 -336,-140 -424,-187 -24,-13 -52,-26 -67,-33 -114,-56 -62,-17 -79,-9l81 54c40,25 63,38 98,57 45,26 157,90 177,122z"/>
  <path class="fil8" d="M15492 7798c-33,13 -85,89 -140,150 -38,42 -98,142 -114,201 44,11 38,25 38,-11l36 -67 56 -12 3 9c9,-56 -3,-58 72,-113l165 -166 58 4 -6 -54c46,-26 74,-36 119,-65 60,-38 42,-34 35,-99 43,-25 42,-24 76,-58l56 -58c76,-53 120,-14 84,-135 35,-20 40,-26 61,-70 -76,27 -103,66 -165,135 -66,73 -46,99 -123,160 -102,81 -230,208 -311,249z"/>
  <path class="fil53" d="M20836 736c14,-43 -33,-41 31,-30 43,39 142,75 201,113 53,34 138,92 196,111 76,15 98,34 179,43 -39,-56 -47,-36 -56,-103 48,-49 42,0 72,-78 -76,-9 -60,3 -126,5 -86,3 -39,-8 -99,-31 -23,68 8,-4 -33,33 -3,1 -239,12 -265,-185l-144 -4c15,35 -11,40 17,28 -38,-1 -70,3 -108,3 -7,0 -48,-3 -52,-2 -61,13 -25,2 -61,38 58,17 72,6 125,15 35,5 79,32 123,44z"/>
  <path class="fil54" d="M21437 700l-6 51c66,31 109,65 155,120l50 -13 14 4c26,-60 6,-28 55,-73l170 -163c3,-2 7,-5 10,-7l30 -23c-55,1 -155,16 -230,20 -104,5 -136,2 -232,-21l-16 105z"/>
  <path class="fil27" d="M16148 7078c-21,93 -2,34 -61,85l-448 455c-70,119 -106,75 -147,180 81,-41 209,-168 311,-249 77,-61 57,-87 123,-160 62,-69 89,-108 165,-135 88,-66 58,-74 213,-205l103 -82c24,-12 42,-12 70,-15l-142 -30c-29,56 -33,49 -87,88 -30,21 -67,59 -100,68z"/>
  <path class="fil15" d="M20856 5694c26,-47 31,-71 78,-102 145,-94 91,-136 96,-165l17 -41c49,-103 35,-21 78,-124 -122,3 -43,21 -277,207 -78,62 -138,94 -174,199 92,32 17,41 182,26z"/>
  <path class="fil21" d="M20809 1172c88,7 156,58 215,108 48,41 133,91 167,133l28 -6 65 -5c46,91 78,6 167,68 -199,12 -168,29 -168,83l-54 -18c9,8 14,25 27,35 -17,16 -22,26 -35,41 6,7 11,14 15,23 16,38 59,-50 62,-56 24,-42 11,-6 25,-54 58,3 232,-92 237,-140 14,-126 15,-22 -33,-57 -17,17 -28,25 -44,43 -32,38 -5,22 -49,56 -38,-18 -17,5 -33,-31l-18 -18c-73,6 -119,-32 -149,-93l-33 24c-52,-63 -14,-12 -93,-29 0,0 -239,-132 -272,-177 -68,-13 -89,-61 -169,-75l0 34c35,15 42,22 81,42 50,27 73,21 61,69z"/>
  <path class="fil32" d="M19501 882c71,-31 100,-66 159,-102 33,-21 51,-21 86,-45 51,-33 20,-32 74,-49l38 -70 -405 -13 51 29c-28,37 -13,-29 -22,53 -2,13 -1,65 -2,84l-40 28c9,50 4,80 61,85z"/>
  <path class="fil19" d="M14817 9960l3 6c122,26 545,-36 676,-52 43,-34 -56,-27 57,-29l-48 -147c-79,46 -41,85 -75,157l-59 12 -123 30c19,-79 2,-35 43,-94l-62 35c-46,-16 -91,-5 -142,-25 -72,-29 -47,-18 -139,-26 16,-148 52,-134 98,-233 -74,45 -20,12 -72,77 -89,110 -101,165 -40,273l-117 16z"/>
  <path class="fil23" d="M21634 4957c-5,2 -31,17 -36,20 -5,2 -9,5 -15,7l-65 22c23,17 4,34 16,-17 -102,25 -180,84 -248,135 -69,51 -63,54 -93,127l-19 48c126,-6 86,3 147,-38 8,-5 43,-28 49,-33 3,-2 7,-6 10,-8l17 -19c2,-2 5,-7 8,-9 69,-67 40,14 174,-73 3,-2 8,-4 11,-6l39 -24 5 -132z"/>
  <path class="fil22" d="M20785 1678l-15 27c-1,29 -161,34 -202,36l104 45 45 7 17 19 75 19c3,2 8,4 10,6l18 13c46,44 -27,73 104,44 29,-28 41,-69 67,-102 16,-33 25,-49 36,-72 -12,-18 -7,-28 -21,-42l-206 -65 -26 52c-1,-2 -4,9 -6,13z"/>
  <path class="fil24" d="M12877 9981c-38,45 -28,28 -78,50 -66,30 -61,45 -135,97 -67,47 -42,25 -53,99l83 -2c26,-19 62,-34 94,-54l69 -44c28,-18 22,-15 34,-23 -63,-14 -30,9 -59,-27 41,-57 17,-24 69,-61 54,-39 48,-83 191,-153l-14 37 32 -7c86,-68 93,-180 218,-210 70,49 41,52 98,82l-20 -56c-17,-78 -33,-40 -102,-83l20 -50 -30 1c-54,87 -85,160 -185,232l-232 172z"/>
  <path class="fil41" d="M21420 4881l-25 14c-26,50 -191,137 -247,174l-247 186c-39,37 -51,55 -77,101 34,49 -15,14 59,26 53,-45 87,-89 126,-122 38,-83 79,-87 150,-127 73,-43 106,-74 194,-110l126 -64c36,-65 6,-25 62,-64 63,-44 37,-2 44,-81l-165 67z"/>
  <path class="fil13" d="M14603 7568l-10 42c11,38 4,21 37,31 -104,75 -80,-34 -118,104 -46,2 -99,-3 -124,26 -40,45 21,65 -4,59 2,71 2,51 18,105 85,-28 39,-20 86,-49 64,-41 122,-8 165,-111 15,-34 -6,-10 16,-44l26 -28c21,-23 16,-93 18,-126 -7,-2 -48,-20 -53,-21 -99,-16 61,-11 -28,-2l-29 14z"/>
  <path class="fil9" d="M14362 8519c-11,79 -80,157 -108,226 88,-43 82,-73 130,-146 11,-16 51,-58 59,-73 91,-154 82,-150 297,-256 18,-9 27,-14 39,-14 95,-7 29,-22 53,25 43,-30 19,-22 40,-60l63 -64c22,-41 33,-67 58,-101 32,-41 47,-42 88,-93l-39 5c-63,9 2,-42 -37,18l-13 20c-3,4 -10,15 -12,19 -68,98 -108,142 -223,193 -70,31 -49,5 -95,56 -63,-15 -27,-21 -92,6 -37,16 -45,21 -85,33 -15,78 -71,162 -123,206z"/>
  <path class="fil21" d="M21420 4881l165 -67c-7,79 19,37 -44,81 -56,39 -26,-1 -62,64 49,-24 105,-56 153,-91 20,-15 40,-37 71,-43 53,-11 55,0 79,16l31 -24c3,-2 8,-4 11,-5 35,-17 60,17 84,-126 -78,5 -90,10 -153,24 -72,16 -154,-5 -267,66 -40,25 -13,15 -42,40 -8,6 -47,28 -54,32 9,28 7,14 28,33z"/>
  <path class="fil31" d="M19377 1840c91,-33 125,-136 239,-140 29,-31 -22,-7 46,-34 166,-66 317,-69 482,-68 -61,-22 -49,-23 -73,-56 -63,-8 -70,-25 -154,-19 -66,5 -93,14 -162,6 -59,85 -95,70 -284,180l-49 25c-32,23 -60,76 -76,103 22,17 -10,11 31,3z"/>
  <path class="fil36" d="M11071 9776l38 74 44 9 6 -61 -5 -30 26 -162c-81,12 -54,33 -85,29 -94,-12 -19,-230 -19,-309 -99,14 -58,-9 -115,67 14,73 25,129 31,202 2,21 -12,132 72,149l7 32z"/>
  <path class="fil24" d="M14362 9623c18,-17 22,-14 37,-44 47,52 42,6 15,107 -10,38 -7,80 -15,124 -80,77 -42,118 -129,136l25 -71c-31,23 -24,3 -44,42 -17,34 -1,20 2,35 65,17 44,14 116,-4l28 -87c7,1 40,7 40,7 13,1 24,-2 30,-4 5,-12 4,-2 11,-38l16 -101c7,-82 -25,-69 -9,-142 15,-68 81,-140 107,-205 -60,5 -122,46 -143,87 -33,61 -52,94 -87,158z"/>
  <path class="fil14" d="M13570 9339c-66,22 -57,31 -102,77 -12,12 -29,27 -42,42 -24,29 -22,32 -36,59l59 -15c5,215 -13,136 89,247 37,40 11,5 33,50 -82,3 -94,11 -135,-47l-21 -32c-2,-3 -6,-7 -9,-11l20 56c1,39 13,42 52,72l150 -25 19 -35c-91,-34 -60,-32 -85,-71l-27 -44c-3,-6 -16,-48 -17,-56 -6,-56 22,-98 30,-196 66,-52 78,-61 173,-67l9 -80c-4,2 -50,18 -51,19l16 44c-112,12 -99,21 -134,45 29,11 3,7 9,-32z"/>
  <path class="fil9" d="M19188 3899l78 1c-10,-39 -26,-15 63,-99 99,-93 183,-236 287,-331 76,-70 18,6 74,-90l117 -137c32,-48 43,-59 78,-85l7 -60 -531 585c-29,31 -25,16 -44,39 -20,24 -78,162 -173,173l44 4z"/>
  <path class="fil27" d="M11285 10385c8,-38 -7,-10 19,-46 3,-4 26,-25 30,-29 -74,46 -25,38 -104,80l-4 -88c147,-9 37,-135 217,-166l72 154 -138 6c121,-5 147,14 249,48 -35,-96 11,-23 -63,-88 -59,-51 -58,-92 -57,-163 3,-214 -174,12 -178,20 -134,240 -160,34 -85,288 14,-11 16,-9 42,-16z"/>
  <path class="fil38" d="M14792 9731c161,-112 25,-75 146,-98 -47,158 -47,13 -86,227 -20,104 -9,5 -35,100l117 -16c-61,-108 -49,-163 40,-273 52,-65 -2,-32 72,-77 19,-59 55,-58 84,-117 -84,5 -183,28 -227,74 -33,35 -94,121 -111,180z"/>
  <path class="fil24" d="M22120 4956c18,-45 38,-62 48,-114 -53,7 -16,0 -49,14l-136 67c-68,33 -116,44 -181,85l-216 180c-2,2 -5,6 -7,9l-57 72c92,-25 31,-1 93,-50 159,-125 155,-167 389,-223l116 -40z"/>
  <path class="fil2" d="M15761 5269l5 173c51,33 99,76 159,94l6 -313c-51,5 -118,25 -170,46z"/>
  <path class="fil9" d="M15539 7468c52,-23 38,-23 88,-37 82,-36 228,-182 312,-249 80,-63 253,-179 307,-255l-56 -6c-25,62 -137,117 -191,156l-79 71c-26,23 -20,17 -46,35 -27,18 -59,54 -84,70 -87,55 -218,106 -251,215z"/>
  <path class="fil9" d="M20967 827c28,-30 -41,-32 37,-24 41,54 105,95 172,116l-17 37c90,0 76,37 149,73 44,22 92,48 151,77l-27 38c30,57 36,36 60,79 21,14 25,5 46,19 -12,-58 1,-26 -30,-73 12,-12 27,-23 41,-34l46 -50 -35 3 -101 -3c-32,-44 -74,-49 -148,-109l-38 -34c-1,-7 -6,-8 -9,-12 -58,-19 -143,-77 -196,-111 -59,-38 -158,-74 -201,-113 -64,-11 -17,-13 -31,30 74,-7 67,37 131,91z"/>
  <path class="fil5" d="M20770 1215c-12,56 15,55 70,83 38,21 63,36 99,50 75,30 172,32 243,61l37 -2 -28 6c-34,-42 -119,-92 -167,-133 -59,-50 -127,-101 -215,-108l-39 43z"/>
  <path class="fil10" d="M16536 9320c-78,28 -78,45 -101,140 42,31 -61,33 75,20 -59,47 -35,32 -47,63 57,-16 30,-13 77,-42 28,-17 43,-21 74,-39 53,-31 106,-63 146,-92 99,-71 230,-94 251,-191 -102,3 -33,0 -76,35l-183 116c-98,69 -239,98 -287,127 19,-69 40,-80 71,-137z"/>
  <path class="fil28" d="M19886 5874c-11,25 -21,29 -42,48 81,-22 25,-24 61,31 13,21 19,54 24,77 4,-3 9,-14 11,-10l179 -186 9 -22c-21,-70 -66,-77 -127,-40 -39,25 -67,66 -115,102z"/>
  <path class="fil36" d="M21796 3600c-78,21 -99,80 -229,90 21,-56 18,-27 -6,-85 78,-5 98,3 142,6 49,2 48,-26 93,-11zm-274 -22l4 22c0,68 -6,115 -32,156 77,-11 199,-23 266,-59 71,-38 -22,31 14,-13 80,-97 -58,40 22,-29l0 -55c45,-6 1,17 56,-22 10,-42 6,-6 -17,-24 -78,-1 -84,44 -103,5l-210 19z"/>
  <path class="fil21" d="M11999 9633c7,42 20,37 -12,37l-52 44 188 -33c-24,86 20,22 -40,70 -16,13 -63,22 -114,85l41 5c127,-117 243,-121 263,-215 -75,-68 -212,-21 -274,7z"/>
  <path class="fil33" d="M13836 9740c-32,28 -9,-30 -25,38 0,1 0,43 0,54l78 6c8,-25 23,-90 51,-80 6,-67 -3,-136 6,-199 10,-67 29,-47 44,-114 -194,49 -89,155 -154,295z"/>
  <path class="fil9" d="M21076 1470c30,16 82,32 95,64l21 30c24,-43 -10,-8 37,-29l54 18c0,-54 -31,-71 168,-83 -89,-62 -121,23 -167,-68l-65 5 -37 2c-102,1 -113,-42 -181,26 59,13 36,-4 75,35z"/>
  <path class="fil41" d="M19000 2170c39,-8 93,-69 130,-103 55,-51 104,-82 142,-120 -14,-51 10,-23 -23,-44 -134,-27 -250,178 -295,267 25,11 -44,32 46,0z"/>
  <path class="fil9" d="M15342 9802c78,-24 20,-10 42,8l-13 97 59 -12c34,-72 -4,-111 75,-157 3,-27 -5,-21 21,-46 38,-37 22,-19 62,-37l71 -53c-6,-44 9,-21 -13,-41 -90,51 -184,61 -252,149 -31,41 -37,53 -52,92z"/>
  <path class="fil55" d="M15371 8068c40,16 18,4 58,17 22,-28 22,-7 32,-82 -5,40 18,40 69,36l136 -246 -58 -4 -165 166c-75,55 -63,57 -72,113z"/>
  <path class="fil14" d="M15539 7468l-268 198c-87,64 -167,155 -211,276l29 -43c62,-82 186,-165 291,-243l214 -184c31,-29 18,-18 33,-41 -50,14 -36,14 -88,37z"/>
  <path class="fil15" d="M20606 1188c-77,10 -54,11 -139,-2 9,112 5,130 117,150l3 25c40,53 14,30 80,42 19,-28 12,-6 25,-49l2 -49c-14,-51 16,-44 -46,-36l-42 -81z"/>
  <path class="fil2" d="M19906 5471c52,6 24,8 49,85l-55 -11 0 31 50 -1c53,-58 51,-42 111,-91 43,-35 50,-59 96,-98 -7,-50 -14,-124 -137,-29l-114 114z"/>
  <path class="fil28" d="M20046 1420c4,3 10,2 12,8l167 114 109 -36 -64 -87c-2,-3 -5,-7 -6,-10 -3,-5 -14,-43 -16,-52 -45,3 -89,1 -132,12 -70,17 -61,40 -70,51z"/>
  <path class="fil56" d="M11381 10347c-83,24 -31,22 -96,38l-13 59c-120,45 -27,-127 -102,-127 -22,174 8,132 28,222l181 -7c-2,-4 -7,-9 -8,-10 -20,-35 -6,-11 4,-46 14,-47 9,-81 6,-129z"/>
  <path class="fil44" d="M11334 10310l43 -14 138 -6 -72 -154c-180,31 -70,157 -217,166l4 88c79,-42 30,-34 104,-80z"/>
  <path class="fil57" d="M13324 9576l-20 50c69,43 85,5 102,83 3,4 7,8 9,11l21 32c41,58 53,50 135,47 -22,-45 4,-10 -33,-50 -102,-111 -84,-32 -89,-247l-59 15c-26,27 -32,44 -66,59z"/>
  <path class="fil51" d="M15081 7963c-41,51 -56,52 -88,93 -25,34 -36,60 -58,101l-17 51c7,-3 18,-15 21,-9l74 -40c41,-8 41,-25 70,-63l190 -263c-35,29 -155,121 -192,130z"/>
  <path class="fil57" d="M20541 1092l15 34c25,8 -1,-6 27,11 3,1 7,5 9,6l125 83 53 -11 39 -43c12,-48 -11,-42 -61,-69 -39,-20 -46,-27 -81,-42l-117 -14c-23,23 -39,-41 -9,45z"/>
  <path class="fil19" d="M20342 1633c45,57 259,100 329,49 12,50 -7,2 35,22l-2 -49 42 -23c-55,-28 -45,43 -45,-29 -3,-2 -14,-9 -17,-11 -28,-17 -5,-4 -42,-23 33,54 31,26 37,82 -60,-3 -134,-30 -165,-81l49 -37 -62 -1c-16,-55 -11,-48 -67,-63 25,73 33,37 46,87 13,46 -11,29 21,94 -84,13 -72,-8 -159,-17z"/>
  <path class="fil36" d="M13761 9158c121,-40 314,-214 414,-302 56,-49 36,-10 54,-80 -145,38 27,-22 -173,110 -25,16 -264,218 -295,272z"/>
  <path class="fil44" d="M20541 1092c-30,-86 -14,-22 9,-45l117 14 0 -34 -20 -10c-42,-11 -80,-27 -115,-33 -45,-8 -75,-1 -121,-15 -105,-32 -85,-47 -235,-39 28,30 -5,10 34,32l152 45c37,10 56,18 85,34l94 51z"/>
  <path class="fil58" d="M22250 7027c189,11 340,54 572,48 -80,-56 -488,-100 -574,-104l2 56z"/>
  <path class="fil59" d="M14832 8281c-120,82 -105,64 -179,166l-22 40 61 -8c91,-73 274,-235 321,-320l-74 40c-3,-6 -14,6 -21,9l17 -51 -63 64c-21,38 3,30 -40,60z"/>
  <path class="fil46" d="M11935 9714c-34,53 -95,31 -118,153l152 -31c51,-63 98,-72 114,-85 60,-48 16,16 40,-70l-188 33z"/>
  <path class="fil21" d="M14829 8464c-2,22 8,7 -15,29 -5,6 -30,24 -39,30 -32,23 -56,40 -75,63 -19,42 -3,15 -21,43 -12,19 -2,4 -24,30l215 -160c89,-75 61,-1 113,-38l14 -14c61,-68 50,-35 39,-72 20,-23 13,-14 29,-31l18 -62c-74,25 -67,50 -124,91 -15,11 -44,27 -58,38 -37,29 -23,48 -72,53z"/>
  <path class="fil21" d="M20717 1226l72 121c36,39 69,32 95,52 129,71 76,24 192,71 -39,-39 -16,-22 -75,-35 68,-68 79,-25 181,-26 -71,-29 -168,-31 -243,-61 -36,-14 -61,-29 -99,-50 -55,-28 -82,-27 -70,-83l-53 11z"/>
  <path class="fil22" d="M21340 3856c62,3 114,-71 154,-100 26,-41 32,-88 32,-156l-71 2 -4 86c-184,119 -63,95 -167,150 57,72 18,21 56,18z"/>
  <path class="fil10" d="M16330 9606c-16,43 -13,29 -73,81 -98,85 -38,42 -72,112 -19,38 -37,37 -65,71l170 -70c26,-116 106,-171 173,-257l-51 -5 -39 64 -43 4z"/>
  <path class="fil13" d="M20516 6066l50 -38 20 -57 -52 -61c-76,29 -176,95 -162,192 74,8 83,7 108,-66l36 30z"/>
  <path class="fil17" d="M19501 882c-57,-5 -52,-35 -61,-85l40 -28c1,-19 0,-71 2,-84 9,-82 -6,-16 22,-53l-51 -29 -42 -3 18 25c20,45 -70,306 -79,343 42,-11 46,-13 81,-34 2,-1 31,-18 32,-19l38 -33z"/>
  <path class="fil41" d="M14362 9623l-67 252 -25 71c87,-18 49,-59 129,-136 8,-44 5,-86 15,-124 27,-101 32,-55 -15,-107 -15,30 -19,27 -37,44z"/>
  <path class="fil7" d="M20972 1551c26,23 1,8 49,36 8,5 20,11 30,16 52,25 34,20 104,27 1,-5 2,-17 4,-14l22 -40c2,-3 7,-8 11,-12l-21 -30c-13,-32 -65,-48 -95,-64 -116,-47 -63,0 -192,-71l0 88 110 -25c56,87 149,72 157,141 -76,-8 -13,-1 -81,-38 -43,-24 -41,-14 -98,-14z"/>
  <path class="fil31" d="M14792 9731l-10 29 52 -23c-11,92 -37,177 -126,210l4 -39c-42,29 -24,-30 -37,35 53,35 58,11 145,23l-3 -6c26,-95 15,4 35,-100 39,-214 39,-69 86,-227 -121,23 15,-14 -146,98z"/>
  <path class="fil40" d="M20867 5775c35,13 38,-10 21,15l-26 63 50 -4c49,-65 9,-44 89,-71l35 -35c40,-35 53,-50 64,-152l-233 184z"/>
  <path class="fil23" d="M6912 5206l-292 -1 2 -389c134,-1 232,-3 360,17 -50,-69 -289,-46 -378,-28l5 419 263 2c75,-4 16,3 40,-20z"/>
  <path class="fil60" d="M19078 6701l37 8c-38,69 -9,35 1,52l19 -17c2,-1 7,-5 10,-6 3,-1 7,-3 11,-4l182 -24c5,-4 10,-15 13,-12 2,3 8,-8 11,-11 3,-3 18,-18 22,-22 -81,13 -75,26 -130,-10 55,-33 31,-15 51,-81 -58,18 -57,43 -103,65 -72,34 -65,2 -124,62z"/>
  <path class="fil24" d="M17858 5484l-24 -128c53,6 23,7 88,17 -15,-44 -23,-57 -45,-95 -55,-96 -32,-58 -62,-76l-62 119 105 163z"/>
  <path class="fil19" d="M21496 4711c85,8 157,-6 210,-55 -42,-124 -196,-70 -210,55z"/>
  <path class="fil61" d="M12891 10104l59 -41c41,-66 97,-88 128,-163l14 -37c-143,70 -137,114 -191,153 -52,37 -28,4 -69,61 29,36 -4,13 59,27z"/>
  <path class="fil23" d="M20862 5853l-14 53c10,64 0,15 26,34 -32,-124 -8,-30 10,-63l36 88 34 -22c62,-45 77,-52 102,-107 -81,-38 -53,31 -68,-12 -1,-3 -4,0 -9,-2l22 -44c-80,27 -40,6 -89,71l-50 4z"/>
  <path class="fil25" d="M16588 9116l-49 70 0 19c96,-32 136,-53 212,-114 41,-58 83,-75 75,-160 -96,44 -22,143 -238,185z"/>
  <path class="fil25" d="M19305 6574c-20,66 4,48 -51,81 55,36 49,23 130,10 59,-3 27,1 39,-20l-66 -4c17,-37 18,-29 53,-55l67 -79 -112 0c-32,56 -13,22 -32,67l-28 0z"/>
  <path class="fil62" d="M21560 1088c-41,-49 -39,-19 -15,-79 -37,15 -73,-3 -102,-36 -81,-9 -103,-28 -179,-43 3,4 8,5 9,12l38 34c74,60 116,65 148,109l101 3z"/>
  <path class="fil35" d="M20349 6230l-32 -11 17 22c6,13 18,-18 15,85 -64,-13 -95,-35 -121,-86 44,-32 28,-30 86,-16l-14 -22c-74,-22 -76,-23 -125,22 15,84 -8,25 30,61 38,36 148,102 199,109 -10,-30 -41,-143 -55,-164z"/>
  <path class="fil35" d="M19921 6205l27 15c35,-36 74,-61 126,-90 63,-34 113,-25 184,-53l15 -107 -352 235z"/>
  <path class="fil31" d="M20734 1812c2,4 6,6 7,13l49 83c2,5 22,39 25,44 29,54 15,-29 19,68 5,-7 17,-21 21,-15l33 -26 53 -85c-131,29 -58,0 -104,-44l-18 -13c-2,-2 -7,-4 -10,-6l-75 -19z"/>
  <path class="fil9" d="M19065 1153c48,28 49,-14 54,-21l-53 21c-13,-22 -31,11 -21,-72 9,-68 50,-72 56,-195 -125,119 14,65 -101,183l-17 18c-2,2 -6,6 -8,9 -2,2 -5,6 -7,9 -18,30 -11,1 -13,57l110 -9z"/>
  <path class="fil33" d="M17858 5484c4,41 -9,3 5,43 19,56 9,22 26,42 5,-31 3,-47 8,-68 5,-27 9,-28 17,-61 32,36 11,21 66,50l-58 -117c-65,-10 -35,-11 -88,-17l24 128z"/>
  <path class="fil57" d="M14712 9908l-4 39c89,-33 115,-118 126,-210l-52 23c-40,21 -73,101 -70,148z"/>
  <path class="fil63" d="M20282 6167c29,10 7,-5 18,35l14 22 3 -5 32 11 15 -19c3,-6 15,-34 20,-39 -46,-49 -13,-20 -33,-64 -32,-72 7,-30 -48,-50 -43,42 -28,59 -21,109z"/>
  <path class="fil36" d="M21009 5260l305 -188c38,-28 21,-8 39,-49 -88,36 -121,67 -194,110 -71,40 -112,44 -150,127z"/>
  <path class="fil39" d="M15291 9843c-41,59 -24,15 -43,94l123 -30 13 -97c-22,-18 36,-32 -42,-8l-51 41z"/>
  <path class="fil24" d="M21255 5502c116,-21 149,-65 163,-162 -78,32 -36,13 -98,67 -69,62 -37,-10 -65,95z"/>
  <path class="fil28" d="M20642 1569l-79 -36 -49 37c31,51 105,78 165,81 -6,-56 -4,-28 -37,-82z"/>
  <path class="fil47" d="M21796 3600c-45,-15 -44,13 -93,11 -44,-3 -64,-11 -142,-6 24,58 27,29 6,85 130,-10 151,-69 229,-90z"/>
  <path class="fil64" d="M19830 5940c-4,64 1,63 28,109 45,6 48,0 71,-19 -5,-23 -11,-56 -24,-77 -36,-55 20,-53 -61,-31l-14 18z"/>
  <path class="fil9" d="M21269 4554c93,-31 20,-13 45,18l-24 27c-2,2 -7,9 -10,13 60,-22 47,-24 94,-66 31,-28 59,-35 82,-61 23,-67 9,-13 -5,-33 -58,32 -132,48 -182,102z"/>
  <path class="fil36" d="M21336 688c-36,-96 -15,-21 15,-48l79 -2 -16 62 23 0 16 -105 -217 18c51,27 47,46 100,75z"/>
  <path class="fil27" d="M17890 5629c40,27 127,44 181,52 -6,-33 -9,-53 -20,-77 -27,-53 -22,-30 -43,-46 -16,49 -17,16 -51,77l-67 -6z"/>
  <path class="fil22" d="M21159 956l17 -37c-67,-21 -131,-62 -172,-116 -78,-8 -9,-6 -37,24 35,25 115,85 146,125l46 4z"/>
  <path class="fil37" d="M20317 6219l-3 5c-58,-14 -42,-16 -86,16 26,51 57,73 121,86 3,-103 -9,-72 -15,-85l-17 -22z"/>
  <path class="fil22" d="M17902 5610l-12 19 67 6c34,-61 35,-28 51,-77l-6 -37c-51,4 -16,-16 -44,16 -27,-15 -5,-32 -32,9 -7,11 -19,50 -24,64z"/>
  <path class="fil27" d="M21657 966l8 20c59,10 19,9 34,-17 -5,-89 -11,-39 10,-126l-59 19 -14 -4 -20 47 41 61z"/>
  <path class="fil65" d="M21401 1395c16,36 -5,13 33,31 44,-34 17,-18 49,-56 16,-18 27,-26 44,-43l-1 -53 -42 9c-64,108 -84,66 -39,109l-44 3z"/>
  <path class="fil33" d="M21023 1678c14,14 9,24 21,42 -11,23 -20,39 -36,72 65,-21 17,-3 55,-26 96,-59 96,-43 98,-95l-14 8c-29,9 -20,7 -64,23l-60 -24z"/>
  <path class="fil41" d="M17889 5569c-13,69 -9,27 13,41 5,-14 17,-53 24,-64 27,-41 5,-24 32,-9 28,-32 -7,-12 44,-16l-22 -31c-55,-29 -34,-14 -66,-50 -8,33 -12,34 -17,61 -5,21 -3,37 -8,68z"/>
  <path class="fil65" d="M21192 1564c-4,4 -9,9 -11,12l-22 40c-2,-3 -3,9 -4,14l-13 24 5 25 14 -8c49,-11 46,-26 60,-60 13,-15 18,-25 35,-41 -13,-10 -18,-27 -27,-35 -47,21 -13,-14 -37,29z"/>
  <path class="fil66" d="M21001 5778l-22 44c5,2 8,-1 9,2 15,43 -13,-26 68,12l9 7 20 -39c4,-41 4,-11 -4,-71l-45 10 -35 35z"/>
  <path class="fil36" d="M11102 9935c-1,7 -5,75 -4,77 32,78 -10,16 58,44l13 -119 -67 -2z"/>
  <path class="fil33" d="M21336 688c9,7 24,24 37,28 63,16 32,3 41,-16l16 -62 -79 2c-30,27 -51,-48 -15,48z"/>
  <path class="fil60" d="M12950 10063c49,-17 9,8 56,-25 16,-11 29,-27 43,-41 45,-48 44,-41 61,-104l-32 7c-31,75 -87,97 -128,163z"/>
  <path class="fil67" d="M4999 4789c12,61 4,64 46,96l48 -79c-27,-11 -24,-37 -56,5 0,-47 6,-1 -38,-22z"/>
  <path class="fil68" d="M15780 5759l19 -70 -72 -11c-21,85 -8,70 53,81z"/>
  <path class="fil66" d="M20706 1704l64 1 15 -27c-8,-34 2,-59 -39,-46l-42 23 2 49z"/>
  <path class="fil44" d="M20802 5847l46 59 14 -53 26 -63c17,-25 14,-2 -21,-15l-65 72z"/>
  <path class="fil69" d="M21601 1043c51,-26 42,-6 64,-57l-8 -20c-63,20 -90,32 -76,88l20 -11z"/>
  <path class="fil45" d="M14620 8542l72 -63 -61 8 22 -40c-42,36 -40,27 -76,79 25,43 -21,12 43,16z"/>
  <path class="fil32" d="M19900 5545l55 11c-25,-77 3,-79 -49,-85l-11 5 5 69z"/>
  <path class="fil64" d="M20874 5940l-15 35 61 -10 -36 -88c-18,33 -42,-61 -10,63z"/>
  <path class="fil15" d="M18876 4316l-13 22c-65,-40 -21,36 -53,-31l19 47 47 -38z"/>
  <rect class="fil0 str0" x="290" y="689" width="16221" height="3253"/>
 </g>
</svg>
