<?xml version="1.0" encoding="UTF-8"?>
<!DOCTYPE svg PUBLIC "-//W3C//DTD SVG 1.1//EN" "http://www.w3.org/Graphics/SVG/1.1/DTD/svg11.dtd">
<!-- Creator: CorelDRAW X7 -->
<svg xmlns="http://www.w3.org/2000/svg" xml:space="preserve" width="26.2466mm" height="13.3774mm" version="1.1" style="shape-rendering:geometricPrecision; text-rendering:geometricPrecision; image-rendering:optimizeQuality; fill-rule:evenodd; clip-rule:evenodd"
viewBox="0 0 1727 880"
 xmlns:xlink="http://www.w3.org/1999/xlink">
 <defs>
  <style type="text/css">
   <![CDATA[
    .fil0 {fill:#FEFEFE}
    .fil2 {fill:#F4F6F5}
    .fil6 {fill:#71A9AC}
    .fil3 {fill:#6AACAB}
    .fil5 {fill:#68AAA8}
    .fil8 {fill:#68AAA5}
    .fil4 {fill:#434A7D}
    .fil7 {fill:#3F467E}
    .fil1 {fill:#3D457A}
   ]]>
  </style>
   <clipPath id="id0">
    <rect width="1727" height="880"/>
   </clipPath>
 </defs>
 <g id="Слой_x0020_1">
  <metadata id="CorelCorpID_0Corel-Layer"/>
  <g style="clip-path:url(#id0)">
   <image id="Layer_x0020_1" x="0" y="0" width="1727" height="880" xlink:href="i.svg_Images\i.svg_ImgID1.png"/>
  </g>
  <g id="_1302963840">
   <path class="fil0" d="M1409 563l37 0 1 187 -36 1 -2 -188zm-274 0l36 -1 1 189 -36 0 -1 -188zm-504 98l80 -2 0 34 -78 0 -2 -32zm619 90l-36 0 -2 -189 37 1 2 69 78 1 3 -70 37 0 1 187 -38 1 -1 -81 -80 0 -1 81zm-323 -1l-2 -31c53,-23 34,-26 41,-155l127 -2 1 189 -36 1 -2 -152 -51 -2c-14,63 14,165 -78,152zm-328 -45c3,26 6,37 -16,45 -18,7 -45,6 -63,1 -126,-32 -69,-244 75,-182l1 38c-51,-13 -111,-16 -106,56 5,62 64,61 109,42zm966 -59c12,35 70,71 81,106 -93,-2 -55,-44 -120,-79l0 77 -38 1 -1 -188 38 0 1 64c23,-9 18,-14 45,-42 23,-24 18,-24 63,-23 -12,27 -49,58 -69,84zm-732 1c8,28 69,71 82,104 -48,0 -46,3 -92,-53l-28 -26 -1 77 -38 2 -1 -185 39 -3 1 64c25,-14 49,-45 62,-64l45 -1 -69 85zm-610 -17c-2,0 -16,0 -17,1 -16,2 -5,-2 -17,4l-1 34c1,1 4,0 5,2 0,2 3,2 4,3 1,0 3,1 4,2l20 4 2 110c-155,8 -143,14 -143,-199 0,-110 14,-93 193,-93 104,0 91,9 91,160 0,109 18,133 -97,133l-2 -112 45 -1 2 -46c-21,-2 -31,1 -46,-8l1 -24 44 -5 1 -43c-67,-8 -88,14 -89,78zm1293 -266c-17,-6 -7,3 -15,-13 11,-12 -1,-10 20,-14l112 0c2,0 21,1 22,2 16,5 6,-3 14,12 -8,15 -1,10 -19,14l-134 -1zm-248 -208c4,-21 -1,-8 8,-20l29 0 -1 188 -36 0 0 -168zm-278 168c-3,-32 -2,-64 -2,-96 0,-33 -5,-73 9,-92l23 0c8,15 7,29 6,48l-1 139 -35 1zm-157 -189l36 0 2 153 76 2 13 28 -129 5 2 -188zm-706 -76c32,-11 118,-9 157,-5 42,4 78,37 87,76 5,24 4,132 2,159 -5,41 -32,76 -70,87 -20,6 -133,6 -158,3 -41,-5 -75,-37 -84,-76 -5,-20 -5,-134 -2,-157 4,-44 29,-74 68,-87zm940 77c43,-4 50,21 70,48 13,17 31,55 53,60 0,-36 -6,-85 8,-108l22 0 7 92c0,32 1,64 -1,96 -66,4 -73,-86 -122,-113 1,32 6,86 -4,115l-33 -1 0 -189zm422 142c0,30 5,42 -25,48 -21,5 -47,2 -64,-4 -102,-40 -72,-212 60,-189 31,6 26,14 26,44 -23,1 -48,-14 -74,-2 -50,24 -64,145 77,103zm-690 37c-71,36 -146,-4 -149,-81 -3,-82 71,-122 146,-92l1 37c-27,-3 -46,-18 -76,-4 -43,21 -44,99 11,113 35,9 46,-5 68,-12l-1 39zm-214 -31c6,-39 -20,-34 -53,-46 -28,-11 -44,-20 -43,-54 1,-63 84,-59 128,-37l-1 35c-28,-5 -69,-32 -87,2 12,31 30,12 72,39 57,37 29,113 -59,104 -50,-4 -56,-10 -54,-56 38,12 51,31 97,13zm-585 596l1727 0 0 -880 -1705 0 0 435 -22 0 0 445z"/>
   <path class="fil1" d="M223 630c1,-64 22,-86 89,-78l-1 43 -44 5 -1 24c15,9 25,6 46,8l-2 46 -45 1 2 112c115,0 97,-24 97,-133 0,-151 13,-160 -91,-160 -179,0 -193,-17 -193,93 0,213 -12,207 143,199l-2 -110 -20 -4c-1,-1 -3,-2 -4,-2 -1,-1 -4,-1 -4,-3 -1,-2 -4,-1 -5,-2l1 -34c12,-6 1,-2 17,-4 1,-1 15,-1 17,-1z"/>
   <path class="fil2" d="M140 240c-28,-115 133,-143 152,-43 22,114 -129,137 -152,43zm1 -151c-39,12 -51,34 -52,78 -1,29 -3,102 3,127 7,34 32,53 75,55 106,5 173,12 176,-87 0,-31 3,-100 -4,-127 -9,-36 -37,-49 -77,-50 -32,-1 -94,-4 -121,4z"/>
   <path class="fil3" d="M141 89c27,-8 89,-5 121,-4 40,1 68,14 77,50 7,27 4,96 4,127 -3,99 -70,92 -176,87 -43,-2 -68,-21 -75,-55 -6,-25 -4,-98 -3,-127 1,-44 13,-66 52,-78zm-14 -30c-39,13 -64,43 -68,87 -3,23 -3,137 2,157 9,39 43,71 84,76 25,3 138,3 158,-3 38,-11 65,-46 70,-87 2,-27 3,-135 -2,-159 -9,-39 -45,-72 -87,-76 -39,-4 -125,-6 -157,5z"/>
   <path class="fil3" d="M1067 325l33 1c10,-29 5,-83 4,-115 49,27 56,117 122,113 2,-32 1,-64 1,-96l-7 -92 -22 0c-14,23 -8,72 -8,108 -22,-5 -40,-43 -53,-60 -20,-27 -27,-52 -70,-48l0 189z"/>
   <polygon class="fil1" points="1251,670 1331,670 1332,751 1370,750 1369,563 1332,563 1329,633 1251,632 1249,563 1212,562 1214,751 1250,751 "/>
   <path class="fil1" d="M927 750c92,13 64,-89 78,-152l51 2 2 152 36 -1 -1 -189 -127 2c-7,129 12,132 -41,155l2 31z"/>
   <path class="fil4" d="M902 562l-45 1c-13,19 -37,50 -62,64l-1 -64 -39 3 1 185 38 -2 1 -77 28 26c46,56 44,53 92,53 -13,-33 -74,-76 -82,-104l69 -85z"/>
   <path class="fil1" d="M1565 646c20,-26 57,-57 69,-84 -45,-1 -40,-1 -63,23 -27,28 -22,33 -45,42l-1 -64 -38 0 1 188 38 -1 0 -77c65,35 27,77 120,79 -11,-35 -69,-71 -81,-106z"/>
   <path class="fil5" d="M585 284c-46,18 -59,-1 -97,-13 -2,46 4,52 54,56 88,9 116,-67 59,-104 -42,-27 -60,-8 -72,-39 18,-34 59,-7 87,-2l1 -35c-44,-22 -127,-26 -128,37 -1,34 15,43 43,54 33,12 59,7 53,46z"/>
   <path class="fil5" d="M1489 278c-141,42 -127,-79 -77,-103 26,-12 51,3 74,2 0,-30 5,-38 -26,-44 -132,-23 -162,149 -60,189 17,6 43,9 64,4 30,-6 25,-18 25,-48z"/>
   <path class="fil1" d="M599 705c-45,19 -104,20 -109,-42 -5,-72 55,-69 106,-56l-1 -38c-144,-62 -201,150 -75,182 18,5 45,6 63,-1 22,-8 19,-19 16,-45z"/>
   <path class="fil3" d="M799 315l1 -39c-22,7 -33,21 -68,12 -55,-14 -54,-92 -11,-113 30,-14 49,1 76,4l-1 -37c-75,-30 -149,10 -146,92 3,77 78,117 149,81z"/>
   <path class="fil6" d="M197 173c62,-31 93,68 38,89 -57,23 -97,-59 -38,-89zm-57 67c23,94 174,71 152,-43 -19,-100 -180,-72 -152,43z"/>
   <polygon class="fil3" points="831,323 960,318 947,290 871,288 869,135 833,135 "/>
   <path class="fil2" d="M197 173c-59,30 -19,112 38,89 55,-21 24,-120 -38,-89z"/>
   <path class="fil5" d="M990 324l35 -1 1 -139c1,-19 2,-33 -6,-48l-23 0c-14,19 -9,59 -9,92 0,32 -1,64 2,96z"/>
   <polygon class="fil7" points="1136,751 1172,751 1171,562 1135,563 "/>
   <path class="fil5" d="M1268 324l36 0 1 -188 -29 0c-9,12 -4,-1 -8,20l0 168z"/>
   <polygon class="fil4" points="1411,751 1447,750 1446,563 1409,563 "/>
   <path class="fil8" d="M1501 351c8,16 -2,7 15,13l134 1c18,-4 11,1 19,-14 -8,-15 2,-7 -14,-12 -1,-1 -20,-2 -22,-2l-112 0c-21,4 -9,2 -20,14z"/>
   <polygon class="fil4" points="633,693 711,693 711,659 631,661 "/>
  </g>
 </g>
</svg>
