<?xml version="1.0" encoding="UTF-8"?>
<!DOCTYPE svg PUBLIC "-//W3C//DTD SVG 1.1//EN" "http://www.w3.org/Graphics/SVG/1.1/DTD/svg11.dtd">
<!-- Creator: CorelDRAW X7 -->
<svg xmlns="http://www.w3.org/2000/svg" xml:space="preserve" width="77.5222mm" height="17.8189mm" version="1.1" style="shape-rendering:geometricPrecision; text-rendering:geometricPrecision; image-rendering:optimizeQuality; fill-rule:evenodd; clip-rule:evenodd"
viewBox="0 0 68018 15634"
 xmlns:xlink="http://www.w3.org/1999/xlink">
 <defs>
  <style type="text/css">
   <![CDATA[
    .fil7 {fill:#FEFEFE}
    .fil8 {fill:#FFFEFA}
    .fil2 {fill:#FEFAFC}
    .fil6 {fill:#F9FCFE}
    .fil4 {fill:#FAFCF8}
    .fil5 {fill:#F7F5F5}
    .fil0 {fill:#CF4541}
    .fil1 {fill:#1DABA2}
    .fil3 {fill:#3B467D}
    .fil9 {fill:#FEFEFE;fill-rule:nonzero}
   ]]>
  </style>
 </defs>
 <g id="Слой_x0020_1">
  <metadata id="CorelCorpID_0Corel-Layer"/>
  <path class="fil0" d="M10640 4387l-475 -3 4 -1042c672,1 515,-1828 520,-2378l1947 1 2 2304c15,9 37,7 43,28 7,22 36,23 45,29l152 1058 -458 -9 -2 -585 -1775 5 -3 592zm39905 -868l-33 1088 -542 -2 0 -2898c304,1 340,-35 477,65l142 99c1068,-977 1925,1136 920,1799 -360,238 -780,91 -964,-151zm-36177 -547c-287,-1625 1817,-1749 2053,-515 124,650 -234,1177 -774,1307 -631,152 -1180,-228 -1279,-792zm-1224 -375l1065 0 -1 453 -1063 -1 -1 -452zm24436 -73l2191 0 -2 451 -2188 -1 -1 -450zm-8741 875l183 -273 532 80c-443,1063 -2151,693 -1833,-816 205,-975 1860,-1267 1877,510l-1357 4c35,396 204,511 598,495zm-4752 4l183 -274 528 79c-448,1041 -2147,696 -1834,-820 201,-972 1869,-1249 1876,509l-1356 5c36,400 201,515 603,501zm28718 372l-533 19 -3 -2088 535 10 3 734 766 0 0 -727 535 -20 2 2089 -535 -12 -3 -957 -763 2 -4 950zm-19984 -1l-535 19 0 -2085 534 10 2 734 768 -2 0 -727 533 -16 3 2080 -538 -5 1 -957 -767 -1 -1 950zm-2377 0l-535 16 -1 -2083 535 11 2 734 769 -1 -2 -729 534 -15 0 2079 -535 -4 1 -958 -768 0 0 950zm5910 -2067l2 2084 -552 -2 0 -815c-429,25 -504,195 -827,800l-638 10c135,-295 345,-584 587,-783 -68,-73 -41,-51 -137,-125 -472,-362 -315,-855 -97,-1022 337,-260 1194,-148 1662,-147zm12514 968l0 297 0 445 0 358 -538 18 1 -2086 1370 0 -3 372 -829 2 -1 594zm-23926 -635l10 -332c1073,0 489,592 1060,817l1 -802 536 -18 1 791c482,-38 101,-925 1054,-755l-3 265c-227,174 -202,-14 -361,273 -126,226 -126,258 -255,446 340,278 528,620 671,1063l-542 -7c-314,-609 -221,-832 -564,-853l0 863 -535 -10 -3 -880c-304,136 -422,538 -540,879l-561 -2c385,-906 390,-694 645,-1103 -444,-448 60,-390 -614,-635zm-3949 -333l1838 0 1 377 -652 -3 -2 1675 -538 27 1 -1702 -649 0 1 -374zm-1329 357c-538,1103 407,1882 683,980l519 82c-349,1288 -2432,629 -1819,-941 266,-680 1408,-799 1773,-30 -121,89 229,57 -465,135 -127,-178 -52,-193 -249,-257 -102,-33 -393,-1 -442,31zm-11183 -368l-537 -137c197,-596 799,-834 1492,-600 526,178 786,763 103,1315 1080,550 360,1914 -1012,1541 -410,-112 -496,-235 -622,-592l496 -181c92,192 158,310 376,357 712,154 805,-480 588,-731 -107,-124 -372,-134 -589,-153l0 -349c442,-52 565,-79 597,-531l-218 -282c-361,-1 -472,-73 -674,343zm8564 352c537,-536 1419,-434 1655,349 423,1401 -1606,1951 -1956,701 -140,-500 -256,-1805 637,-2068 187,-55 1067,-138 1286,-138 -180,1024 -1582,-214 -1622,1156zm-11628 -1068l626 -17 653 1466 592 -1454 560 2c-161,498 -498,1182 -727,1685 -256,560 -489,1461 -1272,1143l-47 -372c492,-43 498,27 639,-387l-1024 -2066zm-5417 4654l135 -1 16 -656 60914 0 -1 -4975 -61064 -2 0 5634z"/>
  <path class="fil1" d="M46354 10402l-1 -1116 -1 -79c618,0 1774,-196 1766,600 -7,789 -1049,596 -1764,595zm0 -2825c649,0 1469,-130 1605,337 240,825 -1157,629 -1604,629l0 -520 -1 -446zm-837 -297l-3 3789 1807 -1c776,0 1256,-75 1550,-676 239,-489 205,-1302 -615,-1523l352 -373c400,-519 95,-1192 -335,-1425 -485,-263 -2059,-160 -2757,-160l1 369z"/>
  <path class="fil1" d="M64037 7577l4 1116c-682,-2 -1640,182 -1687,-531 -53,-796 1028,-586 1683,-585zm-1572 1683l-1300 1777 1020 37c152,-318 490,-794 700,-1083 331,-455 418,-634 1153,-630l1 1706 847 0 -1 -4157c-863,8 -2547,-191 -3065,310 -263,255 -431,783 -271,1286 164,516 494,551 916,754z"/>
  <path class="fil1" d="M32539 10403l18 635c1869,180 1378,-635 1466,-3460l1220 2 5 3453c213,69 614,33 852,32l-1 -4152 -2926 -1 9 3118c-36,438 -233,370 -643,373z"/>
  <polygon class="fil1" points="57477,11069 58319,11067 58313,9210 59951,9210 59953,11065 60800,11068 60799,6908 59950,6913 59953,8544 58320,8544 58313,6910 57475,6911 "/>
  <polygon class="fil1" points="53393,11069 54231,11067 54227,9213 55868,9208 55868,11065 56715,11068 56715,6909 55869,6912 55868,8545 54231,8544 54228,6910 53387,6911 "/>
  <polygon class="fil1" points="23527,11070 24363,11065 24365,9209 26002,9210 26005,11067 26849,11068 26850,6911 26003,6911 26003,8541 24364,8545 24365,6910 23524,6909 "/>
  <path class="fil1" d="M4087 10401l16 635c1793,222 1456,-724 1464,-3456l1229 -5 1 3460 849 37 0 -4158 -2921 -2 4 3118c-36,451 -218,372 -642,371z"/>
  <polygon class="fil1" points="27601,11071 30769,11066 30764,10402 28450,10402 28451,9215 30540,9212 30530,8541 28450,8545 28450,7579 30695,7576 30691,6910 27603,6912 "/>
  <polygon class="fil1" points="16014,11066 19179,11067 19177,10398 16867,10401 16861,9214 18942,9210 18940,8546 16864,8544 16863,7581 19108,7576 19103,6909 16017,6912 "/>
  <path class="fil1" d="M9462 9403c96,-273 399,-1164 560,-1394l526 1431 -1086 -37zm-1512 1660l905 7 344 -965 1634 -2 363 955 912 11 -1687 -4155 -843 -3 -1628 4152z"/>
  <path class="fil1" d="M50960 8004l534 1432 -1103 -9c95,-278 386,-1172 569,-1423zm-2078 3058l898 7 348 -963 1501 -6c336,69 164,400 520,951l887 16 -1683 -4152 -844 -5 -1627 4152z"/>
  <path class="fil1" d="M38396 11070l845 -5 5 -1757c664,17 781,1206 1240,1749l939 4c-312,-718 -726,-1723 -1365,-2128 782,-465 153,-1430 1354,-1429l-7 -592c-2049,-32 -1078,1657 -2162,1758l-1 -1758 -852 -2 4 4160z"/>
  <path class="fil1" d="M20578 7577c680,-3 1495,-127 1461,661 -31,714 -788,610 -1463,601l2 -1262zm-850 3493l850 -2 -2 -1556c633,-18 1333,61 1797,-215 393,-235 659,-800 499,-1490 -278,-1201 -1871,-891 -3143,-898l-1 4161z"/>
  <path class="fil1" d="M12237 7893l762 191c412,-509 558,-717 1282,-322l66 572c-365,355 -307,308 -880,382l2 548c314,36 632,22 834,207 222,202 206,541 4,749 -196,201 -552,229 -836,157 -335,-84 -447,-281 -531,-568l-769 206c316,1275 1607,1298 2467,983 400,-147 730,-546 716,-1115 -15,-632 -379,-763 -765,-1016 262,-249 632,-438 614,-988 -41,-1220 -2522,-1615 -2966,14z"/>
  <path class="fil1" d="M42080 10509l8 581c704,147 1045,31 1306,-387 293,-471 1576,-3373 1725,-3795l-858 4 -837 2117 -982 -2114 -922 -4c329,696 657,1277 1003,1972 116,234 472,799 489,1001 16,188 -125,436 -233,507 -162,108 -468,75 -699,118z"/>
  <path class="fil2" d="M11011 3325c186,-597 212,-1229 226,-1909l843 23 0 1895 -1069 -9zm-368 470l1775 -5 2 585 458 9 -152 -1058c-9,-6 -38,-7 -45,-29 -6,-21 -28,-19 -43,-28l-2 -2304 -1947 -1c-5,550 152,2379 -520,2378l-4 1042 475 3 3 -592z"/>
  <polygon class="fil1" points="36851,11064 37718,11060 37714,6932 36852,6910 "/>
  <path class="fil3" d="M41645 14012c22,-117 292,-112 433,-120 456,471 482,846 -1,1337 -962,-56 -629,-1014 -432,-1217zm253 1587c1718,5 1270,-2903 -620,-1815 175,-1285 1367,-39 1619,-1080 -246,2 -1179,89 -1371,151 -963,307 -997,2741 372,2744z"/>
  <path class="fil4" d="M26012 2525c-571,-225 13,-817 -1060,-817l-10 332c674,245 170,187 614,635 -255,409 -260,197 -645,1103l561 2c118,-341 236,-743 540,-879l3 880 535 10 0 -863c343,21 250,244 564,853l542 7c-143,-443 -331,-785 -671,-1063 129,-188 129,-220 255,-446 159,-287 134,-99 361,-273l3 -265c-953,-170 -572,717 -1054,755l-1 -791 -536 18 -1 802z"/>
  <path class="fil4" d="M17528 3394c-450,-420 -431,-879 0,-1293 466,-38 664,174 664,648 1,465 -199,701 -664,645zm-483 -1346c40,-1370 1442,-132 1622,-1156 -219,0 -1099,83 -1286,138 -893,263 -777,1568 -637,2068 350,1250 2379,700 1956,-701 -236,-783 -1118,-885 -1655,-349z"/>
  <path class="fil2" d="M50802 3401c-458,-453 -382,-946 -14,-1388l339 4c415,484 382,903 9,1398l-334 -14zm-257 118c184,242 604,389 964,151 1005,-663 148,-2776 -920,-1799l-142 -99c-137,-100 -173,-64 -477,-65l0 2898 542 2 33 -1088z"/>
  <path class="fil5" d="M8481 1696c202,-416 313,-344 674,-343l218 282c-32,452 -155,479 -597,531l0 349c217,19 482,29 589,153 217,251 124,885 -588,731 -218,-47 -284,-165 -376,-357l-496 181c126,357 212,480 622,592 1372,373 2092,-991 1012,-1541 683,-552 423,-1137 -103,-1315 -693,-234 -1295,4 -1492,600l537 137z"/>
  <path class="fil3" d="M66732 13985c252,-137 418,-94 721,-94l3 522c-433,1 -815,115 -724,-428zm-170 810l-602 784c817,37 570,95 949,-447 183,-263 167,-331 543,-347l2 817 564 -18 -2 -2033c-340,-56 -1395,-94 -1641,79 -257,181 -416,685 11,1028l176 137z"/>
  <path class="fil4" d="M35805 2081l-1 516c-448,4 -810,100 -730,-469l731 -47zm-1113 -227c-218,167 -375,660 97,1022 96,74 69,52 137,125 -242,199 -452,488 -587,783l638 -10c323,-605 398,-775 827,-800l0 815 552 2 -2 -2084c-468,-1 -1325,-113 -1662,147z"/>
  <path class="fil3" d="M52855 14932c217,-266 395,-214 701,-280l-57 445c-280,144 -527,284 -644,-165zm-506 -892l467 69c270,-455 678,-436 731,73 -588,187 -1274,142 -1258,825 19,728 854,625 1272,407 148,200 16,193 639,168 -283,-604 107,-1610 -303,-1955 -214,-181 -578,-218 -924,-165 -410,63 -501,202 -624,578z"/>
  <path class="fil4" d="M6441 3046c-141,414 -147,344 -639,387l47 372c783,318 1016,-583 1272,-1143 229,-503 566,-1187 727,-1685l-560 -2 -592 1454 -653 -1466 -626 17 1024 2066z"/>
  <path class="fil3" d="M63570 15526c1143,558 927,-1201 925,-1620l704 -6 -2 1700 562 2 -1 -2080 -1821 1c-6,397 0,793 -1,1189 -3,1061 -471,58 -366,814z"/>
  <path class="fil3" d="M54722 13818c1,302 109,1250 -138,1389 -13,7 -110,39 -121,44l-123 52c2,340 52,280 255,303 856,98 690,-816 688,-1700l705 -6 -2 1701 559 -1 1 -2082 -1822 4 -2 296z"/>
  <path class="fil3" d="M62058 14310c25,-249 124,-329 242,-493 440,15 482,77 553,522l-303 -1 -149 5 -343 -33zm1299 706l-508 -82c-237,322 -118,270 -533,288 -163,-175 -231,-228 -274,-501l1368 -23c-6,-590 -155,-1074 -673,-1214 -1742,-470 -1639,2669 123,2053 329,-115 375,-213 497,-521z"/>
  <path class="fil3" d="M43780 14315c28,-251 124,-333 240,-500 444,16 501,88 563,532l-803 -32zm1304 700l-510 -81c-240,327 -111,272 -535,288 -148,-160 -234,-246 -268,-496l1365 -27c-13,-598 -150,-1073 -673,-1214 -1731,-469 -1628,2675 122,2053 339,-121 367,-210 499,-523z"/>
  <path class="fil5" d="M28245 2511c44,-328 92,-323 281,-486 435,-14 462,93 533,500l-814 -14zm594 888c-394,16 -563,-99 -598,-495l1357 -4c-17,-1777 -1672,-1485 -1877,-510 -318,1509 1390,1879 1833,816l-532 -80 -183 273z"/>
  <polygon class="fil3" points="59311,15569 59869,15602 59868,13894 60578,13890 60580,15566 61140,15608 61136,13522 59309,13528 "/>
  <path class="fil4" d="M23488 2513c42,-336 87,-327 284,-491 437,-13 465,94 533,503l-459 3 -358 -15zm599 890c-402,14 -567,-101 -603,-501l1356 -5c-7,-1758 -1675,-1481 -1876,-509 -313,1516 1386,1861 1834,820l-528 -79 -183 274z"/>
  <path class="fil5" d="M15211 3399c-457,-418 -456,-956 1,-1372 514,-31 693,188 681,722 -11,498 -196,673 -682,650zm-843 -427c99,564 648,944 1279,792 540,-130 898,-657 774,-1307 -236,-1234 -2340,-1110 -2053,515z"/>
  <polygon class="fil2" points="52809,2825 53572,2823 53575,3780 54110,3792 54108,1703 53573,1723 53573,2450 52807,2450 52804,1716 52269,1706 52272,3794 52805,3775 "/>
  <polygon class="fil2" points="32822,2824 33589,2825 33588,3782 34126,3787 34123,1707 33590,1723 33590,2450 32822,2452 32820,1718 32286,1708 32286,3793 32821,3774 "/>
  <polygon class="fil2" points="30444,2824 31212,2824 31211,3782 31746,3786 31746,1707 31212,1722 31214,2451 30445,2452 30443,1718 29908,1707 29909,3790 30444,3774 "/>
  <path class="fil3" d="M57523 15203l2 -395c381,-34 564,-87 820,95l30 213c-71,41 -44,59 -151,90 -83,23 -118,21 -201,26 -168,11 -335,-5 -500,-29zm-559 323l1 73c674,0 1664,126 1892,-287 587,-1061 -1206,-907 -1332,-927l-2 -863 -558 -2 -1 2006z"/>
  <path class="fil3" d="M50463 15582l567 12 -3 -883c415,168 330,498 602,874l548 19c-98,-240 -198,-380 -312,-610 -174,-350 -166,-243 -376,-506 395,-348 29,-467 627,-629l-1 -304c-936,-185 -524,545 -1088,784l0 -811 -565 2 1 2052z"/>
  <path class="fil3" d="M50216 14935l-526 -84c-101,369 -102,358 -543,377 -255,-264 -403,-590 -255,-1102 79,-275 392,-530 806,-20l493 -81c-197,-356 -388,-693 -1148,-561 -503,87 -753,552 -744,1097 21,1271 1702,1405 1917,374z"/>
  <path class="fil5" d="M19664 2064c49,-32 340,-64 442,-31 197,64 122,79 249,257 694,-78 344,-46 465,-135 -365,-769 -1507,-650 -1773,30 -613,1570 1470,2229 1819,941l-519 -82c-276,902 -1221,123 -683,-980z"/>
  <path class="fil6" d="M46354 10402c715,1 1757,194 1764,-595 8,-796 -1148,-600 -1766,-600l1 79 1 1116z"/>
  <path class="fil3" d="M45366 14040l476 80c83,-217 282,-470 522,-233 323,320 -168,441 -292,525l0 223c198,141 215,50 412,225 -18,383 -71,355 -457,369 -95,-100 -166,-180 -266,-285l-474 59c270,728 1038,809 1728,248l19 -493 -339 -272c608,-638 16,-1105 -636,-1034 -403,44 -573,250 -693,588z"/>
  <path class="fil6" d="M64037 7577c-655,-1 -1736,-211 -1683,585 47,713 1005,529 1687,531l-4 -1116z"/>
  <path class="fil0" d="M11011 3325l1069 9 0 -1895 -843 -23c-14,680 -40,1312 -226,1909z"/>
  <path class="fil6" d="M20576 8839c675,9 1432,113 1463,-601 34,-788 -781,-664 -1461,-661l-2 1262z"/>
  <polygon class="fil4" points="22180,2081 22832,2084 22831,1707 20993,1707 20992,2081 21641,2081 21640,3783 22178,3756 "/>
  <path class="fil7" d="M46355 8023l0 520c447,0 1844,196 1604,-629 -136,-467 -956,-337 -1605,-337l1 446z"/>
  <polygon class="fil6" points="48869,2081 49698,2079 49701,1707 48331,1707 48330,3793 48868,3775 48868,3417 48868,2972 48868,2675 "/>
  <path class="fil0" d="M15211 3399c486,23 671,-152 682,-650 12,-534 -167,-753 -681,-722 -457,416 -458,954 -1,1372z"/>
  <path class="fil0" d="M17528 3394c465,56 665,-180 664,-645 0,-474 -198,-686 -664,-648 -431,414 -450,873 0,1293z"/>
  <path class="fil0" d="M50802 3401l334 14c373,-495 406,-914 -9,-1398l-339 -4c-368,442 -444,935 14,1388z"/>
  <path class="fil6" d="M41645 14012c-197,203 -530,1161 432,1217 483,-491 457,-866 1,-1337 -141,8 -411,3 -433,120z"/>
  <polygon class="fil6" points="37581,2974 39769,2975 39771,2524 37580,2524 "/>
  <path class="fil6" d="M50960 8004c-183,251 -474,1145 -569,1423l1103 9 -534 -1432z"/>
  <path class="fil4" d="M9462 9403l1086 37 -526 -1431c-161,230 -464,1121 -560,1394z"/>
  <polygon class="fil5" points="13145,3049 14208,3050 14209,2597 13144,2597 "/>
  <path class="fil4" d="M66732 13985c-91,543 291,429 724,428l-3 -522c-303,0 -469,-43 -721,94z"/>
  <path class="fil0" d="M35074 2128c-80,569 282,473 730,469l1 -516 -731 47z"/>
  <path class="fil2" d="M57523 15203c165,24 332,40 500,29 83,-5 118,-3 201,-26 107,-31 80,-49 151,-90l-30 -213c-256,-182 -439,-129 -820,-95l-2 395z"/>
  <path class="fil0" d="M23488 2513l358 15 459 -3c-68,-409 -96,-516 -533,-503 -197,164 -242,155 -284,491z"/>
  <path class="fil5" d="M43780 14315l803 32c-62,-444 -119,-516 -563,-532 -116,167 -212,249 -240,500z"/>
  <path class="fil8" d="M62058 14310l343 33 149 -5 303 1c-71,-445 -113,-507 -553,-522 -118,164 -217,244 -242,493z"/>
  <path class="fil0" d="M28245 2511l814 14c-71,-407 -98,-514 -533,-500 -189,163 -237,158 -281,486z"/>
  <path class="fil5" d="M52855 14932c117,449 364,309 644,165l57 -445c-306,66 -484,14 -701,280z"/>
  <path class="fil9" d="M42451 4006l-539 0 0 -2037c-196,184 -428,321 -695,410l0 -492c141,-45 293,-132 458,-262 165,-128 277,-278 339,-449l437 0 0 2830zm1271 -1522c-139,-59 -240,-139 -303,-243 -64,-103 -95,-216 -95,-338 0,-211 73,-384 219,-521 146,-137 355,-206 624,-206 267,0 474,69 621,206 148,137 222,310 222,521 0,130 -34,246 -102,348 -68,101 -164,179 -287,233 157,63 275,155 357,275 82,121 122,260 122,418 0,261 -82,472 -248,635 -165,164 -385,245 -660,245 -256,0 -468,-68 -638,-203 -201,-158 -301,-377 -301,-654 0,-153 38,-293 113,-420 76,-128 194,-226 356,-296zm113 -542c0,107 30,192 90,252 61,60 142,90 242,90 102,0 183,-30 244,-91 61,-61 92,-146 92,-253 0,-102 -30,-183 -91,-244 -61,-61 -140,-91 -239,-91 -104,0 -186,30 -247,92 -61,61 -91,143 -91,245zm-51 1206c0,150 38,267 114,351 76,84 170,125 283,125 112,0 203,-40 276,-121 73,-80 109,-197 109,-349 0,-133 -37,-240 -111,-320 -74,-81 -168,-121 -281,-121 -132,0 -229,46 -294,137 -64,92 -96,191 -96,298zm2572 -1972c273,0 486,98 640,293 182,231 274,614 274,1148 0,534 -92,918 -276,1151 -153,193 -365,289 -638,289 -273,0 -494,-106 -662,-317 -167,-210 -251,-587 -251,-1128 0,-531 92,-914 276,-1147 153,-193 365,-289 637,-289zm0 448c-64,0 -121,21 -171,63 -51,41 -90,116 -117,224 -37,140 -55,375 -55,706 0,332 16,559 49,683 32,123 74,206 123,247 50,41 107,62 171,62 65,0 122,-21 173,-63 49,-41 89,-116 116,-224 37,-138 55,-373 55,-705 0,-331 -16,-558 -49,-682 -33,-124 -74,-207 -124,-248 -49,-42 -106,-63 -171,-63z"/>
 </g>
</svg>
