<?xml version="1.0" encoding="UTF-8"?>
<!DOCTYPE svg PUBLIC "-//W3C//DTD SVG 1.1//EN" "http://www.w3.org/Graphics/SVG/1.1/DTD/svg11.dtd">
<!-- Creator: CorelDRAW X7 -->
<svg xmlns="http://www.w3.org/2000/svg" xml:space="preserve" width="55.2926mm" height="39.6682mm" version="1.1" style="shape-rendering:geometricPrecision; text-rendering:geometricPrecision; image-rendering:optimizeQuality; fill-rule:evenodd; clip-rule:evenodd"
viewBox="0 0 1732 1242"
 xmlns:xlink="http://www.w3.org/1999/xlink">
 <defs>
  <style type="text/css">
   <![CDATA[
    .fil8 {fill:#FEFEFE}
    .fil9 {fill:#FFFEFA}
    .fil2 {fill:#FEFAFC}
    .fil1 {fill:#F9FCFE}
    .fil3 {fill:#FAFCF8}
    .fil4 {fill:#F7F5F5}
    .fil6 {fill:#E9383A}
    .fil0 {fill:#CF4541}
    .fil7 {fill:#3E4693}
    .fil5 {fill:#FEFEFE;fill-rule:nonzero}
   ]]>
  </style>
   <clipPath id="id0">
    <rect x="1514" y="1142" width="217" height="101"/>
   </clipPath>
 </defs>
 <g id="Слой_x0020_1">
  <metadata id="CorelCorpID_0Corel-Layer"/>
  <g style="clip-path:url(#id0)">
   <image id="_180" x="1514" y="1142" width="217" height="101" xlink:href="p.svg_Images\p.svg_ImgID1.png"/>
  </g>
  <path class="fil0" d="M699 950l-15 1 0 -29 10 -5c8,-22 9,-33 10,-58l58 -1c0,11 -3,55 3,60l5 33 -15 0 0 -18 -56 -1 0 18zm-42 -92l20 0 0 74 -20 0 0 -74zm-241 40l0 -19 0 -21 19 0 0 21 0 21 0 14 0 18 -19 0 0 -34zm-80 52l-16 1 0 -32c9,-1 13,1 18,-23 2,-12 2,-25 2,-37l59 -1 0 58c0,1 1,1 1,1 0,1 1,1 2,1l3 2c0,1 1,1 2,2l0 29 -15 0 -1 -18 -55 -1 0 18zm898 -27l-1 38 -19 0 0 -103 17 0 1 9c42,-41 73,37 37,61 -14,9 -28,3 -35,-5zm81 9l-19 0 0 -74 19 0 0 26 27 0 0 -26 19 0 0 74 -19 0 0 -34 -27 0 0 34zm-211 -37c-6,57 -73,53 -63,-28 7,-56 72,-49 63,28zm-74 0c-7,57 -73,53 -63,-28 7,-56 72,-48 63,28zm-77 0c-7,57 -73,53 -63,-28 6,-56 72,-49 63,28zm-486 37l-14 0 0 -74 18 0 0 44c10,-8 24,-34 29,-44l20 0 0 74 -19 0 0 -46 -8 11c-3,6 -6,9 -8,13 -8,13 -9,18 -18,22zm165 -38c18,6 18,29 2,36 -12,5 -43,2 -59,2l0 -74c44,0 70,-8 67,28 -5,3 -5,3 -10,8zm545 12l0 26 -19 0 0 -74 49 0 0 13 -30 0 0 35zm-998 -48l66 0 0 13 -24 0 1 60 -20 1 0 -61 -23 0 0 -13zm89 20l-16 -1c4,-17 15,-23 35,-22 40,2 19,37 30,77l-17 0 -5 -7c-16,8 -45,12 -46,-14 -1,-25 26,-23 45,-29l-1 -12 -17 -1 -8 9zm-119 40l8 -12 18 3c-9,36 -66,31 -68,-11 -3,-51 52,-54 66,-24 -4,3 7,2 -17,5 -28,-39 -50,42 -7,39zm508 -87l20 0 0 16 -20 0 0 -16zm-241 0l19 0 0 16 -19 0 0 -16zm77 8c10,-12 -2,-9 15,-10 -5,31 -38,28 -42,0 25,2 -1,11 27,10zm-284 -108l20 0 0 21 0 26 0 27 -20 0 0 -27 0 -26 0 -21zm1092 -1c53,-12 64,63 19,74 -50,12 -67,-64 -19,-74zm-368 0c22,-6 42,6 46,27 4,24 -9,43 -28,47 -51,12 -66,-63 -18,-74zm-306 1l20 0 0 26 27 0 0 -26 19 0 0 74 -19 -1 0 -34 -27 0 0 35 -20 0 0 -74zm-82 0l19 0 0 26 28 0 0 -26 19 0 0 74 -19 -1 0 -34 -28 0 0 35 -19 0 0 -66 0 -8zm444 0l20 0c0,15 -2,21 3,33l22 0 0 -33 20 0 0 74 -20 0 0 -29c-41,6 -45,-3 -45,-45zm455 -1l19 2 0 43 9 -12c4,-5 5,-8 7,-11 5,-8 9,-14 13,-21l19 0 0 74 -18 0 -1 -46 -28 46 -20 0 0 -64 0 -11zm-81 1c15,0 42,-3 54,1 21,7 14,23 3,34 17,7 18,30 2,37 -12,5 -44,2 -59,2l0 -74zm-651 38c-3,-3 -4,-6 -5,-10 -7,-37 40,-28 66,-28l0 74 -20 0 0 -29c-18,1 -21,14 -30,29l-22 -1c4,-8 11,-19 20,-28l-9 -7zm-323 -38c15,0 43,-3 55,1 22,7 14,23 3,34 18,8 17,31 2,37 -13,5 -43,2 -60,2l0 -74zm821 0l20 0 0 29c23,-11 0,-29 39,-30 -1,19 3,12 -12,16 -3,11 -3,12 -11,19 1,0 1,1 2,1l3 3c1,1 1,0 4,4l16 32 -21 0c-6,-15 -8,-28 -20,-32l0 32 -20 -1 0 -73zm-31 73l-19 0 0 -60 -24 0 1 -13 65 0 0 13 -23 0 0 60zm-353 -73l65 0 0 74 -19 0 -1 -61 -26 0 1 61 -20 0 0 -74zm-584 0l20 0 0 29c23,-11 0,-29 39,-29 -1,26 -2,4 -12,18 -6,8 -1,7 -11,16l3 3c9,9 17,25 22,37l-20 0c-6,-13 -8,-28 -21,-32l0 32 -20 -1 0 -73zm826 18c4,-12 8,-18 22,-20 54,-10 35,38 43,76l-17 0 -5 -7c-15,8 -44,12 -45,-14 -1,-25 26,-24 45,-29l-2 -12 -17 -1 -7 9 -17 -2zm-599 0c9,-31 47,-22 55,-14 10,9 6,51 10,70 -22,0 -16,0 -22,-7 -15,8 -44,12 -45,-14 -1,-25 26,-23 45,-29l-2 -12 -17 -1 -7 10 -17 -3zm-151 69c19,-6 12,-16 4,-36 -6,-17 -14,-33 -19,-51l20 0 19 53 16 -53 20 0c-5,19 -16,43 -23,63 -9,24 -11,45 -45,39l-1 -12 9 -3zm1227 -50c-5,-14 -17,-25 -23,-37l23 0c5,8 8,11 11,19 5,-4 1,1 6,-6 10,-11 4,-17 31,-12 -7,11 -16,22 -23,33 3,9 20,31 25,39l-23 1 -11 -18c-4,-4 0,-1 -5,-4 -4,9 -9,13 -12,22l-23 0c8,-14 16,-24 24,-37zm-1336 -64l20 0 0 16 -20 0 0 -16zm-96 84c11,-5 6,-73 5,-84l71 0 0 101 -20 0 0 -85 -31 0c0,79 6,85 -35,85l0 -13 10 -4zm-113 189l1665 0 0 -299 -1665 0 0 299z"/>
  <path class="fil1" d="M103 792l0 13c41,0 35,-6 35,-85l31 0 0 85 20 0 0 -101 -71 0c1,11 6,79 -5,84l-10 4z"/>
  <path class="fil2" d="M348 918c6,-15 8,-26 8,-46l24 -1 0 48 -32 -1zm-12 14l55 1 1 18 15 0 0 -29c-1,-1 -2,-1 -2,-2l-3 -2c-1,0 -2,0 -2,-1 0,0 -1,0 -1,-1l0 -58 -59 1c0,12 0,25 -2,37 -5,24 -9,22 -18,23l0 32 16 -1 0 -18z"/>
  <path class="fil2" d="M711 918c7,-16 8,-26 9,-46l23 -1 0 35 0 13 -32 -1zm-12 14l56 1 0 18 15 0 -5 -33c-6,-5 -3,-49 -3,-60l-58 1c-1,25 -2,36 -10,58l-10 5 0 29 15 -1 0 -18z"/>
  <path class="fil2" d="M1243 869l12 0c14,16 15,40 -3,50 -27,-2 -22,-35 -9,-50zm-9 54c7,8 21,14 35,5 36,-24 5,-102 -37,-61l-1 -9 -17 0 0 103 19 0 1 -38z"/>
  <path class="fil2" d="M595 918l0 -17c16,-1 33,-4 29,13 -8,7 -19,5 -29,4zm12 -31l-12 0 0 -15c16,-1 20,-3 28,5 -2,9 -4,10 -16,10zm25 7c5,-5 5,-5 10,-8 3,-36 -23,-28 -67,-28l0 74c16,0 47,3 59,-2 16,-7 16,-30 -2,-36z"/>
  <path class="fil3" d="M1382 774c16,-2 34,-4 30,13 -2,3 2,4 -14,5 -6,0 -11,0 -16,-1l0 -17zm0 -29c14,-2 20,-3 29,4 -3,14 -14,11 -29,10l0 -14zm-19 60c15,0 47,3 59,-2 16,-7 15,-30 -2,-37 11,-11 18,-27 -3,-34 -12,-4 -39,-1 -54,-1l0 74z"/>
  <path class="fil3" d="M409 774c12,-1 32,-4 31,10 -1,11 -20,8 -31,7l0 -17zm0 -29c14,-2 20,-3 29,4 -3,14 -14,12 -29,10l0 -14zm-20 60c17,0 47,3 60,-2 15,-6 16,-29 -2,-37 11,-11 19,-27 -3,-34 -12,-4 -40,-1 -55,-1l0 74z"/>
  <path class="fil3" d="M1078 848c7,11 8,16 7,31l0 5c0,13 1,23 -7,32l-10 -1c-9,-4 -12,-54 -1,-67l11 0zm26 47c9,-77 -56,-84 -63,-28 -10,81 57,85 63,28z"/>
  <path class="fil2" d="M986 879c0,-15 0,-20 7,-32l10 1c9,12 8,20 8,36 0,17 0,36 -18,31 -8,-5 -7,-26 -7,-36zm44 16c9,-76 -56,-84 -63,-28 -10,81 56,85 63,28z"/>
  <path class="fil3" d="M917 915c-13,-13 -10,-54 -1,-67l11 -1c9,15 14,53 0,69l-10 -1zm36 -20c9,-77 -57,-84 -63,-28 -10,81 56,85 63,28z"/>
  <path class="fil3" d="M726 752c1,-11 17,-8 27,-8l0 3 0 15c-10,0 -28,3 -27,-10zm-5 24c-9,9 -16,20 -20,28l22 1c9,-15 12,-28 30,-29l0 29 20 0 0 -74c-26,0 -73,-9 -66,28 1,4 2,7 5,10l9 7z"/>
  <path class="fil3" d="M1444 741l0 64 20 0 28 -46 1 46 18 0 0 -74 -19 0c-4,7 -8,13 -13,21 -2,3 -3,6 -7,11l-9 12 0 -43 -19 -2 0 11z"/>
  <path class="fil2" d="M467 932c9,-4 10,-9 18,-22 2,-4 5,-7 8,-13l8 -11 0 46 19 0 0 -74 -20 0c-5,10 -19,36 -29,44l0 -44 -18 0 0 74 14 0z"/>
  <path class="fil4" d="M1086 784c3,-12 12,-11 25,-13l-2 16c-9,4 -19,9 -23,-3zm-18 -35l17 2 7 -9 17 1 2 12c-19,5 -46,4 -45,29 1,26 30,22 45,14l5 7 17 0c-8,-38 11,-86 -43,-76 -14,2 -18,8 -22,20z"/>
  <path class="fil4" d="M486 784c4,-12 12,-11 26,-13l-2 16c-9,4 -19,9 -24,-3zm-17 -35l17 3 7 -10 17 1 2 12c-19,6 -46,4 -45,29 1,26 30,22 45,14 6,7 0,7 22,7 -4,-19 0,-61 -10,-70 -8,-8 -46,-17 -55,14z"/>
  <path class="fil3" d="M309 821l1 12c34,6 36,-15 45,-39 7,-20 18,-44 23,-63l-20 0 -16 53 -19 -53 -20 0c5,18 13,34 19,51 8,20 15,30 -4,36l-9 3z"/>
  <path class="fil3" d="M269 911c4,-12 12,-11 25,-13 0,12 1,17 -9,20 -10,3 -14,0 -16,-7zm7 -42l17 1 1 12c-19,6 -46,4 -45,29 1,26 30,22 46,14l5 7 17 0c-11,-40 10,-75 -30,-77 -20,-1 -31,5 -35,22l16 1 8 -9z"/>
  <polygon class="fil1" points="826,805 846,805 845,744 871,744 872,805 891,805 891,731 826,731 "/>
  <polygon class="fil2" points="1315,898 1342,898 1342,932 1361,932 1361,858 1342,858 1342,884 1315,884 1315,858 1296,858 1296,932 1315,932 "/>
  <polygon class="fil2" points="627,805 647,805 647,770 674,770 674,804 693,805 693,731 674,731 674,757 647,757 647,731 627,731 "/>
  <polygon class="fil2" points="545,739 545,805 564,805 564,770 592,770 592,804 611,805 611,731 592,731 592,757 564,757 564,731 545,731 "/>
  <path class="fil4" d="M935 791c-16,-15 -16,-34 0,-49 19,-1 25,7 25,26 -1,18 -7,24 -25,23zm-2 -61c-48,11 -33,86 18,74 19,-4 32,-23 28,-47 -4,-21 -24,-33 -46,-27z"/>
  <path class="fil3" d="M1304 791c-16,-15 -17,-34 0,-49 19,-1 25,7 24,26 0,18 -6,24 -24,23zm-3 -61c-48,10 -31,86 19,74 45,-11 34,-86 -19,-74z"/>
  <path class="fil4" d="M1545 768c-8,13 -16,23 -24,37l23 0c3,-9 8,-13 12,-22 5,3 1,0 5,4l11 18 23 -1c-5,-8 -22,-30 -25,-39 7,-11 16,-22 23,-33 -27,-5 -21,1 -31,12 -5,7 -1,2 -6,6 -3,-8 -6,-11 -11,-19l-23 0c6,12 18,23 23,37z"/>
  <path class="fil4" d="M1210 804l20 1 0 -32c12,4 14,17 20,32l21 0 -16 -32c-3,-4 -3,-3 -4,-4l-3 -3c-1,0 -1,-1 -2,-1 8,-7 8,-8 11,-19 15,-4 11,3 12,-16 -39,1 -16,19 -39,30l0 -29 -20 0 0 73z"/>
  <path class="fil4" d="M242 804l20 1 0 -32c13,4 15,19 21,32l20 0c-5,-12 -13,-28 -22,-37l-3 -3c10,-9 5,-8 11,-16 10,-14 11,8 12,-18 -39,0 -16,18 -39,29l0 -29 -20 0 0 73z"/>
  <path class="fil3" d="M1034 776l0 29 20 0 0 -74 -20 0 0 33 -22 0c-5,-12 -3,-18 -3,-33l-20 0c0,42 4,51 45,45z"/>
  <path class="fil4" d="M149 918c-43,3 -21,-78 7,-39 24,-3 13,-2 17,-5 -14,-30 -69,-27 -66,24 2,42 59,47 68,11l-18 -3 -8 12z"/>
  <polygon class="fil3" points="1136,744 1160,744 1160,804 1179,804 1179,744 1202,744 1202,731 1137,731 "/>
  <polygon class="fil2" points="221,871 245,871 245,858 179,858 179,871 202,871 202,932 222,931 "/>
  <polygon class="fil2" points="1177,871 1207,871 1207,858 1158,858 1158,932 1177,932 1177,906 "/>
  <path class="fil0" d="M917 915l10 1c14,-16 9,-54 0,-69l-11 1c-9,13 -12,54 1,67z"/>
  <path class="fil0" d="M986 879c0,10 -1,31 7,36 18,5 18,-14 18,-31 0,-16 1,-24 -8,-36l-10 -1c-7,12 -7,17 -7,32z"/>
  <path class="fil0" d="M1067 848c-11,13 -8,63 1,67l10 1c8,-9 7,-19 7,-32l0 -5c1,-15 0,-20 -7,-31l-11 0z"/>
  <polygon class="fil2" points="209,752 209,778 209,805 229,805 229,778 229,752 229,731 209,731 "/>
  <polygon class="fil3" points="657,932 677,932 677,858 657,858 "/>
  <path class="fil0" d="M1304 791c18,1 24,-5 24,-23 1,-19 -5,-27 -24,-26 -17,15 -16,34 0,49z"/>
  <polygon class="fil1" points="416,932 435,932 435,914 435,900 435,879 435,858 416,858 416,879 416,898 "/>
  <path class="fil0" d="M935 791c18,1 24,-5 25,-23 0,-19 -6,-27 -25,-26 -16,15 -16,34 0,49z"/>
  <path class="fil0" d="M1243 869c-13,15 -18,48 9,50 18,-10 17,-34 3,-50l-12 0z"/>
  <path class="fil0" d="M348 918l32 1 0 -48 -24 1c0,20 -2,31 -8,46z"/>
  <path class="fil0" d="M711 918l32 1 0 -13 0 -35 -23 1c-1,20 -2,30 -9,46z"/>
  <path class="fil0" d="M409 791c11,1 30,4 31,-7 1,-14 -19,-11 -31,-10l0 17z"/>
  <path class="fil0" d="M1382 791c5,1 10,1 16,1 16,-1 12,-2 14,-5 4,-17 -14,-15 -30,-13l0 17z"/>
  <path class="fil0" d="M595 918c10,1 21,3 29,-4 4,-17 -13,-14 -29,-13l0 17z"/>
  <path class="fil4" d="M508 829c-17,1 -5,-2 -15,10 -28,1 -2,-8 -27,-10 4,28 37,31 42,0z"/>
  <path class="fil0" d="M753 762l0 -15 0 -3c-10,0 -26,-3 -27,8 -1,13 17,10 27,10z"/>
  <path class="fil0" d="M409 759c15,2 26,4 29,-10 -9,-7 -15,-6 -29,-4l0 14z"/>
  <path class="fil0" d="M1382 759c15,1 26,4 29,-10 -9,-7 -15,-6 -29,-4l0 14z"/>
  <path class="fil0" d="M607 887c12,0 14,-1 16,-10 -8,-8 -12,-6 -28,-5l0 15 12 0z"/>
  <path class="fil0" d="M269 911c2,7 6,10 16,7 10,-3 9,-8 9,-20 -13,2 -21,1 -25,13z"/>
  <path class="fil0" d="M1086 784c4,12 14,7 23,3l2 -16c-13,2 -22,1 -25,13z"/>
  <path class="fil0" d="M486 784c5,12 15,7 24,3l2 -16c-14,2 -22,1 -26,13z"/>
  <polygon class="fil2" points="416,847 435,847 435,831 416,831 "/>
  <polygon class="fil3" points="657,847 677,847 677,831 657,831 "/>
  <polygon class="fil3" points="209,720 229,720 229,704 209,704 "/>
  <path class="fil5" d="M808 905l19 -2c1,4 2,8 5,11 2,2 6,3 9,3 4,0 8,-1 10,-4 3,-3 4,-7 4,-12 0,-5 -1,-9 -4,-12 -2,-3 -5,-4 -9,-4 -3,0 -5,0 -9,1l2 -15c5,0 9,-1 12,-4 3,-2 4,-5 4,-9 0,-4 -1,-6 -3,-8 -2,-2 -4,-3 -8,-3 -3,0 -6,1 -8,3 -3,2 -4,6 -4,10l-18 -3c1,-6 3,-11 5,-15 3,-3 6,-6 11,-8 4,-2 9,-3 15,-3 9,0 17,3 23,9 4,5 7,10 7,16 0,9 -5,16 -15,22 6,1 10,4 14,8 3,4 5,9 5,16 0,8 -3,16 -10,22 -6,6 -14,9 -24,9 -9,0 -16,-2 -22,-7 -6,-6 -10,-13 -11,-21z"/>
  <path class="fil6" d="M1352 423c9,-3 3,6 7,-10 5,17 12,32 18,48 8,22 17,35 -14,37l2 15c36,4 35,-13 46,-41 7,-20 15,-41 22,-62l-20 0 -17 53 -18 -53 -70 1 0 73 20 0 0 -61 24 0z"/>
  <path class="fil7" d="M369 88c6,-13 8,-28 8,-46l23 -1 0 45 0 3 -31 -1zm-12 14l55 0 -1 19 17 -1 0 -28 -8 -6 0 -58 -59 1c-1,13 -1,44 -9,55 -4,7 -9,7 -9,7 -1,-1 -2,0 -2,1l0 29 16 -1 0 -18z"/>
  <path class="fil7" d="M452 298l22 -2 0 48 -31 -1c6,-13 8,-29 9,-45zm-21 59l55 0 0 18 16 -1 0 -28c-9,-7 -6,3 -8,-10l0 -53 -59 0c0,13 -1,27 -3,39 -1,4 -4,14 -6,16 -5,9 1,2 -5,5l-6 3 0 30 16 -1 0 -18z"/>
  <path class="fil7" d="M574 272c22,0 20,18 15,33l-18 0c-5,-11 -5,-11 -4,-26l7 -7zm-24 60c3,15 7,24 25,25 51,3 44,-73 30,-89 -18,-20 -50,-13 -57,12 -5,22 7,53 46,37 -1,9 -2,20 -10,23 -11,5 -13,-3 -17,-9l-17 1z"/>
  <path class="fil7" d="M1008 87l-18 1c-7,-14 -14,-49 9,-49 22,0 17,36 9,48zm-19 10c0,0 2,2 3,2 9,5 19,4 27,-1 38,-26 1,-99 -33,-65l-23 -4 0 102 20 1 0 -39 6 4z"/>
  <path class="fil7" d="M728 304c0,-45 25,-44 25,0 0,13 2,36 -11,37 -16,1 -14,-24 -14,-37zm-19 21c8,50 76,47 63,-36 -8,-53 -76,-46 -63,36z"/>
  <path class="fil7" d="M808 307c0,-49 24,-47 25,-3 0,12 1,33 -10,36 -16,5 -15,-21 -15,-33zm-19 18c7,50 76,47 63,-36 -8,-53 -76,-46 -63,36z"/>
  <path class="fil7" d="M995 295c16,-3 23,-1 25,17 6,55 -54,29 -25,-17zm-6 53c9,6 19,15 35,5 9,-6 16,-17 16,-33 1,-33 -29,-53 -49,-32l-22 -4 0 102 19 0 1 -38z"/>
  <path class="fil7" d="M651 304c0,-43 25,-47 25,3 0,13 1,33 -11,34 -15,1 -14,-24 -14,-37zm-19 18c5,51 74,54 64,-31 -6,-52 -74,-52 -64,31z"/>
  <path class="fil7" d="M805 52c0,-48 25,-47 25,-3 0,12 2,34 -9,37 -17,5 -16,-22 -16,-34zm-20 11c1,24 16,47 43,38 20,-7 24,-34 22,-60 -4,-55 -69,-62 -65,22z"/>
  <path class="fil7" d="M321 343l0 -17c14,-2 22,-2 30,5 1,16 -14,14 -30,12zm0 -46c13,-2 23,-4 29,7 -5,8 -11,9 -22,8l-7 -1 0 -14zm39 20c13,-9 15,-27 -4,-33 -10,-3 -42,-1 -55,-1l0 74c15,0 51,3 61,-3 20,-12 7,-27 -2,-37z"/>
  <path class="fil7" d="M247 71c14,-1 22,-2 30,6 0,16 -14,14 -30,11l0 -17zm0 -29c16,-2 26,-5 28,11 -9,5 -14,5 -28,3l0 -14zm38 20c14,-9 16,-27 -3,-32 -10,-3 -43,-2 -55,-2l0 74c20,0 104,9 58,-40z"/>
  <path class="fil7" d="M748 76c-9,34 -32,-10 -20,-49 9,-30 33,7 20,49zm-42 -8c6,51 75,52 64,-32 -7,-52 -74,-51 -64,32z"/>
  <path class="fil7" d="M669 76c-10,34 -33,-11 -21,-49 10,-31 33,8 21,49zm-43 -13c3,54 70,62 65,-22 -4,-54 -70,-62 -65,22z"/>
  <path class="fil6" d="M1028 160c4,-6 14,-27 25,-11 17,23 -39,42 -45,81l68 -1 0 -18 -39 -1c9,-12 51,-37 35,-67 -12,-23 -62,-20 -61,16l17 1z"/>
  <path class="fil6" d="M1378 230c8,-3 10,-8 18,-22 6,-9 10,-15 16,-23l0 45 19 -1 0 -74 -18 1 -30 43 0 -43 -19 -1 0 75 14 0z"/>
  <path class="fil6" d="M913 208c3,-11 12,-10 25,-12 0,10 0,17 -9,19 -9,3 -14,0 -16,-7zm0 -31c2,-8 3,-12 14,-11 10,1 10,4 11,13 -21,8 -46,4 -45,29 0,26 30,23 45,15 6,8 2,7 23,7 -6,-23 1,-62 -12,-72 -5,-4 -43,-18 -54,16l18 3z"/>
  <path class="fil6" d="M918 463c4,-11 12,-10 25,-13l-2 16c-9,5 -18,10 -23,-3zm0 -32c2,-8 3,-11 15,-10 10,1 9,3 10,13 -21,7 -45,3 -45,29 1,26 30,22 45,15 7,8 3,7 23,5 -13,-30 15,-76 -33,-76 -21,0 -28,5 -33,22l18 2z"/>
  <path class="fil7" d="M556 30c7,-12 6,-14 23,-10l1 14 -17 21c12,6 19,-1 21,14 3,17 -18,21 -18,16 -8,-5 -7,-5 -9,-15l-19 3c2,19 14,29 34,29 30,0 48,-40 16,-52l3 -3c33,-35 -34,-72 -52,-20l17 3z"/>
  <polygon class="fil7" points="1070,68 1097,68 1097,102 1117,101 1117,29 1097,28 1097,55 1071,55 1071,28 1051,29 1051,102 1071,102 "/>
  <polygon class="fil7" points="1073,322 1100,323 1100,357 1120,356 1120,283 1100,283 1100,309 1073,309 1073,283 1053,284 1053,356 1073,357 "/>
  <polygon class="fil6" points="1153,195 1180,195 1180,230 1199,229 1200,156 1180,156 1180,182 1153,182 1153,156 1133,156 1133,229 1153,229 "/>
  <polygon class="fil6" points="1155,450 1182,450 1182,484 1202,483 1202,411 1182,410 1182,436 1155,436 1155,410 1136,411 1136,484 1155,484 "/>
  <path class="fil6" d="M1263 471c-13,-1 -26,-4 -24,-29 4,-46 62,-8 24,29zm-42 -13c10,44 85,29 72,-24 -10,-42 -86,-34 -72,24z"/>
  <path class="fil6" d="M1258 216l-12 0c-17,-15 -17,-35 0,-49l12 -1c16,17 17,33 0,50zm-43 -13c11,44 86,29 73,-23 -5,-18 -26,-33 -48,-26 -19,6 -30,26 -25,49z"/>
  <path class="fil6" d="M861 179c-4,13 -11,-5 -12,14 0,7 6,2 14,10 0,13 -3,13 -16,13l-10 -10 -16 2c3,13 12,21 27,22 20,1 23,-3 35,-13l-1 -17 -11 -10c5,-6 14,-14 6,-26 -9,-15 -46,-18 -54,10l16 2 8 -10c7,0 18,1 14,13z"/>
  <path class="fil6" d="M852 422c4,-2 9,-2 12,1 12,12 -10,19 -10,19l0 8c10,7 15,-1 14,15 -6,6 -5,5 -16,6 -4,-4 -5,-6 -9,-10l-17 2c4,16 16,22 35,21 19,-1 29,-10 27,-30l-12 -10c34,-35 -36,-55 -47,-15l14 2 9 -9z"/>
  <path class="fil6" d="M1021 425c12,-3 14,-6 24,-10l0 68 20 1 0 -100 -16 -1c-5,14 -15,21 -28,27l0 15z"/>
  <path class="fil7" d="M467 43c15,-3 12,-5 24,-10l0 68 20 1 0 -100 -17 0c-4,13 -14,20 -27,26l0 15z"/>
  <polygon class="fil7" points="930,296 959,296 959,283 910,284 910,356 930,357 "/>
  <polygon class="fil7" points="925,41 938,41 954,41 954,28 905,29 905,102 925,102 925,94 925,86 "/>
  <polygon class="fil6" points="1325,169 1355,169 1355,158 1355,155 1305,157 1305,229 1325,229 "/>
  <path class="fil3" d="M669 76c12,-41 -11,-80 -21,-49 -12,38 11,83 21,49z"/>
  <path class="fil3" d="M748 76c13,-42 -11,-79 -20,-49 -12,39 11,83 20,49z"/>
  <polygon class="fil7" points="388,357 409,357 409,283 388,283 388,299 388,341 "/>
  <polygon class="fil7" points="311,102 323,102 332,102 332,28 311,28 311,52 311,76 "/>
  <path class="fil3" d="M805 52c0,12 -1,39 16,34 11,-3 9,-25 9,-37 0,-44 -25,-45 -25,3z"/>
  <path class="fil3" d="M728 304c0,13 -2,38 14,37 13,-1 11,-24 11,-37 0,-44 -25,-45 -25,0z"/>
  <path class="fil3" d="M808 307c0,12 -1,38 15,33 11,-3 10,-24 10,-36 -1,-44 -25,-46 -25,3z"/>
  <path class="fil3" d="M651 304c0,13 -1,38 14,37 12,-1 11,-21 11,-34 0,-50 -25,-46 -25,-3z"/>
  <path class="fil3" d="M1263 471c38,-37 -20,-75 -24,-29 -2,25 11,28 24,29z"/>
  <path class="fil2" d="M1258 216c17,-17 16,-33 0,-50l-12 1c-17,14 -17,34 0,49l12 0z"/>
  <path class="fil2" d="M995 295c-29,46 31,72 25,17 -2,-18 -9,-20 -25,-17z"/>
  <path class="fil1" d="M1008 87c8,-12 13,-48 -9,-48 -23,0 -16,35 -9,49l18 -1z"/>
  <path class="fil2" d="M369 88l31 1 0 -3 0 -45 -23 1c0,18 -2,33 -8,46z"/>
  <path class="fil3" d="M452 298c-1,16 -3,32 -9,45l31 1 0 -48 -22 2z"/>
  <path class="fil8" d="M567 279c-1,15 -1,15 4,26l18 0c5,-15 7,-33 -15,-33l-7 7z"/>
  <path class="fil3" d="M321 343c16,2 31,4 30,-12 -8,-7 -16,-7 -30,-5l0 17z"/>
  <path class="fil2" d="M247 88c16,3 30,5 30,-11 -8,-8 -16,-7 -30,-6l0 17z"/>
  <path class="fil3" d="M247 56c14,2 19,2 28,-3 -2,-16 -12,-13 -28,-11l0 14z"/>
  <path class="fil3" d="M321 311l7 1c11,1 17,0 22,-8 -6,-11 -16,-9 -29,-7l0 14z"/>
  <path class="fil4" d="M913 208c2,7 7,10 16,7 9,-2 9,-9 9,-19 -13,2 -22,1 -25,12z"/>
  <path class="fil9" d="M918 463c5,13 14,8 23,3l2 -16c-13,3 -21,2 -25,13z"/>
  <polygon class="fil7" points="311,18 320,18 332,18 332,2 311,2 "/>
  <polygon class="fil7" points="388,272 409,272 409,256 388,256 "/>
 </g>
</svg>
