<?xml version="1.0" encoding="UTF-8"?>
<!DOCTYPE svg PUBLIC "-//W3C//DTD SVG 1.1//EN" "http://www.w3.org/Graphics/SVG/1.1/DTD/svg11.dtd">
<!-- Creator: CorelDRAW X7 -->
<svg xmlns="http://www.w3.org/2000/svg" xml:space="preserve" width="53.1688mm" height="9.5665mm" version="1.1" style="shape-rendering:geometricPrecision; text-rendering:geometricPrecision; image-rendering:optimizeQuality; fill-rule:evenodd; clip-rule:evenodd"
viewBox="0 0 1601 288"
 xmlns:xlink="http://www.w3.org/1999/xlink">
 <defs>
  <style type="text/css">
   <![CDATA[
    .fil2 {fill:#FEFAFC}
    .fil1 {fill:#F9FCFE}
    .fil3 {fill:#FAFCF8}
    .fil4 {fill:#F7F5F5}
    .fil0 {fill:#CF4541}
    .fil5 {fill:#FEFEFE;fill-rule:nonzero}
   ]]>
  </style>
 </defs>
 <g id="Слой_x0020_1">
  <metadata id="CorelCorpID_0Corel-Layer"/>
  <path class="fil0" d="M672 262l-15 1 0 -28 11 -5c7,-21 8,-32 9,-55l56 -2c0,11 -4,53 2,58l5 32 -14 0 0 -17 -54 -1 0 17zm-40 -89l19 0 0 72 -19 0 0 -72zm-232 39l0 -18 0 -21 19 0 0 21 0 20 0 13 0 18 -19 0 0 -33zm-77 50l-15 1 0 -31c8,-1 12,1 17,-22 2,-11 2,-24 2,-35l56 -2 0 56c1,1 2,1 2,1 0,1 1,1 1,1l3 2c1,1 2,1 2,2l0 28 -14 0 -1 -17 -53 -1 0 17zm864 -26l-1 37 -19 0 0 -100 17 0 0 9c41,-39 71,35 36,59 -13,8 -27,3 -33,-5zm77 8l-18 1 0 -72 18 1 0 25 27 0 0 -25 18 -1 0 72 -18 0 0 -33 -27 0 0 32zm-202 -35c-6,55 -70,51 -61,-27 7,-54 69,-47 61,27zm-71 0c-7,55 -71,51 -61,-27 6,-54 69,-46 61,27zm-74 0c-7,55 -70,51 -61,-27 6,-54 69,-47 61,27zm-468 36l-14 0 0 -72 18 1 0 42c10,-8 23,-33 28,-43l19 0 0 72 -18 0 0 -44 -8 10c-3,5 -5,8 -8,13 -7,12 -8,17 -17,21zm159 -37c17,6 17,28 2,35 -12,5 -42,2 -57,2l0 -72c42,1 68,-8 64,27 -4,3 -5,4 -9,8zm524 11l0 25 -19 1 0 -72 47 0 0 13 -28 0 0 33zm-960 -46l63 0 0 13 -22 0 0 58 -18 1 0 -59 -23 0 0 -13zm85 20l-15 -2c4,-16 14,-21 34,-20 39,1 18,35 28,74l-16 0 -4 -7c-15,7 -44,11 -44,-14 -1,-23 25,-22 43,-28l-1 -11 -17 -1 -8 9zm-114 38l8 -11 17 2c-8,35 -63,31 -65,-10 -3,-49 50,-52 63,-23 -3,2 7,2 -16,4 -26,-37 -48,41 -7,38zm489 -83l19 0 0 15 -19 0 0 -15zm-232 0l19 0 0 15 -19 0 0 -15zm74 7c10,-11 -2,-8 14,-10 -5,30 -36,28 -40,0 24,2 -1,11 26,10zm-273 -104l19 0 0 20 0 26 0 25 -19 0 0 -25 0 -26 0 -20zm1050 -1c51,-11 61,61 18,71 -48,12 -64,-61 -18,-71zm-354 0c21,-5 40,7 44,27 4,22 -8,40 -27,45 -48,11 -63,-61 -17,-72zm-294 1l19 0 0 25 26 0 0 -25 19 0 -1 72 -18 -1 0 -33 -26 0 0 33 -19 0 0 -71zm-79 0l19 0 0 26 26 0 0 -26 18 0 0 72 -18 -1 0 -33 -26 0 0 33 -19 0 0 -63 0 -8zm427 0l19 0c0,15 -1,20 3,32l21 0 0 -32 19 0 0 71 -19 0 0 -28c-39,6 -43,-3 -43,-43zm438 0l17 1 0 41 10 -11c3,-5 4,-7 7,-11 4,-7 8,-13 12,-20l18 0 0 71 -18 1 -1 -45 -27 44 -18 0 0 -61 0 -10zm-79 0c15,0 41,-2 53,1 20,7 13,22 2,33 17,7 17,29 2,35 -11,5 -42,2 -57,3l0 -72zm-625 37c-3,-3 -4,-5 -5,-10 -7,-36 38,-27 63,-27l0 71 -19 0 0 -28c-17,1 -20,14 -28,28l-22 0c4,-9 11,-19 19,-28l-8 -6zm-311 -37c15,0 42,-2 53,1 21,7 13,22 3,33 17,7 16,30 1,35 -12,5 -41,2 -56,3l-1 -72zm790 0l19 0 0 28c22,-10 -1,-27 37,-28 0,18 3,11 -11,15 -3,10 -3,12 -11,18 1,0 1,1 2,1l3 3c1,1 1,0 3,4l16 30 -20 0c-5,-14 -8,-26 -19,-30l0 31 -19 -2 0 -70zm-30 71l-19 0 0 -58 -22 0 0 -13 63 0 0 13 -22 0 0 58zm-339 -71l62 0 0 71 -19 0 0 -58 -25 0 0 58 -18 0 0 -71zm-562 0l19 0 0 28c22,-10 0,-28 37,-28 0,26 -1,4 -11,17 -6,8 -1,8 -10,16l2 2c9,9 16,25 21,36l-19 0c-5,-12 -8,-26 -20,-30l0 30 -19 -1 0 -70zm794 18c3,-12 8,-18 22,-20 51,-9 33,37 41,74l-17 0 -5 -7c-14,7 -42,11 -43,-14 -1,-24 26,-23 43,-28l-1 -11 -17 -1 -7 9 -16 -2zm-576 0c8,-31 45,-21 53,-14 9,9 6,49 10,68 -22,-1 -16,0 -22,-7 -14,7 -42,11 -43,-14 -1,-24 25,-22 43,-28l-1 -12 -17 0 -6 9 -17 -2zm-145 66c18,-5 11,-16 4,-34 -6,-17 -14,-33 -18,-50l19 0 18 51 16 -51 18 0c-4,19 -14,42 -22,61 -8,23 -10,43 -42,37l-2 -11 9 -3zm1180 -48c-5,-13 -17,-24 -22,-36l22 1c4,7 7,10 10,18 5,-4 1,1 6,-6 10,-11 4,-16 29,-12 -6,11 -15,21 -21,32 3,8 19,29 24,38l-22 0 -11 -17c-4,-4 0,0 -5,-4 -3,9 -8,13 -12,21l-21 0c7,-13 15,-23 23,-35zm-1285 -62l19 0 0 16 -19 0 0 -16zm-92 81c10,-5 5,-70 5,-80l68 -1 0 97 -20 0 0 -81 -29 0c0,76 6,81 -34,81l0 -12 10 -4zm-109 182l1601 0 0 -288 -1601 0 0 288z"/>
  <path class="fil1" d="M99 110l0 12c40,0 34,-5 34,-81l29 0 0 81 20 0 0 -97 -68 1c0,10 5,75 -5,80l-10 4z"/>
  <path class="fil2" d="M335 231c5,-15 7,-25 8,-44l22 -1 0 46 -30 -1zm-12 14l53 1 1 17 14 0 0 -28c0,-1 -1,-1 -2,-2l-3 -2c0,0 -1,0 -1,-1 0,0 -1,0 -2,-1l0 -56 -56 2c0,11 0,24 -2,35 -5,23 -9,21 -17,22l0 31 15 -1 0 -17z"/>
  <path class="fil2" d="M684 231c6,-16 8,-25 8,-44l22 -1 0 33 0 13 -30 -1zm-12 14l54 1 0 17 14 0 -5 -32c-6,-5 -2,-47 -2,-58l-56 2c-1,23 -2,34 -9,55l-11 5 0 28 15 -1 0 -17z"/>
  <path class="fil2" d="M1195 184l12 0c13,15 15,38 -3,48 -26,-2 -22,-34 -9,-48zm-8 52c6,8 20,13 33,5 35,-24 5,-98 -36,-59l0 -9 -17 0 0 100 19 0 1 -37z"/>
  <path class="fil2" d="M572 232l0 -17c16,-1 32,-4 28,13 -8,6 -18,4 -28,4zm12 -31l-12 0 0 -14c15,-1 19,-3 27,4 -1,9 -4,11 -15,10zm24 7c4,-4 5,-5 9,-8 4,-35 -22,-26 -64,-27l0 72c15,0 45,3 57,-2 15,-7 15,-29 -2,-35z"/>
  <path class="fil3" d="M1329 92c15,-1 33,-3 28,13 -1,3 3,4 -13,5 -5,0 -10,-1 -15,-1l0 -17zm0 -28c14,-1 19,-2 28,5 -3,13 -13,11 -28,9l0 -14zm-19 59c15,-1 46,2 57,-3 15,-6 15,-28 -2,-35 11,-11 18,-26 -2,-33 -12,-3 -38,-1 -53,-1l0 72z"/>
  <path class="fil3" d="M393 92c12,-1 31,-3 30,10 -1,11 -19,8 -30,7l0 -17zm0 -28c14,-1 20,-2 28,5 -3,13 -13,11 -28,9l0 -14zm-18 59c15,-1 44,2 56,-3 15,-5 16,-28 -1,-35 10,-11 18,-26 -3,-33 -11,-3 -38,-1 -53,-1l1 72z"/>
  <path class="fil3" d="M1036 163c7,11 8,16 8,31l0 5c0,12 0,21 -8,30l-9 -1c-9,-4 -12,-52 -1,-64l10 -1zm26 46c8,-74 -54,-81 -61,-27 -9,78 55,82 61,27z"/>
  <path class="fil2" d="M948 194c0,-15 0,-19 7,-31l10 0c8,12 7,20 7,36 0,16 1,34 -17,29 -8,-5 -7,-25 -7,-34zm43 15c8,-73 -55,-81 -61,-27 -10,78 54,82 61,27z"/>
  <path class="fil3" d="M881 228c-12,-12 -9,-52 0,-65l10 0c9,15 13,51 0,66l-10 -1zm36 -19c8,-74 -55,-81 -61,-27 -9,78 54,82 61,27z"/>
  <path class="fil3" d="M698 72c1,-11 16,-8 26,-8l0 2 0 16c-10,0 -27,2 -26,-10zm-5 22c-8,9 -15,19 -19,28l22 0c8,-14 11,-27 28,-28l0 28 19 0 0 -71c-25,0 -70,-9 -63,27 1,5 2,7 5,10l8 6z"/>
  <path class="fil3" d="M1389 61l0 61 18 0 27 -44 1 45 18 -1 0 -71 -18 0c-4,7 -8,13 -12,20 -3,4 -4,6 -7,11l-10 11 0 -41 -17 -1 0 10z"/>
  <path class="fil2" d="M449 245c9,-4 10,-9 17,-21 3,-5 5,-8 8,-13l8 -10 0 44 18 0 0 -72 -19 0c-5,10 -18,35 -28,43l0 -42 -18 -1 0 72 14 0z"/>
  <path class="fil4" d="M1044 102c3,-11 12,-10 24,-12l-1 15c-9,4 -19,9 -23,-3zm-17 -33l16 2 7 -9 17 1 1 11c-17,5 -44,4 -43,28 1,25 29,21 43,14l5 7 17 0c-8,-37 10,-83 -41,-74 -14,2 -19,8 -22,20z"/>
  <path class="fil4" d="M467 102c4,-11 12,-10 25,-12l-2 16c-8,3 -18,8 -23,-4zm-16 -33l17 2 6 -9 17 0 1 12c-18,6 -44,4 -43,28 1,25 29,21 43,14 6,7 0,6 22,7 -4,-19 -1,-59 -10,-68 -8,-7 -45,-17 -53,14z"/>
  <path class="fil3" d="M297 138l2 11c32,6 34,-14 42,-37 8,-19 18,-42 22,-61l-18 0 -16 51 -18 -51 -19 0c4,17 12,33 18,50 7,18 14,29 -4,34l-9 3z"/>
  <path class="fil3" d="M258 224c4,-11 12,-10 25,-12 0,11 0,16 -9,19 -9,3 -13,0 -16,-7zm7 -40l17 1 1 11c-18,6 -44,5 -43,28 0,25 29,21 44,14l4 7 16 0c-10,-39 11,-73 -28,-74 -20,-1 -30,4 -34,20l15 2 8 -9z"/>
  <polygon class="fil1" points="795,122 813,122 813,64 838,64 838,122 857,122 857,51 795,51 "/>
  <polygon class="fil2" points="1264,212 1291,212 1291,245 1309,245 1309,173 1291,174 1291,199 1264,199 1264,174 1246,173 1246,245 1264,244 "/>
  <polygon class="fil2" points="603,122 622,122 622,89 648,89 648,122 666,123 667,51 648,51 648,76 622,76 622,51 603,51 "/>
  <polygon class="fil2" points="524,59 524,122 543,122 543,89 569,89 569,122 587,123 587,51 569,51 569,77 543,77 543,51 524,51 "/>
  <path class="fil4" d="M899 109c-15,-14 -15,-33 1,-47 17,-1 23,6 23,25 -1,17 -7,23 -24,22zm-2 -59c-46,11 -31,83 17,72 19,-5 31,-23 27,-45 -4,-20 -23,-32 -44,-27z"/>
  <path class="fil3" d="M1254 109c-16,-14 -16,-33 0,-47 18,-1 24,6 23,25 0,17 -6,23 -23,22zm-3 -59c-46,10 -30,83 18,71 43,-10 33,-82 -18,-71z"/>
  <path class="fil4" d="M1486 87c-8,12 -16,22 -23,35l21 0c4,-8 9,-12 12,-21 5,4 1,0 5,4l11 17 22 0c-5,-9 -21,-30 -24,-38 6,-11 15,-21 21,-32 -25,-4 -19,1 -29,12 -5,7 -1,2 -6,6 -3,-8 -6,-11 -10,-18l-22 -1c5,12 17,23 22,36z"/>
  <path class="fil4" d="M1164 121l19 2 0 -31c11,4 14,16 19,30l20 0 -16 -30c-2,-4 -2,-3 -3,-4l-3 -3c-1,0 -1,-1 -2,-1 8,-6 8,-8 11,-18 14,-4 11,3 11,-15 -38,1 -15,18 -37,28l0 -28 -19 0 0 70z"/>
  <path class="fil4" d="M233 121l19 1 0 -30c12,4 15,18 20,30l19 0c-5,-11 -12,-27 -21,-36l-2 -2c9,-8 4,-8 10,-16 10,-13 11,9 11,-17 -37,0 -15,18 -37,28l0 -28 -19 0 0 70z"/>
  <path class="fil3" d="M994 94l0 28 19 0 0 -71 -19 0 0 32 -21 0c-4,-12 -3,-17 -3,-32l-19 0c0,40 4,49 43,43z"/>
  <path class="fil4" d="M143 231c-41,3 -19,-75 7,-38 23,-2 13,-2 16,-4 -13,-29 -66,-26 -63,23 2,41 57,45 65,10l-17 -2 -8 11z"/>
  <polygon class="fil3" points="1093,64 1115,64 1115,122 1134,122 1134,64 1156,64 1156,51 1093,51 "/>
  <polygon class="fil2" points="213,186 235,186 235,173 172,173 172,186 195,186 195,245 213,244 "/>
  <polygon class="fil2" points="1132,186 1160,186 1160,173 1113,173 1113,245 1132,244 1132,219 "/>
  <path class="fil0" d="M881 228l10 1c13,-15 9,-51 0,-66l-10 0c-9,13 -12,53 0,65z"/>
  <path class="fil0" d="M948 194c0,9 -1,29 7,34 18,5 17,-13 17,-29 0,-16 1,-24 -7,-36l-10 0c-7,12 -7,16 -7,31z"/>
  <path class="fil0" d="M1026 164c-11,12 -8,60 1,64l9 1c8,-9 8,-18 8,-30l0 -5c0,-15 -1,-20 -8,-31l-10 1z"/>
  <polygon class="fil2" points="201,71 201,97 201,122 220,122 220,97 220,71 220,51 201,51 "/>
  <polygon class="fil3" points="632,245 651,245 651,173 632,173 "/>
  <path class="fil0" d="M1254 109c17,1 23,-5 23,-22 1,-19 -5,-26 -23,-25 -16,14 -16,33 0,47z"/>
  <polygon class="fil1" points="400,245 419,245 419,227 419,214 419,194 419,173 400,173 400,194 400,212 "/>
  <path class="fil0" d="M899 109c17,1 23,-5 24,-22 0,-19 -6,-26 -23,-25 -16,14 -16,33 -1,47z"/>
  <path class="fil0" d="M1195 184c-13,14 -17,46 9,48 18,-10 16,-33 3,-48l-12 0z"/>
  <path class="fil0" d="M335 231l30 1 0 -46 -22 1c-1,19 -3,29 -8,44z"/>
  <path class="fil0" d="M684 231l30 1 0 -13 0 -33 -22 1c0,19 -2,28 -8,44z"/>
  <path class="fil0" d="M393 109c11,1 29,4 30,-7 1,-13 -18,-11 -30,-10l0 17z"/>
  <path class="fil0" d="M1329 109c5,0 10,1 15,1 16,-1 12,-2 13,-5 5,-16 -13,-14 -28,-13l0 17z"/>
  <path class="fil0" d="M572 232c10,0 20,2 28,-4 4,-17 -12,-14 -28,-13l0 17z"/>
  <path class="fil4" d="M488 145c-16,2 -4,-1 -14,10 -27,1 -2,-8 -26,-10 4,28 35,30 40,0z"/>
  <path class="fil0" d="M724 82l0 -16 0 -2c-10,0 -25,-3 -26,8 -1,12 16,10 26,10z"/>
  <path class="fil0" d="M393 78c15,2 25,4 28,-9 -8,-7 -14,-6 -28,-5l0 14z"/>
  <path class="fil0" d="M1329 78c15,2 25,4 28,-9 -9,-7 -14,-6 -28,-5l0 14z"/>
  <path class="fil0" d="M584 201c11,1 14,-1 15,-10 -8,-7 -12,-5 -27,-4l0 14 12 0z"/>
  <path class="fil0" d="M258 224c3,7 7,10 16,7 9,-3 9,-8 9,-19 -13,2 -21,1 -25,12z"/>
  <path class="fil0" d="M1044 102c4,12 14,7 23,3l1 -15c-12,2 -21,1 -24,12z"/>
  <path class="fil0" d="M467 102c5,12 15,7 23,4l2 -16c-13,2 -21,1 -25,12z"/>
  <polygon class="fil2" points="400,163 419,163 419,148 400,148 "/>
  <polygon class="fil3" points="632,163 651,163 651,148 632,148 "/>
  <polygon class="fil3" points="201,41 220,41 220,25 201,25 "/>
  <path class="fil5" d="M777 219l18 -3c1,5 2,8 5,11 2,2 5,4 9,4 4,0 7,-2 10,-5 2,-3 3,-7 3,-12 0,-4 -1,-8 -3,-11 -3,-2 -6,-4 -9,-4 -3,0 -6,1 -9,2l2 -15c5,0 9,-1 12,-4 2,-2 4,-5 4,-9 0,-3 -1,-6 -3,-8 -2,-2 -5,-3 -8,-3 -3,0 -6,2 -8,4 -2,2 -4,5 -4,9l-17 -3c1,-5 3,-10 5,-14 3,-3 6,-6 10,-8 4,-2 9,-3 15,-3 9,0 16,3 21,9 5,5 7,10 7,16 0,8 -4,15 -14,20 6,1 10,4 14,8 3,4 4,9 4,15 0,9 -3,16 -9,22 -6,6 -14,9 -23,9 -9,0 -16,-3 -22,-8 -5,-5 -9,-11 -10,-19z"/>
 </g>
</svg>
