<?xml version="1.0" encoding="UTF-8"?>
<!DOCTYPE svg PUBLIC "-//W3C//DTD SVG 1.1//EN" "http://www.w3.org/Graphics/SVG/1.1/DTD/svg11.dtd">
<!-- Creator: CorelDRAW X7 -->
<svg xmlns="http://www.w3.org/2000/svg" xml:space="preserve" width="38.5101mm" height="16.3869mm" version="1.1" style="shape-rendering:geometricPrecision; text-rendering:geometricPrecision; image-rendering:optimizeQuality; fill-rule:evenodd; clip-rule:evenodd"
viewBox="0 0 915 389"
 xmlns:xlink="http://www.w3.org/1999/xlink">
 <defs>
  <style type="text/css">
   <![CDATA[
    .fil5 {fill:#FEFEFE}
    .fil7 {fill:#FFFEFA}
    .fil3 {fill:#FEFAFC}
    .fil4 {fill:#F9FCFE}
    .fil2 {fill:#FAFCF8}
    .fil6 {fill:#F7F5F5}
    .fil0 {fill:#E9383A}
    .fil1 {fill:#3E4693}
   ]]>
  </style>
 </defs>
 <g id="Слой_x0020_1">
  <metadata id="CorelCorpID_0Corel-Layer"/>
  <path class="fil0" d="M854 321c6,-2 2,4 5,-7 4,12 9,24 14,36 6,16 12,27 -11,28l2 11c27,3 26,-10 34,-31 6,-15 12,-31 17,-47l-15 0 -13 40 -13 -40 -54 1 0 55 15 0 0 -46 19 0z"/>
  <path class="fil1" d="M108 67c4,-10 6,-22 6,-35l17 -1 0 35 0 2 -23 -1zm-9 11l41 0 0 13 13 0 0 -21 -7 -4 1 -45 -45 1c-1,10 -1,33 -7,42 -3,5 -7,5 -7,5 0,-1 -1,0 -2,1l0 22 13 -1 0 -13z"/>
  <path class="fil1" d="M171 226l17 -2 0 37 -24 -1c5,-10 6,-22 7,-34zm-16 45l41 0 0 14 13 -1 0 -21c-7,-6 -5,2 -6,-8l0 -40 -45 0c0,10 -1,20 -2,30 -1,2 -3,10 -5,12 -4,7 1,1 -4,4l-4 2 0 22 12 0 0 -14z"/>
  <path class="fil1" d="M263 206c17,0 16,14 12,26l-14 -1c-4,-8 -4,-8 -3,-19l5 -6zm-18 46c3,12 6,18 19,19 39,2 33,-56 23,-67 -14,-16 -38,-11 -43,9 -4,16 5,39 35,27 -1,7 -2,16 -8,18 -8,3 -10,-2 -13,-7l-13 1z"/>
  <path class="fil1" d="M593 66l-14 1c-6,-11 -11,-37 7,-37 17,0 12,27 7,36zm-15 8c0,0 2,1 2,1 7,4 15,3 21,-1 29,-19 1,-75 -25,-49l-17 -3 0 77 15 1 0 -29 4 3z"/>
  <path class="fil1" d="M381 231c0,-35 18,-34 18,0 0,10 1,27 -8,28 -12,1 -10,-18 -10,-28zm-15 16c6,37 58,35 48,-28 -6,-40 -58,-34 -48,28z"/>
  <path class="fil1" d="M441 233c0,-37 18,-36 19,-2 0,9 1,25 -7,27 -13,4 -12,-16 -12,-25zm-15 14c6,37 58,35 48,-28 -6,-40 -58,-34 -48,28z"/>
  <path class="fil1" d="M583 224c12,-2 17,-1 19,13 5,41 -41,21 -19,-13zm-5 40c7,4 15,11 27,4 7,-5 12,-13 12,-25 1,-25 -22,-40 -37,-24l-17 -4 0 78 15 0 0 -29z"/>
  <path class="fil1" d="M322 231c0,-33 19,-36 19,2 0,10 1,25 -9,26 -11,1 -10,-18 -10,-28zm-15 14c5,38 56,40 49,-24 -5,-40 -56,-40 -49,24z"/>
  <path class="fil1" d="M439 39c0,-36 18,-35 19,-2 0,9 1,26 -7,28 -13,4 -12,-16 -12,-26zm-15 8c1,19 11,37 32,30 16,-6 18,-26 17,-46 -3,-41 -53,-47 -49,16z"/>
  <path class="fil1" d="M72 260l0 -13c10,-1 16,-2 22,4 1,13 -11,11 -22,9zm0 -35c9,-1 17,-3 21,6 -4,6 -8,7 -16,6l-5 -1 0 -11zm29 15c10,-7 11,-20 -3,-24 -8,-3 -32,-1 -42,-2l0 57c12,0 39,2 47,-3 15,-9 5,-20 -2,-28z"/>
  <path class="fil1" d="M15 54c11,-1 17,-2 23,4 0,12 -11,11 -23,9l0 -13zm0 -22c12,-2 20,-4 22,8 -7,4 -11,4 -22,3l0 -11zm29 15c11,-7 12,-20 -2,-25 -8,-2 -33,-1 -42,-1l0 57c15,0 79,6 44,-31z"/>
  <path class="fil1" d="M396 58c-8,25 -25,-8 -16,-37 7,-23 25,5 16,37zm-32 -6c4,38 56,39 48,-24 -5,-40 -56,-39 -48,24z"/>
  <path class="fil1" d="M335 58c-7,26 -24,-8 -15,-37 7,-24 24,5 15,37zm-32 -11c2,42 53,48 49,-16 -3,-41 -53,-47 -49,16z"/>
  <path class="fil0" d="M608 122c3,-5 10,-21 19,-9 13,17 -30,32 -34,61l51 0 0 -14 -29 -1c7,-9 39,-28 27,-50 -10,-18 -48,-15 -47,12l13 1z"/>
  <path class="fil0" d="M874 174c6,-2 7,-6 13,-16 5,-7 8,-12 12,-18l1 34 14 0 0 -56 -14 0 -23 33 0 -33 -14 0 0 56 11 0z"/>
  <path class="fil0" d="M520 158c3,-8 10,-7 19,-9 0,7 0,12 -6,14 -7,3 -11,0 -13,-5zm1 -24c1,-6 2,-9 10,-8 8,1 8,3 8,10 -15,6 -34,3 -34,22 1,20 23,17 35,11 4,6 1,5 17,5 -5,-17 1,-47 -9,-54 -4,-3 -33,-13 -41,12l14 2z"/>
  <path class="fil0" d="M524 351c3,-8 10,-7 20,-9l-2 12c-7,3 -14,7 -18,-3zm0 -24c2,-6 3,-9 12,-8 7,1 7,3 7,10 -15,6 -34,3 -34,22 1,20 23,17 35,11 4,7 1,6 17,4 -10,-22 11,-57 -25,-57 -16,0 -21,4 -25,16l13 2z"/>
  <path class="fil1" d="M250 23c5,-9 5,-11 17,-8l1 11 -13 15c9,6 15,0 16,11 2,14 -14,16 -14,12 -6,-3 -5,-3 -7,-11l-14 3c2,13 11,22 26,22 23,0 36,-31 12,-40l2 -2c26,-27 -25,-55 -39,-15l13 2z"/>
  <polygon class="fil1" points="640,52 661,52 661,78 676,77 676,22 661,21 661,41 640,41 640,21 625,22 625,77 640,78 "/>
  <polygon class="fil1" points="642,245 663,245 663,271 678,270 678,215 663,215 663,235 642,235 642,214 627,215 627,270 642,271 "/>
  <polygon class="fil0" points="703,148 723,148 723,174 738,173 738,118 723,118 723,138 702,138 702,118 687,119 687,174 702,174 "/>
  <polygon class="fil0" points="705,341 725,341 725,368 740,366 740,312 725,311 725,331 705,331 705,311 689,312 690,367 705,367 "/>
  <path class="fil0" d="M786 357c-10,0 -20,-2 -18,-22 3,-34 47,-6 18,22zm-32 -10c8,34 65,22 55,-18 -8,-32 -65,-25 -55,18z"/>
  <path class="fil0" d="M782 164l-9 0c-13,-11 -13,-26 0,-37l9 -1c13,13 13,25 0,38zm-32 -10c8,34 65,22 55,-18 -3,-13 -20,-24 -37,-19 -14,5 -22,19 -18,37z"/>
  <path class="fil0" d="M481 136c-3,10 -8,-4 -9,10 0,6 4,2 11,8 -1,10 -3,10 -13,10l-7 -8 -12 2c2,10 9,15 20,16 15,1 17,-2 27,-9l-1 -13 -9 -8c4,-4 11,-11 5,-20 -7,-11 -35,-13 -40,8l12 1 5 -7c6,0 14,0 11,10z"/>
  <path class="fil0" d="M474 320c4,-1 7,-2 10,1 9,9 -8,14 -8,14l0 6c8,6 11,-1 11,12 -5,4 -4,4 -13,4 -2,-3 -4,-4 -7,-8l-13 2c4,12 13,17 27,16 15,0 22,-7 20,-22l-8 -8c25,-27 -28,-42 -36,-12l10 2 7 -7z"/>
  <path class="fil0" d="M602 323c10,-3 11,-5 19,-8l0 52 15 0 0 -76 -12 0c-4,10 -12,16 -22,20l0 12z"/>
  <path class="fil1" d="M182 33c11,-3 10,-4 19,-8l0 52 15 0 0 -76 -13 0c-3,11 -11,16 -21,21l0 11z"/>
  <polygon class="fil1" points="534,225 556,225 556,214 518,215 518,270 533,271 "/>
  <polygon class="fil1" points="529,31 540,31 552,31 552,21 514,22 514,77 529,77 529,72 529,66 "/>
  <polygon class="fil0" points="833,128 856,128 856,120 856,118 818,119 818,174 833,174 "/>
  <path class="fil2" d="M335 58c9,-32 -8,-61 -15,-37 -9,29 8,63 15,37z"/>
  <path class="fil2" d="M396 58c9,-32 -9,-60 -16,-37 -9,29 8,62 16,37z"/>
  <polygon class="fil1" points="122,271 138,271 138,214 122,214 122,227 122,259 "/>
  <polygon class="fil1" points="64,78 73,78 80,78 80,21 64,21 64,39 64,58 "/>
  <path class="fil2" d="M439 39c0,10 -1,30 12,26 8,-2 7,-19 7,-28 -1,-33 -19,-34 -19,2z"/>
  <path class="fil2" d="M381 231c0,10 -2,29 10,28 9,-1 8,-18 8,-28 0,-34 -18,-35 -18,0z"/>
  <path class="fil2" d="M441 233c0,9 -1,29 12,25 8,-2 7,-18 7,-27 -1,-34 -19,-35 -19,2z"/>
  <path class="fil2" d="M322 231c0,10 -1,29 10,28 10,-1 9,-16 9,-26 0,-38 -19,-35 -19,-2z"/>
  <path class="fil2" d="M786 357c29,-28 -15,-56 -18,-22 -2,20 8,22 18,22z"/>
  <path class="fil3" d="M782 164c13,-13 13,-25 0,-38l-9 1c-13,11 -13,26 0,37l9 0z"/>
  <path class="fil3" d="M583 224c-22,34 24,54 19,13 -2,-14 -7,-15 -19,-13z"/>
  <path class="fil4" d="M593 66c5,-9 10,-36 -7,-36 -18,0 -13,26 -7,37l14 -1z"/>
  <path class="fil3" d="M108 67l23 1 0 -2 0 -35 -17 1c0,13 -2,25 -6,35z"/>
  <path class="fil2" d="M171 226c-1,12 -2,24 -7,34l24 1 0 -37 -17 2z"/>
  <path class="fil5" d="M258 212c-1,11 -1,11 3,19l14 1c4,-12 5,-26 -12,-26l-5 6z"/>
  <path class="fil2" d="M72 260c11,2 23,4 22,-9 -6,-6 -12,-5 -22,-4l0 13z"/>
  <path class="fil3" d="M15 67c12,2 23,3 23,-9 -6,-6 -12,-5 -23,-4l0 13z"/>
  <path class="fil2" d="M15 43c11,1 15,1 22,-3 -2,-12 -10,-10 -22,-8l0 11z"/>
  <path class="fil2" d="M72 236l5 1c8,1 12,0 16,-6 -4,-9 -12,-7 -21,-6l0 11z"/>
  <path class="fil6" d="M520 158c2,5 6,8 13,5 6,-2 6,-7 6,-14 -9,2 -16,1 -19,9z"/>
  <path class="fil7" d="M524 351c4,10 11,6 18,3l2 -12c-10,2 -17,1 -20,9z"/>
  <polygon class="fil1" points="64,13 71,13 80,13 80,1 64,1 "/>
  <polygon class="fil1" points="122,206 138,206 138,194 122,194 "/>
 </g>
</svg>
