<?xml version="1.0" encoding="UTF-8"?>
<!DOCTYPE svg PUBLIC "-//W3C//DTD SVG 1.1//EN" "http://www.w3.org/Graphics/SVG/1.1/DTD/svg11.dtd">
<!-- Creator: CorelDRAW X7 -->
<svg xmlns="http://www.w3.org/2000/svg" xml:space="preserve" width="61.3098mm" height="5.0853mm" version="1.1" style="shape-rendering:geometricPrecision; text-rendering:geometricPrecision; image-rendering:optimizeQuality; fill-rule:evenodd; clip-rule:evenodd"
viewBox="0 0 6766 561"
 xmlns:xlink="http://www.w3.org/1999/xlink">
 <defs>
  <style type="text/css">
   <![CDATA[
    .fil2 {fill:#FEFCFD}
    .fil3 {fill:#FCFDFB}
    .fil5 {fill:#FAF9F9}
    .fil1 {fill:#0CA49E}
    .fil4 {fill:#3E3E71}
    .fil0 {fill:#363B73}
   ]]>
  </style>
   <clipPath id="id0">
    <rect x="3972" y="122" width="2794" height="336"/>
   </clipPath>
 </defs>
 <g id="Слой_x0020_1">
  <metadata id="CorelCorpID_0Corel-Layer"/>
  <g style="clip-path:url(#id0)">
   <image id="_050_x0020_105_x0020_30_x0020_20_x0020_" x="3972" y="122" width="2794" height="336" xlink:href="t.svg_Images\t.svg_ImgID1.png"/>
  </g>
  <path class="fil0" d="M132 216c19,-28 38,-36 48,-75 -10,-22 -58,-80 -74,-88 -42,-22 -81,29 -95,53 -55,98 100,298 242,372 153,80 193,-56 193,-56 0,-6 -42,-96 -111,-101l-55 48c-56,-17 -132,-100 -148,-153z"/>
  <path class="fil1" d="M2041 310c15,19 31,32 27,65 -3,28 -25,54 -57,45 -36,-9 -70,-106 30,-110zm-59 -94c31,-90 121,8 55,36 -42,17 -55,-36 -55,-36zm102 66c179,-220 -306,-202 -124,-1 -86,68 -59,198 67,197 108,-1 156,-136 57,-196z"/>
  <path class="fil1" d="M2637 297c-31,-30 -44,-111 8,-117 66,-9 57,77 41,115l-49 2zm-83 106c15,47 39,74 90,75 166,3 147,-247 97,-312 -25,-33 -57,-52 -113,-41 -138,29 -111,290 76,213 -5,57 -7,79 -60,83l-37 -37c-41,7 -26,-2 -53,19z"/>
  <path class="fil1" d="M3243 200c20,-16 15,-16 46,-21l38 33c7,61 -2,85 -61,88l-23 -26 0 -74zm-54 189c-10,103 123,118 183,41 44,-58 46,-208 -3,-266 -58,-71 -178,-48 -192,52 -7,54 10,97 39,120 45,36 74,18 118,2 -11,72 -40,120 -92,47l-53 4z"/>
  <path class="fil1" d="M3528 308c92,-24 93,51 53,113 -75,-3 -77,-60 -53,-113zm-18 -41c5,-63 8,-86 70,-87 16,17 11,16 26,35l53 -3c2,-45 -31,-82 -72,-88 -180,-25 -162,240 -116,311 43,67 177,62 196,-46 10,-57 -4,-93 -36,-122 -18,-17 -34,-24 -62,-23 -29,1 -36,11 -59,23z"/>
  <path class="fil1" d="M2896 299c-27,-17 -36,-25 -33,-73 2,-31 13,-53 49,-46 45,10 71,120 -16,119zm-88 91c1,44 28,81 71,87 208,29 198,-405 -6,-350 -45,12 -65,37 -74,86 -13,76 24,176 157,125 -8,94 -67,115 -86,46l-62 6z"/>
  <path class="fil1" d="M845 179c64,9 57,45 57,112 0,65 10,111 -43,131 -45,-26 -39,-54 -39,-112 0,-63 -7,-81 25,-131zm-91 187c13,72 65,146 159,101 59,-28 69,-148 56,-230 -32,-198 -262,-140 -215,129z"/>
  <path class="fil1" d="M1383 422c-50,-25 -41,-61 -41,-122 0,-61 -7,-98 41,-121 47,21 41,53 41,112 1,71 10,107 -41,131zm-107 -56c28,179 259,158 215,-128 -30,-190 -258,-156 -215,128z"/>
  <path class="fil1" d="M1102 188l126 2 0 -67 -175 -1 -34 187 58 9c29,-27 76,-48 93,6 19,57 -26,160 -96,42l-56 9c-2,121 157,136 207,47 25,-46 26,-101 -6,-144 -36,-50 -58,-45 -124,-37l7 -53z"/>
  <path class="fil1" d="M2224 234c30,-46 25,-83 89,-36 18,111 -134,138 -156,279l230 2 0 -66 -133 -3c28,-43 175,-128 123,-234 -30,-59 -188,-105 -214,53l61 5z"/>
  <path class="fil1" d="M1761 473c1,-63 15,-115 36,-168 61,-150 75,-67 77,-181l-226 -2 0 66 148 1c-56,82 -89,165 -100,290l65 -6z"/>
  <path class="fil2" d="M1383 422c51,-24 42,-60 41,-131 0,-59 6,-91 -41,-112 -48,23 -41,60 -41,121 0,61 -9,97 41,122z"/>
  <path class="fil3" d="M845 179c-32,50 -25,68 -25,131 0,58 -6,86 39,112 53,-20 43,-66 43,-131 0,-67 7,-103 -57,-112z"/>
  <path class="fil4" d="M494 234c-28,-114 -112,-233 -241,-234 -5,57 1,32 58,56 27,11 49,26 68,43 58,54 59,110 79,143l36 -8z"/>
  <path class="fil5" d="M2896 299c87,1 61,-109 16,-119 -36,-7 -47,15 -49,46 -3,48 6,56 33,73z"/>
  <path class="fil5" d="M3528 308c-24,53 -22,110 53,113 40,-62 39,-137 -53,-113z"/>
  <path class="fil5" d="M2637 297l49 -2c16,-38 25,-124 -41,-115 -52,6 -39,87 -8,117z"/>
  <path class="fil5" d="M3243 274l23 26c59,-3 68,-27 61,-88l-38 -33c-31,5 -26,5 -46,21l0 74z"/>
  <path class="fil5" d="M2041 310c-100,4 -66,101 -30,110 32,9 54,-17 57,-45 4,-33 -12,-46 -27,-65z"/>
  <path class="fil4" d="M392 243c-10,-68 -72,-145 -144,-142l-2 37c138,35 55,117 146,105z"/>
  <path class="fil1" d="M3718 561c69,-27 62,-57 62,-147l-66 -2 0 56 20 12c1,1 4,5 5,4 1,-2 4,2 5,3 -15,75 -44,13 -26,74z"/>
  <path class="fil5" d="M1982 216c0,0 13,53 55,36 66,-28 -24,-126 -55,-36z"/>
 </g>
</svg>
